<svg width="300" height="40" viewBox="0 0 300 40" fill="none" xmlns="http://www.w3.org/2000/svg">
    <path
        d="M80.9491 22.7629L75.522 13.0783L70.0245 22.7629H80.9491ZM83.8034 27.8472H67.3109L64.7883 32.2924H56.155L70.3662 7.7518H80.7884L94.6879 32.2924H86.1351L83.8034 27.8472ZM96.6376 32.2924V7.7518H125.01V13.2429H104.286V17.5138H123.642V22.3561H104.286V26.8012H125.01V32.3214L96.6376 32.2924ZM151.061 15.2572C151.058 14.7985 150.951 14.3457 150.749 13.9305C150.643 13.747 150.5 13.5868 150.327 13.46C150.153 13.3332 149.955 13.2429 149.744 13.1945C149.179 12.9954 148.585 12.8843 147.984 12.8653C147.281 12.8168 146.346 12.7877 145.201 12.7877H144.708C144.578 12.7877 144.407 12.7877 144.205 12.7877C142.558 12.8653 141.171 12.904 140.045 12.904C139.136 12.8873 138.228 12.9488 137.331 13.088C136.784 13.1271 136.264 13.3303 135.844 13.6691C135.498 14.0835 135.332 14.6112 135.381 15.1411C135.366 15.4125 135.42 15.6833 135.541 15.9289C135.663 16.1743 135.847 16.3863 136.075 16.5454C136.653 16.8718 137.314 17.0362 137.984 17.0199L141.23 17.0973C142.235 17.0973 143.24 17.0973 144.135 17.0973H145.773C146.357 17.0973 146.909 17.0973 147.411 17.0973C149.533 17.0973 151.361 17.1555 152.92 17.2814C154.241 17.3222 155.541 17.622 156.738 18.1627C157.737 18.637 158.532 19.4314 158.99 20.4095C159.536 21.7559 159.782 23.1976 159.713 24.6415C159.734 25.7314 159.606 26.8189 159.332 27.8763C159.128 28.6803 158.721 29.4236 158.147 30.0401C157.574 30.6567 156.853 31.1275 156.045 31.411C155.075 31.7624 154.061 31.9841 153.03 32.0696C152.346 32.1472 151.02 32.2342 149.01 32.3311C147 32.4279 144.538 32.4764 141.483 32.4764C138.427 32.4764 136.025 32.3892 134.115 32.2246C132.682 32.1843 131.281 31.805 130.035 31.1205C129.494 30.7681 129.03 30.3173 128.667 29.7938C128.391 29.307 128.184 28.7855 128.055 28.2442C127.951 27.6751 127.9 27.0982 127.904 26.5204V24.4576H135.572V25.3001C135.571 25.5818 135.636 25.8599 135.763 26.1137C135.939 26.374 136.177 26.5899 136.456 26.7431C136.939 26.9467 137.457 27.0584 137.984 27.0725C138.317 27.0725 138.929 27.0725 139.813 27.1402C140.699 27.208 141.874 27.1402 143.251 27.1402C145.04 27.1402 146.487 27.1402 147.602 27.1402C148.501 27.1445 149.396 27.0601 150.277 26.8884C150.778 26.8184 151.241 26.5821 151.583 26.2202C151.834 25.8361 151.954 25.3855 151.924 24.9322C151.947 24.4917 151.828 24.0551 151.583 23.6828C151.34 23.3539 150.984 23.1202 150.578 23.0243C150.07 22.8661 149.542 22.7781 149.01 22.7629C148.427 22.7629 147.774 22.7629 147.06 22.7629C144.568 22.7629 142.354 22.7629 140.417 22.7629C138.477 22.7629 136.798 22.7144 135.392 22.6175C134.169 22.5478 132.955 22.376 131.763 22.1043C130.887 21.9042 130.075 21.4983 129.402 20.9228C128.782 20.3353 128.335 19.6002 128.104 18.7921C127.821 17.6969 127.694 16.5698 127.724 15.4413C127.705 14.3783 127.807 13.3165 128.025 12.2745C128.215 11.4673 128.593 10.7124 129.13 10.0664C129.665 9.4422 130.356 8.96177 131.14 8.67182C132.131 8.28708 133.174 8.03927 134.236 7.93581C135.05 7.83895 136.356 7.73243 138.166 7.63559C139.974 7.53873 142.286 7.49031 145.04 7.49031C146.487 7.49031 147.793 7.49031 148.939 7.49031C149.97 7.48353 150.999 7.53203 152.025 7.63559C152.842 7.71151 153.649 7.86064 154.437 8.08107C155.083 8.22916 155.693 8.50266 156.226 8.88489C156.734 9.22845 157.176 9.65445 157.532 10.1439C157.86 10.5761 158.106 11.0615 158.255 11.5772C158.414 12.1312 158.515 12.6989 158.557 13.2719C158.557 13.8531 158.638 14.5019 158.638 15.2089L151.061 15.2572ZM170.236 18.9762C170.236 20.2254 170.236 21.2811 170.236 22.143C170.266 22.8608 170.367 23.5742 170.538 24.2736C170.67 24.7604 170.933 25.2049 171.301 25.5616C171.724 25.8851 172.22 26.1105 172.749 26.2202C173.515 26.3847 174.296 26.4724 175.08 26.4817C176.025 26.4817 177.16 26.4817 178.477 26.4817C181.157 26.4817 183.221 26.4558 184.668 26.4042C185.797 26.4189 186.911 26.1662 187.915 25.6682C188.276 25.448 188.58 25.1512 188.805 24.8004C189.03 24.4497 189.168 24.0542 189.211 23.6441C189.388 22.3017 189.465 20.9489 189.442 19.5959C189.463 18.4748 189.385 17.3538 189.211 16.2451C189.154 15.5516 188.844 14.9001 188.336 14.4051C187.769 13.9496 187.065 13.6815 186.326 13.64C185.148 13.5212 183.964 13.4695 182.779 13.485H176.287C174.994 13.4367 173.702 13.6004 172.467 13.9692C172.063 14.0834 171.691 14.2848 171.379 14.5583C171.067 14.8319 170.824 15.1703 170.668 15.5479C170.319 16.658 170.173 17.818 170.236 18.9762ZM162.326 22.3561C162.326 20.0318 162.326 18.027 162.407 16.3613C162.434 14.9116 162.678 13.4733 163.131 12.0905C163.509 11.0133 164.209 10.0671 165.141 9.36912C166.297 8.58543 167.63 8.08059 169.029 7.89706C171.097 7.64454 173.178 7.53451 175.261 7.56778C178.282 7.51614 182.24 7.49031 187.131 7.49031C188.532 7.46969 189.933 7.60618 191.302 7.89706C192.364 8.11913 193.365 8.55837 194.236 9.18511C195.065 9.75979 195.725 10.5346 196.146 11.4319C196.645 12.5037 196.967 13.6441 197.1 14.8119C197.213 15.705 197.264 16.6045 197.251 17.5041C197.251 18.6081 197.251 19.8962 197.251 21.3779C197.273 22.9051 197.16 24.4312 196.909 25.9393C196.732 27.035 196.329 28.0854 195.723 29.0287C195.162 29.8527 194.385 30.5204 193.473 30.9657C192.374 31.4852 191.203 31.8442 189.995 32.0309C188.35 32.2694 186.693 32.4054 185.03 32.4377C183.147 32.5087 180.946 32.5442 178.427 32.5442C175.573 32.5442 173.127 32.457 171.09 32.2827C169.348 32.2119 167.637 31.8 166.065 31.0721C164.779 30.3966 163.77 29.3212 163.201 28.0215C162.539 26.2039 162.249 24.28 162.347 22.3561H162.326ZM208.176 7.7518V26.1524H225.704V32.2537H200.387V7.7518H208.176ZM251.924 22.7629L246.508 13.0783L241 22.7629H251.924ZM254.748 27.8472H238.316L235.794 32.2924H227.161L241.371 7.7518H251.835L265.713 32.2924H257.161L254.748 27.8472ZM275.633 20.0221H287.282C287.445 20.0048 287.61 20.0048 287.774 20.0221H288.277C288.991 20.0372 289.703 19.9885 290.408 19.8768C290.847 19.8241 291.261 19.6453 291.593 19.3635C291.883 19.0719 292.058 18.6914 292.086 18.2885C292.175 17.7311 292.215 17.1674 292.206 16.6035C292.228 16.0777 292.149 15.5526 291.976 15.0539C291.87 14.6878 291.626 14.3731 291.292 14.1727C290.89 13.9286 290.43 13.7886 289.955 13.7659C289.392 13.7659 288.689 13.6884 287.854 13.6884H275.633V20.0221ZM275.633 25.9878V32.3118H267.804V7.7518H291.483C292.821 7.72448 294.156 7.87106 295.452 8.18761C296.435 8.40325 297.341 8.86036 298.086 9.51438C298.796 10.1621 299.298 10.9922 299.533 11.9065C299.869 13.0824 300.025 14.2994 299.995 15.5188C300.029 16.6953 299.9 17.8708 299.614 19.0149C299.44 19.7649 299.073 20.4608 298.548 21.039C298.085 21.5267 297.51 21.9046 296.869 22.143C296.176 22.3851 295.403 22.6272 294.538 22.879L296.548 23.2761C297.141 23.3567 297.707 23.5724 298.197 23.9055C298.702 24.2522 299.087 24.7384 299.302 25.3001C299.624 26.1219 299.769 26.9987 299.724 27.8763V32.2924H291.844V29.0578C291.92 28.2301 291.671 27.4052 291.151 26.7431C290.718 26.2202 289.834 25.9684 288.477 25.9684L275.633 25.9878Z"
        fill="#949699" />
    <path fill-rule="evenodd" clip-rule="evenodd"
        d="M29.9384 5.18739C32.2964 4.77399 34.574 4.00487 36.6893 2.90769C34.5726 1.8137 32.2955 1.04476 29.9384 0.627984C25.4786 -0.209328 20.8961 -0.209328 16.4365 0.627984C14.0807 1.04066 11.8057 1.80984 9.69363 2.90769C11.8052 4.0083 14.0802 4.78019 16.4365 5.19539C18.6599 5.62049 20.9216 5.82683 23.1873 5.81131C25.4532 5.81976 27.7144 5.61078 29.9384 5.18739ZM44.2005 11.028C40.8189 12.2932 37.2938 13.1579 33.7008 13.6036C30.2281 14.1182 26.7217 14.3855 23.2093 14.4036C19.6992 14.4173 16.1928 14.1821 12.7178 13.6996C9.12426 13.2396 5.59959 12.3642 2.21815 11.092C5.59777 9.81085 9.12288 8.92999 12.7178 8.46832C19.6776 7.50844 26.7411 7.50844 33.7008 8.46832C37.2923 8.91304 40.8169 9.77229 44.2005 11.028ZM46.4118 20.0056C42.6765 21.4314 38.7799 22.417 34.8048 22.9412C30.9632 23.4796 27.0869 23.7469 23.206 23.7412C19.322 23.7549 15.4423 23.4876 11.5989 22.9412C7.62491 22.4245 3.73007 21.4387 0 20.0056C3.72971 18.5698 7.62456 17.5814 11.5989 17.062C15.4423 16.5158 19.322 16.2484 23.206 16.2622C27.0869 16.2564 30.9632 16.5237 34.8048 17.062C38.7803 17.5889 42.6769 18.5771 46.4118 20.0056ZM44.2005 28.9681C40.8191 30.2404 37.2943 31.1157 33.7008 31.5758C30.2253 32.0557 26.7194 32.2962 23.2093 32.2957C19.6991 32.2962 16.1934 32.0557 12.7178 31.5758C9.12351 31.1196 5.59837 30.2441 2.21815 28.9681C5.59863 27.6995 9.12417 26.8347 12.7178 26.3924C19.6776 25.4326 26.7411 25.4326 33.7008 26.3924C37.2938 26.8382 40.8189 27.703 44.2005 28.9681ZM29.9384 39.3758C32.2945 38.9551 34.571 38.1864 36.6893 37.0961C34.5733 35.9972 32.2963 35.223 29.9384 34.8004C27.7144 34.3771 25.4532 34.1681 23.1873 34.1765C20.9216 34.161 18.6599 34.3673 16.4365 34.7924C14.0802 35.2077 11.8052 35.9795 9.69363 37.0802C11.8057 38.178 14.0807 38.9471 16.4365 39.3598C18.6591 39.7928 20.9207 40.0072 23.1873 39.9998C25.4531 40.0042 27.7138 39.7953 29.9384 39.3758Z"
        fill="#949699" />
</svg>
    