<svg width="137" height="40" viewBox="0 0 137 40" fill="none" xmlns="http://www.w3.org/2000/svg">
    <g clip-path="url(#clip0_665_3350)">
        <path
            d="M59.2874 27.5092L53.8308 11.9921C53.3347 10.4974 52.3426 10.2126 51.6339 10.2126C50.5709 10.2126 49.8623 10.7821 49.4371 11.9921L43.9805 27.5092C43.9805 27.5804 43.9805 27.6516 43.9805 27.7228C44.0513 27.794 44.1222 27.794 44.1931 27.794H46.6025C46.6734 27.794 46.8151 27.7228 46.8151 27.6516L48.3741 23.0961H54.8229L56.3819 27.6516C56.3819 27.7228 56.5236 27.794 56.5945 27.794H59.0748C59.1457 27.794 59.2165 27.7228 59.2874 27.7228C59.2874 27.6516 59.3583 27.5804 59.2874 27.5092ZM54.0434 20.8184H49.1536L51.6339 13.5581L54.0434 20.8184Z"
            fill="#949699" />
        <path
            d="M63.5393 27.2957C63.5393 27.3669 63.4684 27.4381 63.3976 27.4381L61.5551 28.3634H61.4842C61.4133 28.3634 61.3425 28.3634 61.3425 28.2922C60.4212 27.2957 60.0669 26.0857 60.0669 24.3774V10.9956C60.0669 10.5685 60.4212 10.2126 60.8464 10.2126H61.7677C62.1929 10.2126 62.5472 10.5685 62.5472 10.9956V24.235C62.5472 25.3739 62.8306 26.228 63.4684 27.0822C63.5393 27.1534 63.5393 27.2245 63.5393 27.2957Z"
            fill="#949699" />
        <path
            d="M69.8464 14.8394C68.7834 14.8394 66.7283 14.9817 65.0275 15.907C64.9567 15.9782 64.9567 16.0494 64.8858 16.1206C64.8149 16.8324 64.8149 17.5442 64.8149 18.256V32.136C64.8149 32.2783 64.8858 32.3495 65.0275 32.3495H67.1535C67.2952 32.3495 67.3661 32.2783 67.3661 32.136V27.6517C68.3582 27.8652 69.3503 28.0076 70.2007 28.0076C74.1692 28.0076 75.6573 26.1569 75.6573 21.459C75.6573 16.6188 74.0983 14.8394 69.8464 14.8394ZM67.3661 19.0389C67.3661 18.4695 67.3661 17.8289 67.437 17.4018C68.0747 17.1171 68.996 16.9747 69.8464 16.9747C72.6101 16.9747 73.1062 18.5407 73.1062 21.3879C73.1062 24.3774 72.7519 25.801 69.6338 25.801C68.996 25.801 68.0747 25.6586 67.3661 25.4451V19.0389Z"
            fill="#949699" />
        <path
            d="M87.988 19.5372V27.5804C87.988 27.7228 87.9171 27.794 87.7754 27.794H85.6494C85.5077 27.794 85.4368 27.7228 85.4368 27.5804V19.893C85.4368 17.9 85.1533 17.0459 82.3896 17.0459C81.5392 17.0459 80.618 17.1882 79.9093 17.4729V27.5804C79.9093 27.7228 79.8384 27.794 79.6967 27.794H77.5708C77.429 27.794 77.3582 27.7228 77.3582 27.5804V10.9956C77.3582 10.5685 77.7125 10.2126 78.1377 10.2126H79.0589C79.4841 10.2126 79.8384 10.5685 79.8384 10.9956V15.1952C80.8306 14.9105 81.8935 14.7681 82.9565 14.7681C84.8699 14.7681 86.1455 15.124 86.925 15.907C87.8462 16.9035 87.988 18.2559 87.988 19.5372Z"
            fill="#949699" />
        <path
            d="M94.7909 14.8394C93.0193 14.8394 91.5311 15.0529 90.1138 15.2664C89.9721 15.2664 89.9012 15.4088 89.9012 15.48L90.0429 16.5477C90.0429 16.7612 90.1847 16.9036 90.3264 17.0459C90.4681 17.1883 90.6807 17.1883 90.8933 17.1883C91.8855 17.0459 93.2319 16.9036 94.5783 16.9036C96.9169 16.9036 97.3421 17.8289 97.3421 19.3948V19.466C95.7122 19.5372 94.0823 19.6084 92.665 19.8219C90.3973 20.1778 89.2634 21.5302 89.2634 23.8791C89.2634 26.6551 90.7516 27.8652 94.224 27.8652C96.35 27.8652 97.9799 27.5805 99.2554 26.9399C99.5389 26.7975 99.7515 26.5128 99.7515 26.2281C99.8224 25.6586 99.8224 25.018 99.8224 24.3774V18.683C99.8224 15.2664 96.9169 14.8394 94.7909 14.8394ZM97.2712 23.808C97.2712 24.5198 97.2712 25.018 97.2004 25.4451C96.4917 25.7298 95.5705 25.8722 94.4366 25.8722C92.3815 25.8722 91.7437 25.3739 91.7437 23.9503C91.7437 22.4556 92.2398 22.0997 93.4445 21.8149C94.5075 21.6014 96.0665 21.5302 97.2004 21.5302V23.808H97.2712Z"
            fill="#949699" />
        <path
            d="M108.255 12.7039H112.649C112.72 12.7039 112.72 12.6327 112.72 12.5615V10.7109C112.72 10.6397 112.649 10.6397 112.649 10.5685C111.444 10.4973 109.531 10.4973 108.326 10.4973C105.633 10.4973 102.586 10.4973 102.586 14.4834V23.8079C102.586 27.7939 105.633 27.7939 108.326 27.7939C109.602 27.7939 111.373 27.7227 112.649 27.6516C112.72 27.6516 112.72 27.5804 112.72 27.5804V25.7297C112.72 25.6585 112.649 25.6585 112.649 25.6585H108.255C105.421 25.6585 105.137 25.0891 105.137 22.8114V20.0354H112.295C112.366 20.0354 112.366 19.9642 112.366 19.9642V18.1135C112.366 18.0423 112.366 17.9712 112.295 17.9712H105.137V15.5511C105.137 13.2733 105.421 12.7039 108.255 12.7039Z"
            fill="#949699" />
        <path
            d="M120.232 17.8288C117.751 17.117 116.759 16.8323 116.759 14.7681C116.759 12.7751 118.743 12.5615 120.869 12.5615C121.861 12.5615 122.924 12.6327 124.342 12.8463H124.413L124.483 12.7751L124.696 10.9244C124.696 10.8532 124.696 10.8532 124.625 10.7821C123.208 10.4973 121.578 10.355 120.161 10.355C116.051 10.355 114.208 11.7786 114.208 15.0528C114.208 18.2559 116.051 19.0389 119.027 19.9642C121.153 20.6048 122.428 21.1031 122.428 22.9537C122.428 24.8756 121.436 25.6586 118.814 25.6586C117.61 25.6586 115.98 25.5162 114.633 25.3027C114.562 25.3027 114.562 25.3027 114.562 25.3027V25.3738L114.35 27.2957C114.35 27.3669 114.35 27.3669 114.421 27.438C115.838 27.7228 117.184 27.8651 118.956 27.8651C123.208 27.8651 125.121 26.2992 125.121 22.8826C124.98 19.8218 123.066 18.683 120.232 17.8288ZM131.995 17.8288C129.515 17.117 128.523 16.8323 128.523 14.7681C128.523 12.7751 130.507 12.5615 132.633 12.5615C133.625 12.5615 134.688 12.6327 136.105 12.8463H136.176L136.247 12.7751L136.46 10.8532L136.389 10.7821C135.042 10.4973 133.342 10.355 131.924 10.355C127.814 10.355 125.972 11.7786 125.972 15.0528C125.972 18.2559 127.814 19.0389 130.791 19.9642C132.846 20.6048 134.121 21.1031 134.121 22.9537C134.121 24.8756 133.129 25.6586 130.507 25.6586C129.302 25.6586 127.672 25.5162 126.326 25.3027C126.255 25.3027 126.255 25.3027 126.255 25.3027V25.3738L126.043 27.2957C126.043 27.3669 126.043 27.3669 126.113 27.438C127.531 27.7228 128.877 27.8651 130.649 27.8651C134.901 27.8651 136.814 26.2992 136.814 22.8826C136.814 19.8218 134.901 18.683 131.995 17.8288Z"
            fill="#949699" />
        <path
            d="M38.5947 26.7975L25.6972 31.2818L22.0122 23.452L28.1775 18.7542L32.9255 15.124C34.2719 14.1275 34.9806 15.6223 34.9806 15.6223L39.516 24.8045C40.1537 26.228 38.5947 26.7975 38.5947 26.7975Z"
            fill="#949699" />
        <path
            d="M18.6815 25.8723L18.6107 25.9435L0.61084 39.2541L1.60296 37.1898L7.20132 25.9435L18.6815 25.8723Z"
            fill="#949699" />
        <path
            d="M32.7837 38.471C32.7837 39.1116 32.2877 39.6099 31.6499 39.6099H28.6736C26.8311 39.6099 25.0594 38.6134 24.209 36.9762C24.209 36.9762 24.209 36.9762 24.209 36.9051L22.0122 32.4919L18.6815 25.8722L14.5005 17.5442C14.5005 17.5442 14.4296 17.4019 14.2879 17.1884C14.0044 16.7613 13.5084 16.4054 12.9414 16.4054C12.3745 16.4054 11.8785 16.6901 11.595 17.1884C11.5241 17.3307 11.4533 17.4019 11.3824 17.5442L7.20134 25.9434L1.67384 37.1186V37.1898L0.68172 39.254C0.610854 39.1828 0.610854 39.1828 0.539989 39.1116C0.469123 39.0404 0.398258 38.8981 0.398258 38.8269C0.327393 38.7557 0.327393 38.6134 0.327393 38.5422C0.327393 38.5422 0.327393 38.5422 0.327393 38.471C0.327393 38.3998 0.327393 38.3998 0.327393 38.3286V25.8011C0.327393 24.8757 0.539989 24.0216 0.894316 23.2386L11.5241 1.60005C11.5241 1.60005 11.6659 1.38651 11.8076 1.1018C12.091 0.745899 12.5871 0.461182 13.0832 0.461182C13.6501 0.461182 14.0753 0.745899 14.4296 1.17298C14.5005 1.31533 14.5713 1.45769 14.6422 1.60005L28.8153 30.143L32.7129 38.0439C32.7837 38.1863 32.7837 38.3286 32.7837 38.471Z"
            fill="#949699" />
        <path
            d="M22.0121 32.492L1.95722 39.4676C1.74462 39.5388 1.46116 39.5388 1.46116 39.5388C1.1777 39.5388 0.894237 39.3964 0.681641 39.2541L18.6815 25.9435L18.7523 25.8723L22.0121 32.492Z"
            fill="#949699" />
    </g>
    <defs>
        <clipPath id="clip0_665_3350">
            <rect width="137" height="40" fill="white" />
        </clipPath>
    </defs>
</svg>
    