<svg width="334" height="40" viewBox="0 0 334 40" fill="none" xmlns="http://www.w3.org/2000/svg">
    <g clip-path="url(#clip0_665_3345)">
        <path
            d="M52.5176 28.1616C49.8278 28.3418 47.3029 28.5124 44.778 28.6791C42.0236 28.8613 39.2627 29.026 36.5115 29.2295C35.7097 29.2896 35.2571 29.1985 34.8497 28.7236C30.7051 23.9092 26.5153 19.1084 22.3287 14.3056C21.9342 13.852 21.4655 13.4353 20.4536 13.4353C19.4029 13.4353 18.8112 13.8055 18.3457 14.3075C13.5578 19.4882 8.8377 24.6922 3.95276 29.84C1.66709 32.2511 4.04328 33.2551 7.08869 33.3481C11.201 33.4741 15.3423 33.3888 19.4611 33.29C22.7134 33.2124 25.956 32.9857 29.1986 32.8112C30.9314 32.7182 32.661 32.5864 34.3939 32.5031C34.7172 32.4876 35.2506 32.5535 35.367 32.6833C36.9059 34.4005 38.3865 36.1371 39.9577 37.959C37.6042 37.7458 35.3929 37.5423 33.1848 37.3446C27.7696 36.8581 22.3513 36.3872 16.9394 35.8871C12.8659 35.5111 8.78274 35.1506 4.73513 34.6913C2.64666 34.4548 1.0399 33.7125 0.600227 32.381C0.280168 31.4041 0.774804 30.4583 1.42785 29.5629C7.22124 21.6416 13.0179 13.7222 18.8242 5.80475C19.8361 4.42284 20.8609 3.04479 21.9407 1.68226C22.6455 0.794577 23.7899 0.19762 25.5001 0.100711C27.33 -0.00201212 28.5165 0.587192 29.302 1.48457C32.9552 5.64582 36.5793 9.81677 40.2131 13.9838C44.1605 18.5114 48.1079 23.037 52.0521 27.5646C52.1976 27.7313 52.3204 27.9077 52.5176 28.1616Z"
            fill="#949699" />
        <path
            d="M62.8015 39.9999C61.6765 39.9049 60.7066 39.8255 59.7367 39.7383C54.4121 39.2673 49.0875 38.8002 43.7694 38.3079C43.3814 38.273 42.8803 38.1024 42.7057 37.9067C41.0699 36.0848 39.4954 34.2435 37.9081 32.4062C37.8661 32.3577 37.8661 32.2976 37.8208 32.1775C39.2077 32.0767 40.5688 31.972 41.9331 31.8828C46.0033 31.6134 50.0735 31.3576 54.1438 31.0785C54.8001 31.0339 55.1686 31.1134 55.4984 31.4991C57.7356 34.1156 60.0245 36.7147 62.294 39.3196C62.4556 39.5037 62.5785 39.6995 62.8015 39.9999Z"
            fill="#949699" />
        <path
            d="M212.631 21.8898C212.922 20.3586 213.003 18.8023 213.546 17.3041C214.765 13.9452 219.404 11.5729 225.087 11.1853C228.938 10.9217 232.63 11.1407 236.028 12.3598C239.729 13.6894 241.701 15.7458 242.264 18.2208C242.849 20.8102 242.93 23.4364 242.144 26.0258C241.074 29.5436 236.8 32.0846 230.945 32.5962C226.429 32.9916 222.042 32.7358 218.243 30.9779C214.878 29.4196 213.388 27.2643 212.987 24.8087C212.831 23.8493 212.961 22.8724 212.961 21.9053C212.851 21.8995 212.741 21.8956 212.634 21.8898H212.631ZM234.709 21.9848C234.443 20.5234 234.67 19.0736 233.729 17.6723C232.72 16.1702 230.716 15.3077 227.813 15.2535C225.107 15.2031 222.685 16.0791 221.809 17.5735C221.328 18.3991 220.982 19.2946 220.953 20.1648C220.898 21.8413 220.907 23.5353 221.263 25.1944C221.667 27.0763 224.069 28.3827 226.646 28.5125C230.858 28.7238 233.031 27.6636 233.904 25.7584C234.46 24.549 234.46 23.2465 234.709 21.9867V21.9848ZM249.011 24.7215C249.011 27.0085 249.005 29.2955 249.014 31.5806C249.014 32.2241 249.331 32.4063 250.398 32.4102C251.982 32.416 253.566 32.416 255.15 32.4141C256.799 32.4141 257.064 32.2493 257.064 31.2744C257.064 26.9523 257.038 22.6321 257.09 18.31C257.097 17.6859 257.349 17.0405 257.685 16.4455C258.083 15.7419 259.03 15.2515 260.262 15.1992C262.217 15.1178 264.193 15.1023 266.149 15.1798C267.875 15.2477 269.045 15.9338 269.365 16.9707C269.595 17.7072 269.702 18.467 269.708 19.217C269.734 23.2872 269.708 27.3554 269.708 31.4256C269.708 32.2493 269.976 32.4121 271.35 32.4121C272.967 32.4121 274.583 32.4121 276.2 32.4063C277.396 32.4024 277.832 32.1602 277.823 31.4237C277.768 26.7953 277.771 22.165 277.6 17.5366C277.487 14.4453 273.795 11.8966 268.771 11.3035C265.382 10.9023 261.936 10.9372 258.548 11.226C255.629 11.476 253.114 12.3016 251.339 13.796C249.871 15.0306 249.111 16.4222 249.056 17.9185C248.975 20.1842 249.034 22.4519 249.034 24.7195C249.024 24.7195 249.017 24.7195 249.008 24.7195L249.011 24.7215ZM177.341 10.8945C177.334 9.8673 177.347 8.84201 177.331 7.81478C177.321 7.23139 176.736 6.83406 175.986 6.90965C174.175 7.0899 172.368 7.27984 170.568 7.4911C169.42 7.62484 169.116 7.87486 169.116 8.5726C169.119 14.3445 169.116 20.1183 169.135 25.8902C169.135 26.7798 169.203 27.6714 169.31 28.559C169.552 30.5573 171.77 32.1001 175.042 32.509C178.899 32.9916 182.752 32.6583 186.59 32.3714C186.907 32.3482 187.33 31.9567 187.385 31.7086C187.508 31.1562 187.434 30.5883 187.434 30.0262C187.434 29.1482 187.169 28.9874 185.672 28.9796C183.861 28.9699 182.051 28.9971 180.244 28.9622C178.091 28.9215 177.35 28.4427 177.347 27.1694C177.344 23.3337 177.341 19.4981 177.344 15.6624C177.344 15.4395 177.373 15.2167 177.392 14.9589C177.867 14.9589 178.22 14.9589 178.572 14.9589C180.997 14.9589 183.418 14.9628 185.843 14.955C186.988 14.9511 187.408 14.6933 187.424 14.0034C187.437 13.4413 187.44 12.8792 187.427 12.3171C187.411 11.6117 187.036 11.3713 185.859 11.3655C183.693 11.3539 181.53 11.3655 179.364 11.3655C178.727 11.3655 178.087 11.3655 177.425 11.3655C177.386 11.1562 177.344 11.0263 177.344 10.8945H177.341ZM308.28 21.9111C308.28 20.9633 308.157 20.0078 308.303 19.0678C308.665 16.7187 310.579 15.0151 315.205 15.1895C317.588 15.2787 319.97 15.3485 322.353 15.4337C323.245 15.4647 323.672 15.2477 323.64 14.6914C323.601 13.9937 323.63 13.2959 323.623 12.5982C323.614 11.9334 323.219 11.6562 322.136 11.5322C318.729 11.1368 315.295 10.9178 311.836 11.1949C308.018 11.4992 304.853 12.5013 302.671 14.4743C300.996 15.99 300.308 17.6723 300.165 19.4651C299.975 21.8471 299.839 24.2272 300.654 26.5782C301.798 29.877 306.337 32.2823 311.872 32.6486C315.415 32.8831 318.887 32.6621 322.353 32.2706C323.193 32.1757 323.636 31.8694 323.623 31.3364C323.607 30.6775 323.62 30.0185 323.623 29.3595C323.63 28.4893 323.32 28.342 321.839 28.4001C319.459 28.4951 317.077 28.5997 314.691 28.6269C311.161 28.6676 308.949 27.5357 308.487 25.4405C308.228 24.2737 308.17 23.0914 308.025 21.9169C308.109 21.9169 308.196 21.913 308.28 21.9111ZM192.587 26.9058C192.587 28.3982 192.574 29.8906 192.587 31.383C192.593 32.1524 193.036 32.4141 194.252 32.4141C195.739 32.4141 197.226 32.4121 198.713 32.4141C200.563 32.4141 200.679 32.3482 200.679 31.2143C200.679 26.2138 200.679 21.2153 200.679 16.2148C200.679 15.3678 200.685 15.362 202.14 15.3039C203.909 15.2322 205.68 15.1469 207.452 15.0946C208.322 15.0694 208.658 14.8058 208.658 14.3212C208.658 13.5653 208.664 12.8094 208.658 12.0536C208.651 11.2899 208.322 11.0651 207.067 11.0787C202.8 11.1194 198.565 11.3132 194.472 12.1233C193.117 12.3908 192.587 12.7998 192.587 13.6526C192.587 16.5598 192.587 19.4671 192.587 22.3724C192.587 23.8842 192.587 25.3959 192.587 26.9077V26.9058ZM293.425 21.913C293.425 18.7189 293.425 15.5248 293.425 12.3307C293.425 11.6097 293.102 11.3868 291.889 11.3752C290.244 11.3597 288.595 11.3616 286.949 11.3752C285.737 11.3868 285.414 11.6 285.414 12.3307C285.414 18.4476 285.414 24.5664 285.414 30.6833C285.414 30.9934 285.423 31.3035 285.427 31.6117C285.427 32.1582 285.853 32.4218 286.797 32.4121C288.411 32.3966 290.027 32.4102 291.64 32.4121C293.147 32.4121 293.418 32.2454 293.418 31.3229C293.418 28.1869 293.418 25.0509 293.418 21.913C293.418 21.913 293.425 21.913 293.428 21.913H293.425ZM286.687 3.74268C285.646 3.74268 285.171 3.96363 285.139 4.57997C285.084 5.56456 285.094 6.55109 285.142 7.53762C285.171 8.12488 285.698 8.4253 286.681 8.43693C288.517 8.45825 290.357 8.46019 292.193 8.43693C292.914 8.42724 293.541 8.24893 293.548 7.72174C293.561 6.61892 293.557 5.51804 293.544 4.41522C293.538 3.97138 293.137 3.74461 292.394 3.74461C291.395 3.74461 290.396 3.74461 289.393 3.74461C288.491 3.74461 287.586 3.74461 286.684 3.74461L286.687 3.74268Z"
            fill="#949699" />
        <path
            d="M125.769 32.5535C125.769 34.5575 125.769 36.4938 125.769 38.4281C125.769 39.8468 125.734 39.8681 123.403 39.8701C122.012 39.8701 120.622 39.8759 119.232 39.8681C118.059 39.8604 117.693 39.6568 117.693 38.9804C117.687 30.3575 117.69 21.7365 117.693 13.1136C117.693 12.4217 118.081 12.1736 119.604 12.003C122.236 11.7103 124.864 11.3498 127.518 11.22C130.14 11.0921 132.849 11.0204 135.432 11.2626C141.814 11.8635 145.564 14.1583 146.437 18.021C147.048 20.7248 147.106 23.477 146.314 26.1827C145.205 29.9699 140.757 32.3713 134.378 32.6232C131.915 32.7201 129.422 32.5806 126.943 32.5496C126.593 32.5457 126.248 32.5496 125.766 32.5496L125.769 32.5535ZM125.801 21.909C125.801 23.9247 125.805 25.9404 125.798 27.9561C125.798 28.2623 125.779 28.5414 126.493 28.5589C128.718 28.6093 130.945 28.7391 133.163 28.7101C134.841 28.6868 136.36 28.2313 137.197 27.3223C137.789 26.6769 138.303 25.9327 138.4 25.2117C138.63 23.4983 138.659 21.7695 138.623 20.0503C138.604 19.2091 138.381 18.3505 138.022 17.5365C137.459 16.2554 136.047 15.3115 133.816 15.201C131.359 15.0808 128.866 15.2243 126.39 15.265C125.717 15.2766 125.801 15.5964 125.801 15.8658C125.801 17.8815 125.801 19.8972 125.801 21.9129V21.909ZM93.5596 21.9691C93.5596 24.8163 93.5596 27.6634 93.5596 30.5106C93.5596 31.3246 93.2945 31.5495 92.011 31.7452C87.6142 32.4158 83.1366 32.7511 78.6073 32.7356C76.1406 32.7279 73.7353 32.4333 71.4981 31.7569C68.2103 30.7626 66.0895 29.1617 65.2457 27.051C63.904 23.6941 63.8782 20.2809 65.1778 16.9279C66.4871 13.5458 70.997 11.4429 76.7904 11.1638C81.934 10.9157 86.9482 11.3692 91.9302 12.0592C93.3171 12.2511 93.5628 12.4682 93.5628 13.3113C93.5628 16.1972 93.5628 19.0832 93.5628 21.9691H93.5596ZM85.4676 21.942C85.4676 19.9069 85.4482 17.8718 85.4837 15.8367C85.4902 15.4103 85.2316 15.2359 84.5591 15.2165C82.7228 15.1642 80.8833 15.0498 79.047 15.0634C75.4488 15.0886 73.2472 16.2786 72.8139 18.4222C72.3387 20.7558 72.3581 23.101 72.8139 25.4345C73.1599 27.2022 74.8377 28.4562 77.589 28.6364C79.9975 28.7934 82.4739 28.6073 84.918 28.5298C85.1184 28.524 85.4417 28.179 85.4449 27.9891C85.4837 25.9734 85.4676 23.9577 85.4676 21.942ZM101.561 31.3169C101.561 32.2627 101.839 32.4255 103.43 32.4275C105.014 32.4313 106.598 32.4352 108.179 32.4275C109.339 32.4197 109.666 32.222 109.666 31.5185C109.666 22.6068 109.666 13.697 109.656 4.78526C109.656 4.16117 109.32 3.95378 108.263 3.94797C106.679 3.93828 105.098 3.94797 103.514 3.94797C101.765 3.94797 101.561 4.06814 101.561 5.11087C101.561 9.45044 101.561 13.79 101.561 18.1296C101.561 22.5273 101.561 26.925 101.561 31.3208V31.3169ZM161.577 21.8761C161.577 18.6975 161.577 15.5189 161.577 12.3422C161.577 11.5921 161.218 11.3557 159.977 11.346C158.328 11.3324 156.679 11.3343 155.03 11.3537C153.86 11.3673 153.462 11.627 153.465 12.317C153.469 18.3447 153.472 24.3705 153.475 30.3982C153.475 30.8052 153.436 31.2122 153.475 31.6173C153.53 32.1658 153.996 32.4507 154.975 32.4372C156.592 32.4158 158.208 32.4333 159.825 32.4313C161.221 32.4294 161.57 32.2123 161.57 31.3557C161.57 28.1964 161.57 25.0372 161.57 21.8799H161.577V21.8761ZM157.552 8.44453C158.457 8.44453 159.362 8.46003 160.268 8.43871C161.001 8.42127 161.667 8.25846 161.696 7.7526C161.755 6.66916 161.764 5.58572 161.729 4.50229C161.713 3.98092 161.231 3.70957 160.29 3.72314C158.451 3.7464 156.608 3.72702 154.765 3.73089C153.695 3.73283 153.317 3.94991 153.297 4.60113C153.272 5.57022 153.272 6.53931 153.294 7.50645C153.31 8.15574 153.744 8.41352 154.839 8.43678C155.741 8.45616 156.65 8.44065 157.555 8.44065V8.44453H157.552Z"
            fill="#949699" />
        <path
            d="M329.983 4.15544C328.088 4.14769 326.559 3.20767 326.572 2.06222C326.585 0.912879 328.114 0 330.028 0C331.951 0 333.494 0.914817 333.5 2.0564C333.507 3.22124 331.926 4.16319 329.983 4.15544ZM327.086 2.11067C327.099 3.09526 328.415 3.86665 330.057 3.85309C331.67 3.84146 332.986 3.02743 332.97 2.05446C332.954 1.08538 331.622 0.31786 329.966 0.321737C328.324 0.325613 327.073 1.10282 327.086 2.11067Z"
            fill="#949699" />
        <path
            d="M328.967 2.9052V1.25H330.151C330.438 1.25 330.671 1.29845 330.842 1.39342C331.014 1.4884 331.104 1.61825 331.104 1.78106C331.104 1.90898 331.049 2.01945 330.943 2.11055C330.836 2.20164 330.687 2.26173 330.497 2.2908L331.043 2.90714H330.551L330.041 2.32569H329.401V2.90714H328.964L328.967 2.9052ZM329.401 2.09504H330.109C330.283 2.09504 330.416 2.06791 330.509 2.01558C330.603 1.96325 330.648 1.88572 330.648 1.78687C330.648 1.68803 330.603 1.61244 330.509 1.56011C330.416 1.50778 330.283 1.48258 330.109 1.48258H329.401V2.09504Z"
            fill="#949699" />
    </g>
    <defs>
        <clipPath id="clip0_665_3345">
            <rect width="333" height="40" fill="white" transform="translate(0.5)" />
        </clipPath>
    </defs>
</svg>
    