<svg width="198" height="40" viewBox="0 0 198 40" fill="none" xmlns="http://www.w3.org/2000/svg">
    <g clip-path="url(#clip0_665_3347)">
        <path fill-rule="evenodd" clip-rule="evenodd"
            d="M80.109 0.282715H70.4006C68.378 0.282715 66.7599 1.69686 65.7486 3.51504L50.377 32.4039C49.568 34.0201 47.9499 35.0302 45.9273 35.0302H32.5782C32.376 35.0302 31.3647 35.0302 30.9601 35.0302C22.4653 35.0302 15.5885 28.1615 15.5885 19.6767C15.5885 11.1918 22.4653 4.32312 30.9601 4.32312C31.3647 4.32312 32.1737 4.32312 32.5782 4.32312H47.1408H48.3544H48.7589C49.1634 4.32312 49.1634 4.1211 49.1634 3.91908V3.71706V0.282715H46.1296H22.0608C10.532 0.282715 0.621338 9.1716 0.621338 20.4847C0.621338 31.5958 10.7343 39.4746 22.0608 39.4746H42.2866H45.9273C46.3318 39.4746 49.7702 39.4746 49.9725 39.4746C52.8041 39.4746 55.0289 37.8585 56.2425 35.4342L56.647 34.8282L60.0854 28.3635H78.2887L82.3339 37.0504C82.9406 38.4645 84.5587 39.4746 86.5813 39.6767H100.133L84.9632 3.51504C84.1542 1.69686 82.3339 0.282715 80.109 0.282715ZM62.108 23.9191L66.5577 15.6363C67.1645 14.6262 68.378 14.0201 69.3893 14.0201C70.8051 14.0201 72.0187 14.8282 72.4232 16.0403L76.0639 23.9191H62.108Z"
            fill="#949699" />
        <path fill-rule="evenodd" clip-rule="evenodd"
            d="M170.721 34.8282C169.993 34.8282 169.305 34.7474 169.305 34.0201V0.282715H149.281V34.2221C149.281 37.0504 151.506 39.2726 154.338 39.2726H196.812C197.217 39.2726 197.217 38.8686 197.217 38.6666V34.8282H170.721Z"
            fill="#949699" />
        <path fill-rule="evenodd" clip-rule="evenodd"
            d="M96.4919 0.282831V3.91919C96.4919 4.12121 96.6942 4.52526 97.0987 4.52526H111.459C112.066 4.52526 112.673 5.13132 112.673 5.73738V39.6768H129.46C129.865 39.6768 129.865 39.4748 129.865 39.2727L129.662 5.53536C129.662 4.9293 130.269 4.32324 130.876 4.32324H145.439V0.0808105H120.561H96.4919V0.282831Z"
            fill="#949699" />
    </g>
    <defs>
        <clipPath id="clip0_665_3347">
            <rect width="197" height="40" fill="white" transform="translate(0.5)" />
        </clipPath>
    </defs>
</svg>
    