<svg width="103" height="40" viewBox="0 0 103 40" fill="none" xmlns="http://www.w3.org/2000/svg">
    <g clip-path="url(#clip0_665_3356)">
        <path
            d="M74.5302 15.3298H79.9892C79.8279 15.5135 79.7367 15.6328 79.6302 15.7375C78.8338 16.5175 78.0238 17.2838 77.2379 18.0751C76.3383 18.9807 75.5831 19.9847 75.2644 21.253C75.116 21.8444 75.0345 22.4439 75.2491 23.0378C75.4605 23.622 75.9083 23.9072 76.4819 23.6872C77.0346 23.4745 77.5833 23.1748 78.0359 22.7969C79.326 21.7212 80.3055 20.3667 81.239 18.9848C81.3044 18.8881 81.2519 18.6625 81.1833 18.5343C80.6089 17.4506 80.4564 16.3435 81.0083 15.213C81.3689 14.4733 81.928 13.9197 82.7478 13.7021C83.528 13.4951 84.1597 13.8762 84.234 14.6747C84.2872 15.2508 84.1847 15.8431 84.1274 16.4256C84.1057 16.6488 84.0169 16.8656 83.9475 17.1291C84.6567 17.1782 85.3014 17.0179 85.9259 16.7826C87.3104 16.2605 88.4246 15.3354 89.5179 14.3734C89.889 14.047 90.0625 13.7247 90.0367 13.2106C89.9867 12.2236 90.2319 11.2897 90.8322 10.4807C91.3228 9.81914 91.9537 9.35744 92.8025 9.28572C93.8014 9.20112 94.3435 9.87877 94.0031 10.8167C93.8586 11.2139 93.6351 11.5934 93.3923 11.9423C92.7944 12.8013 92.1361 13.6192 91.5584 14.4902C91.1533 15.1018 91.259 15.5868 91.748 16.0888C91.9239 16.2701 92.0739 16.2903 92.3095 16.1855C94.1491 15.3636 95.9984 14.5635 97.8355 13.7368C97.9807 13.6715 98.1276 13.4661 98.1542 13.3057C98.3285 12.2405 98.5536 11.1946 99.0861 10.2406C99.3854 9.70553 99.7533 9.23093 100.325 8.95858C101.092 8.59276 101.805 8.92957 102.001 9.7571C102.184 10.5322 102.001 11.2727 101.614 11.9262C101.186 12.649 100.676 13.3275 100.151 13.985C99.9349 14.2557 99.8276 14.5007 99.8243 14.8431C99.809 16.6214 99.6372 18.3821 99.0869 20.0863C98.6891 21.3167 98.1131 22.4447 97.0997 23.294C96.3332 23.937 95.4489 24.2892 94.4388 24.2924C92.4733 24.2988 91.3599 22.4915 92.2708 20.7591C92.817 19.7204 93.6537 18.934 94.6348 18.3321C95.5699 17.7584 96.5535 17.2548 97.5499 16.7955C97.9727 16.6005 98.2188 16.4216 98.1324 15.9341C98.1026 15.7657 98.1276 15.5885 98.1276 15.3491C97.6628 15.5272 97.2409 15.6827 96.8229 15.8495C95.3384 16.4426 93.8586 17.0469 92.3692 17.627C92.0957 17.7334 91.9811 17.8849 91.9182 18.1629C91.422 20.3602 90.3546 22.2167 88.5102 23.5519C87.9534 23.9548 87.3064 24.2593 86.6617 24.5091C85.6903 24.8862 84.7261 24.7106 83.8209 24.236C82.9729 23.792 82.6848 22.9894 83.0132 22.0443C83.3497 21.0749 84.004 20.328 84.7455 19.656C86.2018 18.3353 87.8889 17.4192 89.7777 16.872C89.8398 16.8543 89.9019 16.8358 90.0359 16.7963C89.7922 16.3862 89.5663 16.0058 89.3234 15.5973C87.5274 17.6577 85.111 18.4401 82.6502 19.1258C82.3306 19.2152 82.1112 19.3651 81.9135 19.6237C80.6573 21.2619 79.2679 22.7695 77.5518 23.9451C76.7264 24.5107 75.8526 24.9894 74.8586 25.1787C74.4544 25.2561 74.0284 25.2867 73.6185 25.2545C72.639 25.1787 71.9298 24.5172 71.7345 23.5478C71.524 22.506 71.8298 21.5511 72.2735 20.631C72.8706 19.3933 73.7484 18.3627 74.723 17.4079C74.7981 17.3346 74.9014 17.2902 74.9909 17.2322C74.9643 17.196 74.9369 17.1605 74.9102 17.1242C74.3511 17.3337 73.7823 17.5231 73.2377 17.7656C73.0755 17.8382 72.9642 18.0517 72.8568 18.2177C71.2174 20.755 69.5835 23.2956 67.9457 25.8338C67.6641 26.2697 67.3728 26.7 67.0315 27.2157C78.8726 26.5437 90.6216 25.6606 102.409 25.3681C101.776 25.9829 101.15 26.5896 100.486 27.2334C101.376 28.036 102.149 28.733 103.006 29.5065C102.781 29.5178 102.647 29.5291 102.514 29.5307C97.2691 29.5976 92.0255 29.662 86.7811 29.7305C79.8432 29.8216 72.9044 29.9174 65.9665 30.0012C65.6615 30.0053 65.4873 30.1004 65.3194 30.3558C64.1697 32.1051 63.0046 33.8448 61.8339 35.5812C61.7476 35.7093 61.5822 35.8689 61.4507 35.8713C60.2437 35.8938 59.0358 35.8842 57.7231 35.8842C59.0374 33.9108 60.309 32.0028 61.6338 30.0141C61.3999 30.0141 61.2595 30.0141 61.1191 30.0141C55.8795 30.0117 50.669 30.4444 45.4795 31.1197C41.3485 31.6571 37.2312 32.2969 33.1059 32.8706C32.6614 32.9326 32.1966 32.8762 31.7448 32.8335C31.6149 32.8214 31.4172 32.678 31.3987 32.57C31.3809 32.4645 31.5269 32.2647 31.6464 32.2155C32.0651 32.0415 32.4935 31.8569 32.9365 31.778C38.9958 30.6974 45.0406 29.5315 51.1523 28.7684C55.0501 28.2817 58.9592 27.9385 62.8868 27.8378C63.2233 27.8289 63.4145 27.733 63.5783 27.4284C64.1366 26.3882 64.7296 25.3665 65.3089 24.3375C65.3574 24.2505 65.3977 24.1586 65.4808 23.9894C64.7514 24.4825 64.1108 24.9386 63.4468 25.3592C62.5141 25.949 61.5523 26.501 60.4647 26.7467C60.0444 26.8418 59.5837 26.8515 59.1561 26.7951C58.6647 26.7306 58.4065 26.3576 58.3395 25.8709C58.2451 25.1884 58.4614 24.5688 58.7526 23.9709C59.1754 23.1047 59.7596 22.3553 60.4542 21.6897C60.5027 21.643 60.5527 21.5979 60.5979 21.5487C60.8504 21.2732 61.1739 21.0145 60.9714 20.577C60.8439 20.3022 60.3873 20.1966 59.9104 20.3038C59.2795 20.4456 58.7526 20.7873 58.3855 21.2957C57.4125 22.6438 56.4766 24.0176 55.5374 25.3898C55.1582 25.9434 54.8185 26.5244 54.4409 27.0795C54.3643 27.1915 54.1989 27.3084 54.0722 27.31C52.9967 27.3285 51.9204 27.3221 50.8449 27.3205C50.7965 27.3205 50.7481 27.2979 50.6521 27.2745C50.8675 26.8322 51.0708 26.4164 51.2733 26.0014C51.2572 25.9813 51.2419 25.9611 51.2257 25.941C50.9522 26.1118 50.6859 26.2963 50.4028 26.4502C49.4838 26.9514 48.5624 27.447 47.6345 27.9312C47.4344 28.0352 47.2085 28.0972 46.9882 28.1528C46.0354 28.3929 45.6642 28.2294 45.206 27.401C44.1587 27.8813 43.1324 28.4131 42.0601 28.8216C41.342 29.0948 40.5643 29.2801 39.7986 29.3478C38.6892 29.4461 38.0001 28.8917 37.7807 27.8047C37.6597 27.206 37.6516 26.5808 37.633 25.966C37.6258 25.7089 37.5766 25.5744 37.3063 25.5284C36.7108 25.4261 36.1162 25.3141 35.5272 25.1795C35.2682 25.1199 35.1109 25.194 34.9374 25.3842C32.4169 28.1488 29.7164 30.7224 26.7311 32.9866C23.2819 35.603 19.5818 37.7511 15.4041 38.9977C12.2179 39.9477 8.97845 40.2627 5.6769 39.7696C4.78858 39.6366 3.94948 39.3635 3.23463 38.7946C2.33501 38.0799 2.11959 37.1404 2.61337 36.1017C3.03292 35.2194 3.70904 34.545 4.44971 33.9374C6.23926 32.4685 8.27248 31.4025 10.3565 30.4235C13.2175 29.0786 16.1746 27.9755 19.1607 26.9442C19.3535 26.8773 19.5665 26.7185 19.6633 26.5437C22.4937 21.4673 25.3111 16.3837 28.1294 11.301C28.1859 11.1994 28.2335 11.0931 28.3174 10.9239C27.5428 10.8981 26.8231 10.8707 26.1042 10.8505C18.4458 10.6338 11.265 12.4427 4.48118 15.9373C3.09585 16.6513 1.7073 17.3579 0.319547 18.067C0.238057 18.1081 0.152533 18.1411 0.00488281 18.2072C0.0549063 18.071 0.0750771 17.9888 0.113805 17.9155C1.55561 15.1856 2.9958 12.4548 4.44891 9.73131C4.52555 9.58708 4.6958 9.44124 4.85151 9.39692C9.78125 7.98843 14.7691 6.85875 19.882 6.35353C23.4675 5.99899 27.0498 5.96515 30.6241 6.48003C30.9363 6.52516 31.0824 6.45264 31.1752 6.14483C31.3099 5.69683 31.4834 5.25768 31.6722 4.82901C31.7238 4.71137 31.8852 4.57439 32.0062 4.56472C34.0701 4.39712 36.1348 4.24805 38.1994 4.09576C38.222 4.09415 38.2454 4.11268 38.3221 4.1433C37.4467 5.34068 36.5793 6.52596 35.7063 7.72092C36.3187 8.28496 36.9359 8.81918 37.5128 9.3937C38.5504 10.4267 39.4121 11.5862 39.9236 12.9737C40.5909 14.7835 40.3972 16.5626 39.7082 18.3192C39.0668 19.9533 38.1188 21.4214 37.2086 22.9097C37.1255 23.045 37.0441 23.182 36.915 23.3964C37.5911 23.3964 38.1986 23.4084 38.8046 23.3843C38.9006 23.3802 39.0022 23.2207 39.0805 23.1176C40.0447 21.8404 41.0419 20.5899 42.2651 19.5464C42.6814 19.1919 43.1381 18.8728 43.6109 18.5972C44.7775 17.9179 45.9458 17.9558 47.0649 18.7189C47.5272 19.0347 47.9556 19.3997 48.3599 19.7108C48.5454 19.4424 48.7326 19.1717 48.9206 18.901C48.9666 18.8349 49.0521 18.7729 49.057 18.7052C49.0989 18.0815 49.5862 18.15 49.9921 18.0952C50.9353 17.9679 51.8801 17.8438 52.9265 17.7052C52.8144 17.8849 52.7514 17.9904 52.6845 18.0936C51.609 19.7486 50.5214 21.3956 49.4652 23.0628C49.1877 23.5011 48.9868 23.9926 48.798 24.4785C48.6786 24.7839 48.5575 25.1731 48.8641 25.4164C49.178 25.6662 49.5378 25.4527 49.7855 25.2464C50.4132 24.7251 51.0894 24.2247 51.5856 23.5905C52.7095 22.1547 53.7414 20.6471 54.8 19.1612C55.2445 18.5384 55.6552 17.8913 56.0998 17.2685C56.1805 17.1557 56.3459 17.0477 56.4806 17.0364C57.9006 16.918 59.3223 16.8205 60.7439 16.7181C60.7649 16.7165 60.7875 16.7399 60.8552 16.7762C60.3332 17.5481 59.8144 18.3152 59.2956 19.0831C59.3166 19.1072 59.3376 19.1314 59.3586 19.1556C59.5611 19.0404 59.7636 18.9251 59.9661 18.8091C61.3297 18.0307 62.6892 17.2435 64.0624 16.4804C64.3141 16.3402 64.6151 16.2653 64.9031 16.2178C65.3888 16.138 65.6325 16.3547 65.5841 16.8479C65.5486 17.2032 65.4792 17.5779 65.3259 17.8962C64.6982 19.2007 64.0253 20.4827 63.3822 21.78C63.0555 22.4399 62.7408 23.1071 62.4576 23.7864C62.385 23.9596 62.4544 24.1925 62.4592 24.3971C62.6722 24.3633 62.9393 24.4003 63.0885 24.2851C63.9462 23.6204 64.8474 22.9894 65.5986 22.2159C66.783 20.9968 67.8593 19.6729 68.9816 18.3933C68.9582 18.3522 68.934 18.3111 68.9106 18.2692H66.052C66.4676 17.5231 66.8282 16.8535 67.2171 16.2008C67.2703 16.1114 67.468 16.0735 67.5987 16.0719C68.5936 16.0614 69.5892 16.0558 70.584 16.0735C70.8551 16.0784 70.9898 15.9913 71.0988 15.7464C72.9795 11.4943 75.5242 7.67741 78.7217 4.30365C79.7649 3.20297 80.8775 2.16756 81.9845 1.12973C82.5711 0.580191 83.2819 0.228876 84.0758 0.0532181C85.3062 -0.219132 86.2833 0.518147 86.197 1.76548C86.151 2.43265 85.9469 3.11111 85.6959 3.7372C84.7874 6.00302 83.2779 7.86354 81.473 9.45735C79.4712 11.2252 77.3678 12.8795 75.308 14.5812C75.0409 14.802 74.769 15.0172 74.4995 15.2347C74.5125 15.2653 74.5246 15.296 74.5375 15.3266L74.5302 15.3298ZM23.7152 25.6976C23.7975 25.7105 23.8354 25.7266 23.8701 25.721C26.6956 25.2722 29.522 24.8258 32.3451 24.3633C32.4927 24.3391 32.667 24.2126 32.7469 24.0829C33.5351 22.8049 34.3654 21.5479 35.0673 20.2232C35.8645 18.7197 36.4276 17.1267 36.3115 15.3725C36.1985 13.6611 34.6897 11.7804 33.0656 11.367C29.9569 16.1307 26.8433 20.9033 23.7152 25.6968V25.6976ZM17.2154 29.6975C17.0774 29.6975 17.0355 29.6862 17.0016 29.6991C14.4786 30.666 12.0807 31.8626 10.041 33.6635C9.49724 34.1437 9.0196 34.7327 8.63555 35.3491C8.22084 36.0139 8.47418 36.565 9.20114 36.8559C9.42302 36.9446 9.66265 37.0042 9.89985 37.0332C11.6039 37.2451 13.2797 36.9994 14.9401 36.6561C18.2465 35.9728 21.189 34.4846 23.9072 32.5209C26.5932 30.5806 28.9749 28.2898 31.3809 26.028C31.3906 26.0191 31.3753 25.9829 31.3704 25.9555C31.3309 25.9555 31.2905 25.9474 31.255 25.9563C28.1229 26.7677 24.99 27.5783 21.8611 28.4018C21.7135 28.4405 21.5674 28.5775 21.4738 28.7072C21.1285 29.185 20.8324 29.7007 20.4693 30.1632C19.1849 31.8005 17.718 33.2461 15.9212 34.3274C15.6937 34.4644 15.4412 34.574 15.1862 34.6465C14.8724 34.736 14.7433 34.5917 14.8481 34.2855C14.9167 34.0849 15.0281 33.8979 15.1265 33.7078C15.8123 32.3887 16.4989 31.0713 17.2146 29.6975H17.2154ZM47.1157 21.4722C47.0722 20.7236 46.7131 20.4239 45.9894 20.577C45.7949 20.6181 45.5997 20.6809 45.4198 20.7655C44.2934 21.2965 43.3551 22.0644 42.633 23.0757C42.161 23.7364 41.7987 24.4559 41.7971 25.2964C41.7963 26.1593 42.3998 26.7081 43.2397 26.5171C43.7198 26.4083 44.2063 26.1763 44.6041 25.883C45.6763 25.0917 46.2621 23.937 46.7494 22.7364C46.9132 22.3319 46.9963 21.8944 47.1157 21.4714V21.4722ZM76.636 11.7417C76.6611 11.757 76.6869 11.7723 76.7119 11.7884C76.8531 11.6909 76.9983 11.5983 77.1355 11.4959C79.2308 9.93034 80.8945 7.98682 82.1427 5.69602C82.4218 5.18355 82.6074 4.6171 82.7962 4.06192C82.8486 3.90882 82.7558 3.70658 82.73 3.52689C82.5396 3.55429 82.2984 3.51722 82.1677 3.62036C81.6126 4.0587 81.0002 4.46803 80.5718 5.01515C79.1324 6.85794 77.8971 8.83691 76.9184 10.9666C76.8039 11.2155 76.7296 11.4831 76.636 11.7417ZM96.4784 18.5851C95.1875 19.0315 94.087 19.6938 93.3923 20.8646C93.285 21.0451 93.3213 21.3102 93.2914 21.5366C93.5165 21.5084 93.7788 21.5447 93.9611 21.4408C94.9866 20.8566 95.7547 20.0129 96.3187 18.9815C96.3864 18.8575 96.426 18.7181 96.4776 18.5859L96.4784 18.5851ZM88.1681 19.0299C87.0143 19.4014 86.0566 19.9936 85.3329 20.9098C85.1618 21.1257 85.0263 21.3843 84.9367 21.6446C84.831 21.954 85.0029 22.116 85.32 22.0249C85.5096 21.9709 85.6967 21.8799 85.8621 21.7711C86.694 21.2264 87.3564 20.5157 87.8671 19.6665C87.9873 19.4658 88.068 19.2418 88.1673 19.0291L88.1681 19.0299Z"
            fill="#949699" />
    </g>
    <defs>
        <clipPath id="clip0_665_3356">
            <rect width="103" height="40" fill="white" />
        </clipPath>
    </defs>
</svg>
    