<svg width="160" height="40" viewBox="0 0 160 40" fill="none" xmlns="http://www.w3.org/2000/svg">
    <g clip-path="url(#clip0_665_3346)">
        <mask id="mask0_665_3346" style="mask-type:luminance" maskUnits="userSpaceOnUse" x="0" y="0"
            width="160" height="40">
            <path d="M160 0H0V40H160V0Z" fill="white" />
        </mask>
        <g mask="url(#mask0_665_3346)">
            <path d="M115.68 36.7999L118.4 22.7999L159.92 13.2L115.68 36.7999Z" fill="#949699" />
            <path d="M45.1201 3.19995L42.4001 17.2L0.0800781 27.04L45.1201 3.19995Z" fill="#949699" />
            <path
                d="M62 35.36L74.08 32.56L75.04 27.92L68.96 29.28L69.84 24.64L75.92 23.28L76.8 18.56L70.8 20L71.68 15.36L77.76 13.92L78.64 9.28003L66.48 12.08L62 35.36Z"
                fill="#949699" />
            <path
                d="M78.1602 31.5999L84.2402 30.2399L86.0002 20.8799L90.0802 19.9999L88.2402 29.2799L94.3202 27.9199L98.8002 4.63989L92.7202 6.07989L90.9602 15.3599L86.8802 16.2399L88.7202 6.95989L82.6402 8.39989L78.1602 31.5999Z"
                fill="#949699" />
            <path
                d="M98.3201 26.96L104.4 25.52L106.64 14.16L108.4 24.64L114.48 23.2L118.96 0L112.96 1.36L110.72 12.56L108.88 2.32L102.88 3.76L98.3201 26.96Z"
                fill="#949699" />
            <path
                d="M55.1201 21.1201C55.4401 19.6001 54.8801 19.2001 53.5201 19.5201L51.5201 20.0001L48.8001 33.9201L50.8001 33.4401C52.1601 33.1201 52.8001 32.9601 53.1201 31.4401L55.1201 21.1201ZM55.7601 14.5601C59.7601 13.6001 61.9201 16.0801 61.2801 19.2001L58.6401 32.7201C57.9201 36.2401 55.9201 36.7201 50.5601 37.9201L41.8401 40.0001L46.3201 16.8001L55.7601 14.5601Z"
                fill="#949699" />
        </g>
    </g>
    <defs>
        <clipPath id="clip0_665_3346">
            <rect width="160" height="40" fill="white" />
        </clipPath>
    </defs>
</svg>
    