<svg width="145" height="40" viewBox="0 0 145 40" fill="none" xmlns="http://www.w3.org/2000/svg">
    <g clip-path="url(#clip0_665_3355)">
        <path fill-rule="evenodd" clip-rule="evenodd"
            d="M72.5 40C112.265 40 144.5 31.0457 144.5 20C144.5 8.9543 112.265 0 72.5 0C32.7355 0 0.5 8.9543 0.5 20C0.5 31.0457 32.7355 40 72.5 40ZM20.5088 24.0193C20.4018 24.0189 20.2928 24.0184 20.181 24.0184L20.1817 24.0153C20.4393 23.4416 20.694 22.8734 20.9472 22.3087C21.3979 21.3034 21.8435 20.3095 22.2907 19.3161C22.6601 18.4961 23.0334 17.6774 23.4063 16.8594L23.4941 16.6669C23.6524 16.3197 23.8102 15.9724 23.9681 15.625L23.9686 15.6237L23.9688 15.6234L23.969 15.623L23.9691 15.6226L23.9693 15.6223L23.9695 15.6219L23.9696 15.6215L23.9698 15.6212C24.4597 14.543 24.9497 13.4648 25.4519 12.3918C25.6254 12.0215 25.9301 11.8209 26.3767 11.8217C29.9875 11.8277 33.5986 11.8272 37.2099 11.8266C38.2418 11.8265 39.2736 11.8263 40.3055 11.8263C40.3296 11.8263 40.3543 11.8279 40.379 11.8296C40.4361 11.8333 40.4933 11.837 40.5442 11.8209C40.6163 11.7987 40.7077 11.7487 40.7361 11.6865C41.1067 10.8659 41.4682 10.0407 41.8289 9.21549C41.9023 9.04723 41.9711 8.87698 42.0428 8.6992C42.0798 8.60745 42.1177 8.51369 42.1574 8.41718C42.1092 8.41497 42.0681 8.41267 42.0316 8.41062C41.9664 8.40696 41.9157 8.40411 41.865 8.40411C40.5986 8.40411 39.3321 8.40392 38.0656 8.40372H38.0655H38.0655H38.0654H38.0653H38.0653H38.0652H38.0652H38.0651H38.0636C33.7571 8.40304 29.4504 8.40237 25.1442 8.40949C24.5931 8.41026 24.0667 8.5647 23.577 8.8413C22.6407 9.37069 21.9968 10.1751 21.5386 11.111C21.1309 11.9435 20.7671 12.7977 20.4034 13.6518L20.4032 13.6522C20.2836 13.9331 20.164 14.214 20.0428 14.494C19.7378 15.1989 19.4358 15.9048 19.1338 16.6107C18.8318 17.3166 18.5298 18.0226 18.2247 18.7276C17.9531 19.3557 17.6778 19.982 17.4025 20.6081L17.4024 20.6083L17.4023 20.6085L17.4022 20.6087L17.4021 20.6089L17.402 20.6091L17.4019 20.6093L17.4019 20.6095L17.4016 20.61L17.4011 20.6111C17.1805 21.113 16.9598 21.6148 16.7412 22.1175C16.0934 23.6066 15.4488 25.0979 14.8056 26.5893C14.7383 26.7451 14.6769 26.9037 14.6128 27.0692L14.6127 27.0693L14.6127 27.0693L14.6127 27.0693L14.6127 27.0694L14.6127 27.0694L14.6127 27.0694L14.6126 27.0695L14.6126 27.0696C14.581 27.1512 14.5487 27.2345 14.5147 27.32L16.2317 27.3198H16.2336C18.8888 27.3195 21.5153 27.3192 24.1419 27.3261C24.3316 27.3268 24.3783 27.2203 24.4302 27.1018L24.4435 27.0718C25.1641 25.4736 25.8832 23.8755 26.6016 22.2766C26.6902 22.0791 26.7773 21.8808 26.8645 21.6824C27.0292 21.3071 27.1941 20.9316 27.3698 20.5616C27.6515 19.9685 27.9393 19.3776 28.257 18.8029C28.4589 18.4387 28.7283 18.1129 29.1941 18.0776C29.3595 18.0654 29.5259 18.0685 29.6925 18.0717C29.7679 18.0731 29.8433 18.0745 29.9186 18.0745H29.9281C32.4967 18.0745 35.0653 18.0745 37.6339 18.076L37.6526 18.0761C37.7952 18.0764 37.9103 18.0767 37.9824 17.8955C38.1441 17.4902 38.3189 17.0897 38.4937 16.6892L38.4938 16.6891L38.4938 16.6891L38.4938 16.689L38.4938 16.689L38.4939 16.6889L38.4939 16.6889L38.4939 16.6888L38.4939 16.6887C38.5696 16.5154 38.6453 16.342 38.7199 16.1682C38.9044 15.7395 39.0883 15.3108 39.2794 14.8654L39.3454 14.7115H38.9701L36.667 14.7112H36.667H36.6669H36.6668H36.6668H36.6667H36.6667H36.6666H36.6666C33.8521 14.7109 31.0379 14.7105 28.2233 14.7153C27.9899 14.7161 27.7513 14.7537 27.5241 14.8098C26.4458 15.0772 25.6438 15.7449 25.0766 16.6638C24.7191 17.243 24.4182 17.8577 24.1178 18.4715L24.1177 18.4717L24.1176 18.4719L24.1174 18.4722L24.1173 18.4724L24.1172 18.4727L24.1171 18.4729L24.117 18.4731L24.1168 18.4734C24.0378 18.635 23.9587 18.7965 23.8786 18.9573C23.6848 19.3459 23.5047 19.7412 23.3247 20.1365C23.2487 20.3032 23.1728 20.47 23.0958 20.6362L22.7889 21.2994L22.7888 21.2996L22.7887 21.2997L22.7887 21.2998L22.7886 21.3L22.7886 21.3001L22.7885 21.3002L22.7884 21.3004L22.7884 21.3005C22.393 22.1551 21.9975 23.01 21.5977 23.8624C21.5662 23.9285 21.4764 24.0092 21.412 24.0115C21.117 24.0218 20.822 24.0206 20.5092 24.0193H20.5092H20.5091H20.5091H20.509H20.509H20.5089H20.5089H20.5088ZM133.302 15.1499L133.365 15.0086C133.409 14.9106 133.453 14.8117 133.498 14.7115H133.14C131.999 14.7115 130.859 14.7118 129.718 14.7121C126.296 14.7131 122.874 14.7141 119.452 14.7061C118.732 14.7045 118.041 14.7844 117.375 15.071C116.648 15.3845 116.043 15.8509 115.688 16.5609C115.259 17.4171 114.852 18.2844 114.446 19.1517L114.446 19.1519C114.286 19.4924 114.127 19.833 113.966 20.1728C113.724 20.683 113.655 21.2262 113.834 21.7526C114.025 22.3173 114.486 22.63 115.298 22.6331C117.706 22.6438 120.115 22.6421 122.524 22.6404H122.524C123.407 22.6398 124.29 22.6392 125.174 22.6392H125.526C125.174 23.6335 124.501 24.0315 123.532 24.0269C120.905 24.014 118.277 24.0162 115.649 24.0183H115.649H115.649H115.649H115.649C114.655 24.0191 113.66 24.0199 112.666 24.0199H112.289C112.026 24.6514 111.767 25.2764 111.507 25.9034L111.498 25.9241L110.923 27.3092L110.986 27.3123L111.033 27.3148C111.105 27.3187 111.171 27.3223 111.236 27.3223L113.874 27.3224C117.837 27.3226 121.8 27.3228 125.764 27.3184C125.967 27.3184 126.177 27.28 126.372 27.2224C127.491 26.8905 128.3 26.169 128.82 25.144C129.244 24.3058 129.63 23.446 129.986 22.5762C130.006 22.5268 130.026 22.4774 130.047 22.428C130.252 21.9313 130.457 21.435 130.461 20.8605C130.468 20.0599 129.929 19.4514 129.032 19.4529C126.669 19.4573 124.306 19.4566 121.944 19.4558C121.035 19.4555 120.126 19.4552 119.217 19.4552H118.791C118.818 19.364 118.839 19.2764 118.858 19.1932C118.898 19.0233 118.934 18.8714 119.009 18.743C119.333 18.1936 119.908 18.086 120.467 18.0837C124.178 18.0668 127.89 18.0714 131.603 18.0829C131.877 18.0837 132.01 17.9961 132.115 17.7564C132.281 17.3742 132.457 16.9965 132.633 16.6188C132.73 16.4102 132.827 16.2016 132.923 15.9923C133.048 15.7173 133.172 15.4413 133.298 15.1579L133.3 15.154L133.302 15.1499ZM55.4766 27.3237H55.4766H55.4762C54.0366 27.3257 52.5968 27.3278 51.1575 27.3123C50.8037 27.3085 50.4353 27.2201 50.1015 27.0956C49.2365 26.7752 49.0117 25.9792 49.4107 25.1079C49.8445 24.1592 50.275 23.2087 50.7055 22.2581C50.8569 21.9239 51.0083 21.5896 51.1598 21.2554C51.3613 20.8115 51.5599 20.3662 51.7586 19.9208L51.7592 19.9195C52.2188 18.8892 52.6784 17.8588 53.1729 16.8451C53.717 15.731 54.628 15.0096 55.8521 14.7253C56.0616 14.6769 56.2826 14.6546 56.4983 14.6538L58.4623 14.6517C61.8301 14.6477 65.1983 14.6438 68.566 14.6592C69.4133 14.663 69.7678 14.9873 69.8546 15.6296C69.9198 16.1137 69.8215 16.5954 69.6212 17.0418C69.347 17.652 69.0666 18.2592 68.7862 18.8664C68.5941 19.2821 68.4021 19.6978 68.2122 20.1144C67.987 20.6087 67.7645 21.1041 67.542 21.5995C67.0782 22.6321 66.6145 23.6645 66.127 24.6853C65.8676 25.2285 65.5429 25.7649 65.1446 26.212C64.6504 26.7668 63.9842 27.1118 63.2413 27.2562C62.9719 27.3085 62.691 27.3184 62.4147 27.3192C61.0792 27.3232 59.7438 27.3226 58.4083 27.322C57.9226 27.3217 57.4368 27.3215 56.9511 27.3215V27.3223C56.4598 27.3223 55.9683 27.323 55.4769 27.3237H55.4768H55.4768H55.4767H55.4766ZM64.6373 18.6577C64.6388 18.1675 64.6058 18.1344 64.2206 18.1344C62.1392 18.1344 60.0586 18.1344 57.9772 18.1329C57.8966 18.1329 57.8154 18.126 57.7345 18.1191C57.6112 18.1087 57.4883 18.0982 57.3678 18.1121C56.8322 18.1736 56.5467 18.5662 56.3594 19.0057C55.948 19.9721 55.5512 20.9448 55.1544 21.9175L55.1544 21.9177L55.1543 21.9178L55.1543 21.9179L55.1541 21.9182L55.154 21.9185L55.1539 21.9188L55.1538 21.919C54.9823 22.3396 54.8107 22.7601 54.638 23.1801C54.4162 23.7188 54.5766 23.9585 55.1637 23.9585H61.0463C61.0722 23.9585 61.0983 23.9576 61.1244 23.9568C61.1889 23.9548 61.2537 23.9527 61.3165 23.9631C61.9059 24.0591 62.3387 23.8271 62.569 23.2969C62.7562 22.8659 62.9496 22.4372 63.1453 22.01C63.3151 21.6387 63.4859 21.2677 63.6568 20.8967L63.6572 20.8958C63.9165 20.3328 64.1759 19.7696 64.4316 19.2047C64.5029 19.0477 64.559 18.8839 64.6 18.7637L64.6001 18.7635L64.6005 18.7625C64.6145 18.7215 64.6268 18.6856 64.6373 18.6569V18.6577ZM67.9773 25.6296C67.7325 26.1836 67.4877 26.7376 67.239 27.3015H67.2375L67.2565 27.3053C67.2673 27.3075 67.2768 27.3097 67.2855 27.3118C67.3077 27.3169 67.3244 27.3207 67.3411 27.3207C67.6638 27.3209 67.9865 27.3209 68.3092 27.3209C69.2774 27.3209 70.2456 27.3209 71.2137 27.3261C71.3734 27.3269 71.4302 27.257 71.4893 27.1271C71.9352 26.146 72.388 25.1671 72.8408 24.189C73.0857 23.6601 73.331 23.1314 73.5762 22.6027L73.5771 22.6008L73.5776 22.5996L73.5779 22.599L73.5782 22.5983L73.5785 22.5977L73.5788 22.597C74.2317 21.1895 74.8846 19.7819 75.5323 18.3718C75.6205 18.1798 75.7334 18.1306 75.9344 18.1306C77.7595 18.1361 79.584 18.1357 81.4089 18.1354H81.4089H81.409H81.4091H81.4091H81.4092H81.4093L82.7787 18.1352L82.7971 18.1351L82.8254 18.1346C82.8601 18.134 82.8946 18.1333 82.9291 18.136C83.3413 18.1698 83.5032 18.4218 83.3382 18.7952C83.2028 19.1023 83.0619 19.4065 82.921 19.711C82.8397 19.8865 82.7584 20.062 82.6782 20.2382L82.4223 20.8003L82.4213 20.8025L82.4211 20.803L82.4209 20.8034L82.4207 20.8039L82.4205 20.8044L82.4203 20.8049C81.7027 22.3815 80.9854 23.9577 80.2699 25.5351C80.0797 25.955 79.893 26.3764 79.7035 26.8045L79.7026 26.8064C79.6278 26.9755 79.5525 27.1455 79.4763 27.3169H83.8148C83.8679 27.1982 83.9204 27.0794 83.973 26.9606L83.9732 26.9601L83.9734 26.9597L83.9736 26.9592L83.9738 26.9588L83.974 26.9583L83.9742 26.9579C84.0747 26.7307 84.1751 26.5036 84.2791 26.2781C84.4674 25.8684 84.6574 25.4595 84.8474 25.0506L84.8484 25.0484L84.8497 25.0457L84.8503 25.0443C85.13 24.4422 85.4097 23.8401 85.6843 23.2355L85.8152 22.9475L85.8162 22.9451C86.4853 21.4722 87.1544 19.9994 87.8018 18.5178C88.0904 17.8578 88.3605 17.1832 88.5608 16.4925C88.692 16.0392 88.593 15.5789 88.227 15.207C87.8141 14.7883 87.2845 14.6615 86.748 14.66C83.8915 14.6498 81.0347 14.6494 78.178 14.649H78.1756C76.4802 14.6487 74.7847 14.6484 73.0894 14.6461C72.9083 14.6461 72.8185 14.7122 72.7517 14.8644C72.1416 16.2535 71.5307 17.6427 70.9152 19.0288C70.7341 19.4359 70.5498 19.8415 70.3654 20.2471L70.3653 20.2474L70.3652 20.2476C70.1808 20.6532 69.9965 21.0588 69.8154 21.466C69.3976 22.4074 68.9822 23.3499 68.5669 24.2923L68.5657 24.295L68.5607 24.3065C68.3663 24.7476 68.1719 25.1887 67.9773 25.6296ZM102.288 14.7115L102.126 15.0782L102.126 15.0794L102.123 15.0842L102.123 15.0859L102.122 15.0869L102.119 15.0941C101.959 15.4562 101.805 15.8074 101.652 16.159C101.433 16.66 101.215 17.1612 100.997 17.6625L100.997 17.6643L100.995 17.669L100.994 17.6691L100.994 17.6693C100.601 18.5743 100.207 19.4795 99.8119 20.3834C99.6145 20.8343 99.4149 21.2842 99.2152 21.7342L99.2151 21.7346L99.2149 21.735L99.2147 21.7354L99.2143 21.7362L99.2138 21.7375C99.0288 22.1543 98.8439 22.5711 98.6607 22.9888C98.5985 23.131 98.5394 23.2785 98.5087 23.4299C98.4404 23.7702 98.7182 24.0561 99.1365 24.076C99.3088 24.0845 99.4817 24.0824 99.6544 24.0802H99.6545H99.6547H99.6549C99.7321 24.0793 99.8093 24.0783 99.8863 24.0783C100.399 24.0783 100.913 24.0773 101.426 24.0762C102.693 24.0735 103.961 24.0708 105.228 24.0845C105.97 24.0929 106.429 23.7103 106.678 23.068C106.911 22.4652 107.175 21.8748 107.439 21.2844L107.439 21.2842L107.439 21.2839L107.439 21.2837L107.44 21.2834C107.547 21.0434 107.654 20.8033 107.76 20.5624C108.32 19.2808 108.882 17.9992 109.444 16.7176L109.49 16.6106C109.75 16.0186 110.009 15.4267 110.277 14.839C110.305 14.7783 110.408 14.7161 110.477 14.7161C111.643 14.7102 112.809 14.7104 114.008 14.7106H114.009L114.67 14.7107C114.613 14.8501 114.557 14.9862 114.503 15.12L114.503 15.1204C114.4 15.3723 114.301 15.616 114.197 15.8578L113.824 16.7303L113.822 16.7351C113.092 18.4388 112.363 20.1421 111.628 21.8432C111.54 22.0466 111.452 22.2503 111.365 22.4539L111.365 22.4544C111.004 23.2941 110.644 24.1341 110.246 24.9558C109.643 26.1982 108.658 27.0019 107.294 27.3062C107.225 27.3212 107.153 27.321 107.081 27.3208L107.056 27.3207C105.955 27.3207 104.855 27.3219 103.754 27.3231L103.749 27.3231C100.81 27.3263 97.8707 27.3295 94.9316 27.31C93.9162 27.3031 93.283 26.7268 93.3521 25.7456C93.3813 25.3284 93.5371 24.9058 93.7021 24.514C94.2201 23.2784 94.7577 22.0512 95.295 20.8244L95.2954 20.8237L95.2957 20.8228L95.5194 20.3119C95.8181 19.6295 96.1199 18.9483 96.4217 18.2671C96.6551 17.7403 96.8884 17.2135 97.1204 16.6861C97.2157 16.469 97.309 16.2511 97.4024 16.0331L97.4026 16.0326L97.4028 16.0321L97.4031 16.0316L97.4034 16.0307L97.4035 16.0306C97.5562 15.6739 97.7089 15.3174 97.8702 14.965C97.9178 14.8613 98.0436 14.723 98.135 14.7222C99.246 14.7097 100.358 14.7104 101.491 14.7111H101.491H101.492H101.492H101.492H101.492C101.755 14.7113 102.02 14.7115 102.285 14.7115H102.288ZM34.6595 26.7511L34.6575 26.7554L34.6504 26.7712L34.6495 26.7731C34.5688 26.952 34.4865 27.1343 34.4021 27.3215L34.4029 27.3207L35.2261 27.321C36.3581 27.3216 37.4539 27.3222 38.5503 27.3123C38.6355 27.3115 38.7544 27.2047 38.7982 27.1171C38.8978 26.9192 38.9854 26.7156 39.0732 26.5118C39.1247 26.3921 39.1763 26.2723 39.2303 26.1536C39.4469 25.6773 39.6645 25.2011 39.8821 24.7249L39.8826 24.7237C40.1004 24.2472 40.3182 23.7706 40.535 23.2939C40.9683 22.3417 41.4007 21.3892 41.8332 20.4366L41.8349 20.4327C42.0858 19.88 42.3368 19.3272 42.588 18.7745C42.7491 18.4195 42.9985 18.169 43.4038 18.1321C43.5341 18.1206 43.6658 18.1251 43.7975 18.1296C43.8674 18.132 43.9373 18.1344 44.007 18.1344L45.21 18.1345C47.3495 18.1348 49.4894 18.1352 51.6287 18.1267C51.7231 18.1267 51.8605 18.0338 51.9035 17.947C52.2473 17.2524 52.5758 16.5509 52.902 15.8486C53.0215 15.5903 53.1343 15.329 53.2485 15.0644C53.297 14.9519 53.3458 14.8389 53.3954 14.7253C53.376 14.7225 53.361 14.7201 53.3488 14.7182C53.3243 14.7143 53.3113 14.7122 53.298 14.7122C49.6264 14.7115 45.9556 14.7115 42.2848 14.7115L42.2736 14.7114C42.2174 14.7114 42.1607 14.7114 42.106 14.7214C40.9018 14.9443 40.0008 15.6304 39.3469 16.6277C39.0271 17.1166 38.7739 17.6512 38.522 18.183L38.522 18.1831L38.522 18.1831L38.522 18.1831L38.5219 18.1832L38.5218 18.1835L38.5216 18.1838C38.489 18.2527 38.4564 18.3216 38.4237 18.3903C38.0669 19.1394 37.7276 19.897 37.3884 20.6544L37.3883 20.6547L37.2172 21.0365C36.7872 21.9941 36.3596 22.9523 35.9319 23.9106L35.9318 23.911L35.9316 23.9114L35.9314 23.9117L35.9313 23.9121C35.6691 24.4995 35.407 25.0869 35.1443 25.6742C34.9872 26.0251 34.8288 26.3761 34.6642 26.7406L34.6619 26.7457L34.6596 26.7508L34.6595 26.7511ZM86.0619 27.3822C87.9814 23.1148 89.867 18.922 91.7566 14.7199H95.8755C95.8315 14.8241 95.789 14.9263 95.7471 15.0269C95.6562 15.2455 95.5682 15.4569 95.4742 15.6657C95.2799 16.0973 95.0838 16.5281 94.8877 16.959L94.8873 16.9599L94.8867 16.9612L94.8858 16.9631C94.6122 17.5643 94.3385 18.1656 94.0697 18.7691C93.7125 19.5715 93.3585 20.3755 93.0045 21.1794C92.6687 21.9421 92.333 22.7048 91.9945 23.466C91.8448 23.8024 91.6874 24.1361 91.5301 24.4697L91.5298 24.4702L91.5296 24.4708L91.5292 24.4715L91.5291 24.4717C91.206 25.1568 90.8829 25.8419 90.6261 26.5509C90.3643 27.2731 89.9676 27.4537 89.25 27.3999C88.5968 27.351 87.9392 27.3622 87.2818 27.3734H87.2816H87.2815H87.2813C86.998 27.3782 86.7147 27.383 86.4319 27.383H86.0619V27.3822ZM92.3801 13.4498L92.3797 13.4506V13.4498H92.3801ZM92.3801 13.4498C92.599 12.9287 92.807 12.4343 93.0144 11.9413L93.0215 11.9246L93.0505 11.8555C93.1063 11.7228 93.1628 11.5905 93.2192 11.4581L93.2193 11.4579C93.3622 11.1228 93.505 10.7879 93.6376 10.4487C93.7381 10.1913 93.8709 10.0722 94.1771 10.0783C95.0166 10.0946 95.8564 10.092 96.6963 10.0895C97.0068 10.0885 97.3172 10.0876 97.6277 10.0876H97.9838C97.6369 10.892 97.3092 11.6527 96.9815 12.4141C96.9458 12.497 96.9117 12.5808 96.8775 12.6647L96.8774 12.6651L96.8771 12.6656C96.7969 12.8626 96.7167 13.0597 96.6161 13.2455C96.5647 13.3407 96.4158 13.4406 96.3099 13.4414C95.2888 13.4517 94.2681 13.451 93.217 13.4502C92.9403 13.45 92.6615 13.4498 92.3801 13.4498Z"
            fill="#949699" />
    </g>
    <defs>
        <clipPath id="clip0_665_3355">
            <rect width="144" height="40" fill="white" transform="translate(0.5)" />
        </clipPath>
    </defs>
</svg>