<svg width="40" height="40" viewBox="0 0 40 40" fill="none" xmlns="http://www.w3.org/2000/svg">
    <g clip-path="url(#clip0_665_3348)">
        <path fill-rule="evenodd" clip-rule="evenodd"
            d="M33.6389 34.6223V34.5742C33.6558 34.261 33.5987 33.9482 33.4723 33.6611C33.3069 33.3705 33.0792 33.1201 32.8056 32.9279C32.5516 32.7399 32.327 32.5152 32.1389 32.2613C32.045 32.0852 31.9991 31.8875 32.0056 31.6881C31.9962 31.6161 32.0015 31.5431 32.0209 31.4732C32.0404 31.4034 32.0738 31.3381 32.119 31.2815C32.1875 31.2168 32.2782 31.1811 32.3723 31.1815C32.4168 31.1778 32.4615 31.1842 32.5031 31.2004C32.5447 31.2166 32.582 31.242 32.6123 31.2748C32.6737 31.347 32.7048 31.4401 32.699 31.5347V32.2613H33.5589V31.5081C33.5651 31.3629 33.5425 31.2179 33.4923 31.0815C33.436 30.9405 33.344 30.8166 33.2256 30.7216C32.964 30.5683 32.661 30.5007 32.359 30.5282C32.1999 30.5244 32.0409 30.5401 31.8856 30.5749C31.7669 30.6103 31.6528 30.6596 31.5456 30.7216C31.4026 30.8105 31.2871 30.9374 31.2122 31.0881C31.1095 31.3137 31.0615 31.5604 31.0723 31.808C31.0588 32.0911 31.1234 32.3724 31.259 32.6212C31.488 32.9492 31.7669 33.2393 32.0856 33.4811L32.1656 33.5677C32.3064 33.6841 32.4358 33.8136 32.5523 33.9543C32.6372 34.0634 32.6862 34.1962 32.6923 34.3343V34.7142C32.6988 34.7985 32.6988 34.8832 32.6923 34.9675C32.6712 35.0269 32.6337 35.0791 32.5841 35.118C32.5346 35.157 32.475 35.181 32.4123 35.1875H32.339C32.2869 35.1891 32.2353 35.1778 32.1887 35.1546C32.1422 35.1313 32.1021 35.0968 32.0723 35.0542C32.0207 34.9652 31.9953 34.8636 31.999 34.7609V34.021H31.079V34.9608C31.0754 35.0721 31.0935 35.1831 31.1322 35.2875C31.1741 35.3801 31.2304 35.4656 31.2989 35.5407C31.3959 35.6508 31.52 35.7335 31.659 35.7807C31.8272 35.8326 32.0031 35.8552 32.179 35.8474C29.6584 37.7856 26.712 39.0951 23.584 39.6671C22.3853 39.8863 21.1732 39.9947 19.9627 39.9933C18.6713 39.9909 17.377 39.8635 16.0982 39.6091C12.2186 38.8375 8.65495 36.933 5.85791 34.1365C3.06084 31.3399 1.156 27.7768 0.384296 23.8978C-0.387408 20.0189 0.00868623 15.9982 1.52244 12.3443C3.03619 8.69036 5.59964 5.56732 8.88859 3.37005C12.1776 1.17278 16.0444 0 20 0C25.3044 0 30.3915 2.10679 34.1422 5.85691C37.8929 9.607 40 14.6932 40 19.9967C40 23.9516 38.827 27.8178 36.6294 31.1062C35.7672 32.3964 34.7624 33.575 33.6389 34.6223ZM18.1456 11.3315C19.5953 10.7959 21.1554 10.6287 22.6856 10.8449L19.3523 14.1776H14.539C15.3979 12.8555 16.6781 11.862 18.1723 11.3581L18.1456 11.3315ZM9.90559 10.8715H13.9523L12.5256 14.2043H8.47891L9.90559 10.8715ZM13.5456 35.5807C13.2451 35.8105 12.8687 35.9177 12.4923 35.8807C12.2919 35.8883 12.0915 35.8635 11.899 35.8074C11.7687 35.7647 11.6531 35.6862 11.5656 35.5807C11.486 35.4939 11.4207 35.3949 11.3723 35.2875C11.3293 35.1935 11.3087 35.0908 11.3123 34.9875V34.0477H12.2056V34.7675C12.1978 34.886 12.2306 35.0036 12.2989 35.1008C12.3722 35.1941 12.4389 35.2275 12.6256 35.2141C12.6885 35.2085 12.7485 35.1847 12.7983 35.1456C12.848 35.1066 12.8852 35.054 12.9056 34.9942C12.9154 34.91 12.9154 34.825 12.9056 34.7409V34.3543C12.9 34.2192 12.8536 34.089 12.7723 33.981C12.625 33.8131 12.4668 33.6551 12.2989 33.5078C11.9819 33.2641 11.7033 32.9742 11.4723 32.6479C11.3398 32.3979 11.2754 32.1175 11.2856 31.8347C11.2767 31.5865 11.327 31.3397 11.4323 31.1148C11.5068 30.9658 11.6195 30.8393 11.759 30.7482C11.8658 30.6855 11.98 30.6362 12.099 30.6016C12.2562 30.565 12.4176 30.5494 12.579 30.5549C12.8815 30.5185 13.1873 30.5866 13.4456 30.7482C13.5607 30.8426 13.6511 30.9635 13.7091 31.1005C13.7672 31.2375 13.7912 31.3865 13.779 31.5347V32.288H12.919V31.6147C12.9194 31.5022 12.8791 31.3933 12.8056 31.3081C12.7808 31.2771 12.7494 31.2521 12.7136 31.2347C12.6779 31.2175 12.6387 31.2084 12.599 31.2081C12.5507 31.202 12.5017 31.2079 12.4563 31.2253C12.4109 31.2428 12.3706 31.2712 12.339 31.3081C12.2542 31.426 12.214 31.5701 12.2256 31.7147C12.2178 31.9151 12.2663 32.1137 12.3656 32.288C12.5515 32.5437 12.7765 32.7687 13.0323 32.9545C13.3042 33.1487 13.5315 33.3986 13.699 33.6877C13.8254 33.9748 13.8825 34.2876 13.8656 34.6009C13.8846 34.7827 13.866 34.9665 13.811 35.1407C13.7559 35.3151 13.6655 35.4761 13.5456 35.6141V35.5807ZM15.659 37.7204H14.7723L15.199 35.7874L14.039 30.6349H15.039L15.7056 34.4809L16.3723 30.6349H17.3323L15.659 37.7204ZM19.7723 35.6141C19.4686 35.8425 19.0906 35.9494 18.7122 35.914C18.5118 35.9211 18.3116 35.8964 18.119 35.8407C17.986 35.7958 17.8668 35.7178 17.7723 35.6141C17.6985 35.5255 17.6379 35.4267 17.5923 35.3208C17.5573 35.2246 17.5393 35.1231 17.539 35.0208V34.081H18.4323V34.8209C18.428 34.9236 18.4534 35.0255 18.5056 35.1141C18.5335 35.1587 18.5733 35.1947 18.6203 35.2182C18.6673 35.2417 18.7199 35.2518 18.7723 35.2475H18.8456C18.9083 35.241 18.9679 35.2169 19.0174 35.178C19.067 35.1391 19.1045 35.0869 19.1256 35.0275C19.1386 34.9436 19.1386 34.8581 19.1256 34.7742V34.4876C19.1324 34.3187 19.0832 34.1524 18.9856 34.0144C18.8691 33.8736 18.7397 33.7442 18.599 33.6277L18.519 33.5411C18.2002 33.2994 17.9213 33.0092 17.6923 32.6812C17.5567 32.4324 17.4921 32.1511 17.5056 31.868C17.4949 31.6204 17.5429 31.3737 17.6456 31.1481C17.7262 31.0013 17.8404 30.8757 17.9789 30.7816C18.084 30.7153 18.1987 30.6658 18.319 30.6349C18.4753 30.5924 18.6369 30.5722 18.7989 30.5749C19.0967 30.547 19.3956 30.6147 19.6523 30.7682C19.7743 30.8672 19.8724 30.9926 19.939 31.1348C19.9834 31.2747 20.0015 31.4216 19.9923 31.5681V32.3213H19.1256V31.5947C19.1328 31.5425 19.1275 31.4892 19.1101 31.4394C19.0927 31.3896 19.0638 31.3446 19.0256 31.3081C18.9945 31.2819 18.9583 31.2625 18.9193 31.251C18.8803 31.2395 18.8393 31.2362 18.7989 31.2415C18.752 31.2385 18.7049 31.2459 18.6611 31.2631C18.6174 31.2804 18.5779 31.3072 18.5456 31.3415C18.5004 31.3981 18.4671 31.4633 18.4476 31.5332C18.4281 31.6031 18.4229 31.6761 18.4323 31.7481C18.4258 31.9475 18.4717 32.1451 18.5656 32.3213C18.7536 32.5752 18.9783 32.7998 19.2323 32.9878C19.5059 33.18 19.7335 33.4305 19.899 33.7211C20.0254 34.0082 20.0825 34.321 20.0656 34.6342C20.0855 34.8156 20.068 34.999 20.0141 35.1733C19.9602 35.3476 19.871 35.5089 19.7523 35.6474L19.7723 35.6141ZM22.4589 35.9207H21.7523C21.5195 35.9404 21.2864 35.8867 21.0856 35.7674C20.9844 35.6997 20.9074 35.6017 20.8656 35.4874C20.822 35.3405 20.8039 35.1872 20.8123 35.0341V31.3281H20.2723V30.6616H20.8123V29.6217L21.739 29.3018V30.6349H22.4056V31.3015H21.739V34.7275C21.7377 34.7816 21.748 34.8352 21.7691 34.8849C21.7903 34.9346 21.8218 34.9793 21.8615 35.0159C21.9012 35.0524 21.9483 35.0801 21.9996 35.0971C22.0509 35.1141 22.1052 35.1198 22.159 35.1141H22.4789L22.4589 35.9207ZM25.519 31.7547V33.5744H23.6723V34.6609C23.6565 34.7513 23.6565 34.8437 23.6723 34.9341C23.6984 35.0058 23.7446 35.0683 23.8056 35.1141C23.8995 35.1726 24.0084 35.2027 24.119 35.2008C24.1814 35.2038 24.2436 35.1936 24.3017 35.1706C24.3598 35.1477 24.4123 35.1128 24.4558 35.068C24.4993 35.0232 24.5328 34.9697 24.554 34.911C24.5753 34.8523 24.5837 34.7898 24.579 34.7275V34.061H25.4856V34.6609C25.4837 34.8766 25.4384 35.0897 25.3523 35.2875C25.2524 35.4678 25.0985 35.6123 24.9123 35.7007C24.6257 35.8294 24.3128 35.8888 23.999 35.874C23.6462 35.8976 23.2985 35.7801 23.0323 35.5474C22.914 35.4306 22.822 35.2899 22.7622 35.1347C22.7025 34.9796 22.6764 34.8136 22.6856 34.6476V32.3146C22.644 31.8546 22.7342 31.3922 22.9456 30.9815C23.0579 30.8336 23.2046 30.7155 23.3732 30.6376C23.5418 30.5598 23.7269 30.5245 23.9123 30.5349H24.2856C24.5406 30.5191 24.7942 30.5819 25.0123 30.7149C25.1559 30.7992 25.2736 30.9214 25.3523 31.0681C25.4174 31.174 25.4604 31.2919 25.4789 31.4148V31.6547L25.519 31.7547ZM30.4856 35.8007H29.5589V31.6547C29.572 31.5378 29.5385 31.4205 29.4656 31.3281C29.3855 31.2556 29.2802 31.2173 29.1723 31.2215C28.8456 31.2215 28.7456 31.3215 28.7456 31.8014V35.8007H27.7723V31.6014C27.7723 31.6014 27.7723 31.3415 27.579 31.2615C27.4916 31.2377 27.3995 31.2377 27.3123 31.2615C27.2618 31.2663 27.2128 31.2811 27.1681 31.3052C27.1235 31.3292 27.084 31.3619 27.0523 31.4014C26.9828 31.493 26.9495 31.6069 26.9589 31.7214V35.8274H25.999V30.6149H26.899V31.1748L27.0056 30.9948C27.0652 30.9033 27.1369 30.8203 27.2189 30.7482C27.311 30.672 27.4175 30.615 27.532 30.5806C27.6465 30.5463 27.7667 30.5353 27.8856 30.5482H27.9256C28.0656 30.5444 28.2039 30.579 28.3256 30.6482C28.4805 30.7533 28.6011 30.9017 28.6723 31.0748C28.7618 30.8849 28.9119 30.7302 29.099 30.6349C29.2213 30.5744 29.3558 30.5425 29.4923 30.5416H29.5656C29.7345 30.5433 29.9 30.5893 30.0456 30.6749C30.1806 30.7511 30.2933 30.8615 30.3723 30.9948C30.4545 31.1554 30.4935 31.3345 30.4856 31.5148V35.8007ZM31.7523 26.5756H15.0656L13.0656 22.083C13.0122 21.9695 12.9608 21.8591 12.911 21.7522L12.9108 21.7516C12.4142 20.6845 12.0787 19.9634 11.4789 19.9634H9.99227L7.13895 26.5756H3.09229L7.39895 16.6572H11.399C13.9656 16.6572 14.939 17.5304 16.0656 19.99L19.079 26.4756L20.5856 22.8962H33.4723L31.7523 26.5756ZM34.3723 16.6506C33.6323 18.3436 32.7056 19.9833 30.9056 19.9833H21.8056C22.5189 18.1836 24.159 16.6506 25.7456 16.6506H29.579C29.9285 16.612 30.2616 16.4821 30.5449 16.2738C30.8281 16.0655 31.0515 15.7862 31.1923 15.4641C31.5123 14.7242 31.2723 14.131 30.4256 14.131H24.2656L25.6656 10.7982H34.6656C35.779 10.7982 36.6256 11.5181 35.5123 14.131L34.3723 16.6506ZM24.454 31.2481C24.3667 31.1865 24.2603 31.1581 24.1539 31.1681C24.0394 31.1588 23.9255 31.1921 23.8339 31.2615C23.7751 31.306 23.7288 31.3651 23.6996 31.4328C23.6704 31.5006 23.6592 31.5747 23.6673 31.6481V32.8279H24.6073V31.6481C24.6187 31.5744 24.6112 31.4991 24.5856 31.4292C24.5599 31.3592 24.5169 31.2969 24.4606 31.2481H24.454Z"
            fill="#949699" />
    </g>
    <defs>
        <clipPath id="clip0_665_3348">
            <rect width="40" height="40" fill="white" />
        </clipPath>
    </defs>
</svg>
        