<svg width="106" height="40" viewBox="0 0 106 40" fill="none" xmlns="http://www.w3.org/2000/svg">
    <g clip-path="url(#clip0_665_3349)">
        <path fill-rule="evenodd" clip-rule="evenodd"
            d="M30.3867 14.0288C23.3056 14.0288 17.5693 19.7622 17.5693 26.8288C17.5693 28.7604 17.9948 30.5802 18.7555 32.2162H7.45605V14.9009H0V38.991H16.1271L19.5199 33.6288C21.7841 37.2432 25.7969 39.6432 30.3867 39.6432C37.4641 39.6432 43.2004 33.9027 43.2004 26.8252C43.204 19.7622 37.4641 14.0288 30.3867 14.0288ZM30.3867 32.8829C27.0408 32.8829 24.3331 30.1802 24.3331 26.8288C24.3331 23.4955 27.0408 20.7856 30.3867 20.7856C33.7289 20.7856 36.4366 23.4919 36.4366 26.8288C36.4366 30.1802 33.7289 32.8829 30.3867 32.8829ZM61.7144 29.6865L52.7116 14.9009H51.8102H46.1497H45.2519V38.9946H51.8138V24.2054L60.8238 38.991H68.2835V14.9009H61.718V29.6865H61.7144ZM95.7317 24.5946H95.519H89.1157H83.109V28.8721H89.1878C88.3405 31.4162 85.9393 33.2468 83.109 33.2468C79.5649 33.2468 76.6878 30.3784 76.6878 26.8288C76.6878 23.2937 79.5649 20.4216 83.109 20.4216C84.8036 20.4216 86.3431 21.0847 87.4897 22.1586H95.0431C93.1718 17.391 88.5316 14.0288 83.109 14.0288C76.0316 14.0288 70.2989 19.7622 70.2989 26.8288C70.2989 33.9063 76.0316 39.6432 83.109 39.6432C90.1865 39.6432 95.9192 33.9027 95.9192 26.8288C95.9192 26.0757 95.8543 25.3225 95.7317 24.5946ZM105.917 7.45946H98.4286V0H105.917V7.45946ZM105.917 39.5964H98.4286V14.7856H105.917V39.5964Z"
            fill="#949699" />
    </g>
    <defs>
        <clipPath id="clip0_665_3349">
            <rect width="106" height="40" fill="white" />
        </clipPath>
    </defs>
</svg>
    