<svg width="436" height="40" viewBox="0 0 436 40" fill="none" xmlns="http://www.w3.org/2000/svg">
    <g clip-path="url(#clip0_665_3351)">
        <path
            d="M43.6 19.4667C43.6 8.8 34.8 0 24 0H0V38.9333H24C34.8 39.0667 43.6 30.2667 43.6 19.4667Z"
            fill="#949699" />
        <path
            d="M435.333 19.4667C435.333 8.66667 426.667 0 415.867 0C405.067 0 396.4 8.66667 396.4 19.4667C396.4 30.2667 405.2 38.9333 415.867 38.9333C426.667 38.9333 435.333 30.2667 435.333 19.4667Z"
            fill="#949699" />
        <path
            d="M349.867 19.4667C349.867 8.66667 341.2 0 330.4 0H287.733C276.933 0 268.267 8.66667 268.267 19.4667C268.267 30.2667 276.933 38.9333 287.733 38.9333H330.4C341.2 39.0667 349.867 30.2667 349.867 19.4667Z"
            fill="#949699" />
        <path
            d="M86.2666 19.4667C86.2666 8.8 77.4666 0 66.8 0C56 0 47.2 8.8 47.2 19.4667C47.2 30.2667 55.8666 38.9333 66.6666 38.9333C77.4666 39.0667 86.2666 30.2667 86.2666 19.4667Z"
            fill="#949699" />
        <path
            d="M392.667 19.4667C392.667 8.66667 384 0 373.2 0C362.4 0 353.733 8.66667 353.733 19.4667C353.733 30.2667 362.4 38.9333 373.2 38.9333C383.867 39.0667 392.667 30.2667 392.667 19.4667Z"
            fill="#949699" />
        <path fill-rule="evenodd" clip-rule="evenodd"
            d="M246 13.4667L249.067 18.4H256.8C256.8 18.4 252.267 12.1333 249.867 8.93333L256.8 0H249.333L246.133 4.4L242.933 0H235.333L242.267 8.93333C239.867 12.1333 235.333 18.4 235.333 18.4H243.067L246 13.4667ZM152 21.3333C150.267 20.5333 148.667 20.4 146.533 20.4C141.333 20.4 136.667 24.6667 136.667 30C136.667 35.4667 140.933 39.4667 147.067 39.4667C149.2 39.4667 150.267 39.3333 152 38.4V33.0667C150.933 33.7333 149.733 34.2667 148 34.2667C145.6 34.2667 143.6 32.2667 143.6 29.8667C143.6 27.3333 145.6 25.3333 148.133 25.3333C149.6 25.3333 150.933 25.8667 152 26.6667V21.3333ZM188.133 20.8H194.8V39.2H189.2L181.467 31.4667V39.2H174.8V20.8H180.133L188.133 28.6667V20.8ZM256.8 25.7333V20.8H239.067C232.133 20.8 229.067 24.6667 229.067 30C229.067 35.3333 233.733 39.4667 239.067 39.4667C240.933 39.4667 242.133 39.2 243.733 38.2667V33.3333C242.667 34.2667 241.733 34.5333 240.267 34.5333C237.733 34.4 235.6 32.5333 235.6 30C235.6 27.7333 236.933 25.6 239.6 25.6H245.6V39.2H252.267V25.7333H256.8ZM195.867 20.8H211.6H211.733V25.6H207.2V39.2H200.533V25.7333H195.867V20.8ZM234.533 18.5333H227.333V0.133333H234.533V18.5333ZM162.267 0.133333H155.6V18.5333H162.267V11.8667H168V18.5333H174.667V0.133333H168V6.4H162.267V0.133333ZM218.4 0.133333H224.933V18.4H219.333L211.467 10.6667V18.5333H204.8V0.133333H210.133L218.4 7.86667V0.133333ZM117.067 27.4667V24.1333C117.067 22.2667 118.533 21.6 118.533 21.6C119.867 20.6667 121.2 18.9333 121.2 16.9333C121.2 15.2 120.533 13.8667 119.333 12.8C119.101 12.6012 118.853 12.427 118.611 12.2571C117.878 11.7435 117.2 11.2686 117.2 10.2667V6.66667C117.2 5.6 117.2 4.53333 119.2 4.53333C125.733 4.53333 131.2 10.5333 131.2 16.6667C131.2 22.9333 126.133 29.0667 119.2 29.0667C116.933 29.0667 117.067 27.4667 117.067 27.4667ZM114.267 32.8V24.1333C114.267 22.4 112.8 21.6 112.8 21.6C111.467 20.6667 110.133 19.0667 110.133 16.9333C110.267 15.2 110.8 14 112.133 12.8C112.421 12.5125 112.734 12.2882 113.029 12.0766C113.692 11.6012 114.267 11.1893 114.267 10.2667V6.66667C114.267 5.6 114.267 4.53333 112.267 4.53333H103.333C102.267 4.53333 101.333 5.46667 101.333 6.53333V32.8C101.333 33.8667 102.4 34.8 103.467 34.8H112.267C113.333 34.8 114.267 33.8667 114.267 32.8ZM115.733 19.4667C114.267 19.4667 113.067 18.2667 113.067 16.8C113.067 15.3333 114.267 14.1333 115.733 14.1333C117.2 14.1333 118.4 15.3333 118.4 16.8C118.4 18.2667 117.2 19.4667 115.733 19.4667ZM96.8 2.8C96.8 1.33333 98 0.133333 99.4667 0.133333H132.667C134.133 0.133333 135.333 1.33333 135.333 2.8V36.4C135.333 37.8667 134.133 39.0667 132.667 39.0667H99.4667C98 39.0667 96.8 37.8667 96.8 36.4V2.8ZM144.533 4.53333H145.6C147.067 4.53333 148 5.33333 148 6.66667C148 7.86667 147.067 8.8 145.6 8.8H144.533V4.53333ZM137.733 0.133333H146.933C152 0.133333 154.533 2.66667 154.533 6.66667C154.533 10.5333 150.667 13.2 146.933 13.2H144.4V18.5333H137.733V0.133333ZM186.133 5.46667C188.133 5.46667 189.333 7.46667 189.333 9.46667C189.333 11.3333 188.133 13.3333 186.133 13.3333C184.267 13.3333 183.067 11.4667 183.067 9.46667C183.067 7.46667 184.133 5.46667 186.133 5.46667ZM186.133 0.133333H202.8V4.53333H195.333V7.06667H202.8V11.4667H195.333V14H202.8V18.5333H186.133C182.8 18.5333 180.667 17.3333 179.067 15.8667C177.733 14.5333 176.533 12 176.533 9.33333C176.533 6.53333 177.2 4.26667 179.067 2.53333C180.933 0.8 182.8 0.133333 186.133 0.133333ZM217.867 31.6L219.333 27.0667L220.8 31.6H217.867ZM215.733 20.8H222.8L230.267 39.2H223.467L222.133 35.8667H216.267L214.933 39.2H208.133L215.733 20.8ZM163.2 26C165.2 26 166.4 28 166.4 30.1333C166.4 32.1333 165.2 34.1333 163.2 34.1333C161.2 34.1333 160 32.1333 160 30.1333C160 28 161.2 26 163.2 26ZM163.2 20.4C169.333 20.4 173.2 24.5333 173.2 30C173.2 35.3333 169.333 39.4667 163.2 39.4667C157.2 39.4667 153.333 35.3333 153.333 30C153.333 24.6667 157.333 20.4 163.2 20.4Z"
            fill="#949699" />
    </g>
    <defs>
        <clipPath id="clip0_665_3351">
            <rect width="436" height="40" fill="white" />
        </clipPath>
    </defs>
</svg>
    