<svg width="82" height="40" viewBox="0 0 82 40" fill="none" xmlns="http://www.w3.org/2000/svg">
    <g clip-path="url(#clip0_665_3352)">
        <path
            d="M39.4274 14.024V25.3001H19.1943L25.4064 21.8386C21.7602 19.5501 19.5075 16.4636 19.5075 13.0678C19.5075 6.02297 29.1465 0.300049 41.0226 0.300049C52.9162 0.300049 62.5552 6.01359 62.5552 13.0678C62.5552 16.473 60.3024 19.5688 56.6406 21.8573L62.8057 25.3094H42.6352V14.024L49.4579 17.8334C52.9944 16.2948 55.2942 13.8178 55.2942 11.0136C55.2942 6.34172 48.9099 2.56151 41.0383 2.56151C33.1684 2.56151 26.7841 6.34172 26.7841 11.0136C26.7841 13.8084 29.0682 16.2855 32.5891 17.824L39.4274 14.024Z"
            fill="#949699" />
        <path
            d="M3.03028 28.8647V29.8032H9.35192C9.58677 29.8032 9.80596 29.7563 9.97817 29.6626C10.1504 29.5688 10.2443 29.4563 10.2443 29.3345C10.2443 29.2032 10.1504 29.0897 9.97817 29.0053C9.80596 28.9115 9.60242 28.8647 9.35192 28.8647H3.03028ZM3.03028 31.1917V33.5272H0.323486V27.4574H9.36758C10.3539 27.4574 11.1976 27.6459 11.9178 28.0209C12.6223 28.3865 12.9824 28.8272 12.9824 29.3345C12.9824 29.8407 12.6223 30.2813 11.9178 30.647C11.2133 31.0042 10.3539 31.1917 9.36758 31.1917H3.03028Z"
            fill="#949699" />
        <path
            d="M22.8093 28.8647H16.5973V29.8032H22.8093C23.0442 29.8032 23.2634 29.7563 23.4356 29.6626C23.6235 29.5688 23.7017 29.4563 23.7017 29.3345C23.7017 29.2032 23.6078 29.0897 23.4356 29.0053C23.279 28.9022 23.0598 28.8647 22.8093 28.8647ZM13.8748 27.4574H22.7154C23.7017 27.4574 24.5454 27.6459 25.2656 28.0115C25.9702 28.3772 26.3303 28.8178 26.3303 29.3251C26.3303 29.7188 26.1111 30.0938 25.6884 30.4595C26.252 30.797 26.5338 31.2011 26.5338 31.6605V33.5272H23.827V31.6605C23.827 31.5574 23.7487 31.4542 23.5922 31.3511C23.4356 31.248 23.2634 31.1917 23.0598 31.1917H16.5973V33.5365H13.8748V27.4574Z"
            fill="#949699" />
        <path
            d="M35.8284 30.5532L35.0299 29.4845C34.8577 29.2782 34.5915 29.1751 34.2332 29.1751C33.8887 29.1751 33.6382 29.2782 33.466 29.4845L32.6676 30.5532H35.8284ZM31.3368 32.0824L30.1643 33.499V33.5459H26.9878L31.1176 28.6865C31.8221 27.8615 32.8554 27.448 34.2332 27.448C35.6405 27.448 36.6895 27.8615 37.3784 28.6865L41.4925 33.5272H38.3473L38.3003 33.4709L37.1279 32.0917H31.3368V32.0824Z"
            fill="#949699" />
        <path
            d="M47.3305 33.5272V28.8553H44.622V33.5272H41.9152V27.4574H51.8517C52.838 27.4574 53.6991 27.6459 54.4037 28.0115C55.1064 28.3772 55.4665 28.8178 55.4665 29.3251V33.5272H52.7598V29.3251C52.7598 29.1938 52.6658 29.0803 52.4936 28.9959C52.3214 28.9022 52.1178 28.8553 51.8517 28.8553H50.053V33.5272H47.3305Z"
            fill="#949699" />
        <path
            d="M81.6768 33.5272H74.4489C73.4625 33.5272 72.6171 33.3397 71.8969 32.974C71.1785 32.6084 70.834 32.1667 70.834 31.6605V29.3251C70.834 28.8178 71.1941 28.3772 71.8969 28.0115C72.6014 27.6459 73.4625 27.4574 74.4489 27.4574H81.6768V28.8553H74.4489C74.214 28.8553 74.0105 28.9022 73.8226 29.0053C73.6348 29.099 73.5565 29.2032 73.5565 29.3251V31.6605C73.5565 31.7824 73.6504 31.8949 73.8226 31.9886C73.9948 32.0824 74.214 32.1292 74.4489 32.1292H81.6768V33.5272Z"
            fill="#949699" />
        <path
            d="M64.7455 30.5532L63.9488 29.4845C63.7765 29.2782 63.5104 29.1751 63.1503 29.1751C62.8058 29.1751 62.5553 29.2782 62.3831 29.4845L61.5847 30.5532H64.7455ZM60.2556 32.0824L59.0814 33.499V33.5459H55.9049L60.0364 28.6865C60.741 27.8615 61.7725 27.448 63.1503 27.448C64.5593 27.448 65.6066 27.8615 66.2954 28.6865L70.4113 33.5272H67.2661L67.2192 33.4709L66.0606 32.0917H60.2556V32.0824Z"
            fill="#949699" />
        <path
            d="M0.291992 38.8177L2.01244 36.0323H2.71697L4.45307 38.8177H3.76594L3.2806 37.9833H1.43316L0.932159 38.8177H0.291992ZM1.62103 37.6646H3.07706L2.35688 36.4354L1.62103 37.6646Z"
            fill="#949699" />
        <path
            d="M12.7318 38.4521C12.5439 38.6021 12.3247 38.7146 12.0585 38.7896C11.7924 38.8646 11.4949 38.9021 11.1661 38.9021C10.5416 38.9021 10.025 38.7708 9.63355 38.4989C9.24215 38.2271 9.05427 37.8802 9.05427 37.4385C9.05427 36.9885 9.2578 36.6229 9.66487 36.3604C10.0719 36.0979 10.6199 35.9667 11.307 35.9667C11.8393 35.9667 12.2621 36.051 12.6065 36.2104C12.9353 36.3698 13.1388 36.5948 13.2014 36.8854H12.5908C12.5282 36.6979 12.3873 36.5573 12.1681 36.4542C11.9489 36.351 11.6515 36.3042 11.307 36.3042C10.806 36.3042 10.4164 36.4073 10.1346 36.6042C9.85274 36.801 9.71183 37.0823 9.71183 37.4385C9.71183 37.7958 9.85274 38.0771 10.1189 38.2739C10.4007 38.4708 10.7747 38.5739 11.2601 38.5739C11.6984 38.5739 12.0429 38.4896 12.309 38.3302C12.5752 38.1708 12.7004 37.9552 12.7004 37.6833V37.6458H11.2444V37.3354H13.2797V38.8364H12.8727L12.7318 38.4521Z"
            fill="#949699" />
        <path
            d="M17.6913 38.1708H18.2549C18.1923 38.3958 18.0357 38.5739 17.7696 38.6958C17.5034 38.8271 17.1764 38.8927 16.785 38.8927C16.3153 38.8927 15.9395 38.7989 15.6734 38.6114C15.4072 38.4239 15.2663 38.1614 15.2663 37.8427C15.2663 37.4948 15.4072 37.2229 15.6734 37.0354C15.9395 36.8385 16.3153 36.7448 16.785 36.7448C17.2703 36.7448 17.6443 36.8385 17.9105 37.0167C18.1766 37.1948 18.3019 37.4479 18.3019 37.7771C18.3019 37.8146 18.3019 37.8521 18.3019 37.8708C18.3019 37.8896 18.3019 37.9083 18.2862 37.9271H15.8456C15.8456 38.1427 15.9395 38.3021 16.1118 38.4239C16.284 38.5364 16.5188 38.6021 16.8163 38.6021C17.0511 38.6021 17.239 38.5646 17.3956 38.4989C17.5504 38.4333 17.6443 38.3021 17.6913 38.1708ZM15.8456 37.6271H17.6913C17.6913 37.4385 17.613 37.2885 17.4565 37.1854C17.3016 37.0823 17.0825 37.0354 16.785 37.0354C16.5032 37.0354 16.284 37.0823 16.1274 37.1854C15.9709 37.2885 15.8769 37.4292 15.8456 37.6271Z"
            fill="#949699" />
        <path
            d="M22.4804 38.8177V37.5708C22.4804 37.3729 22.4334 37.2323 22.3238 37.1573C22.2142 37.0823 22.042 37.0448 21.7915 37.0448C21.4784 37.0448 21.2279 37.101 21.0557 37.2042C20.8834 37.3073 20.7895 37.4667 20.7895 37.6646V38.8177H20.2276V36.7917H20.7756V37.0823C20.8991 36.9698 21.0557 36.876 21.2435 36.8198C21.4158 36.7635 21.6349 36.7354 21.8698 36.7354C22.1203 36.7354 22.3395 36.7542 22.5117 36.801C22.6839 36.8479 22.8248 36.9135 22.9188 37.0073C22.9657 37.0542 23.0127 37.1104 23.0283 37.176C23.044 37.2417 23.0597 37.3448 23.0597 37.4948V38.8083L22.4804 38.8177Z"
            fill="#949699" />
        <path
            d="M27.4573 38.1708H28.0192C27.9566 38.3958 27.8 38.5739 27.5339 38.6958C27.2694 38.8271 26.9407 38.8927 26.5493 38.8927C26.0796 38.8927 25.7038 38.7989 25.4377 38.6114C25.1715 38.4239 25.0306 38.1614 25.0306 37.8427C25.0306 37.4948 25.1715 37.2229 25.4377 37.0354C25.7038 36.8385 26.0796 36.7448 26.5493 36.7448C27.0346 36.7448 27.4104 36.8385 27.6748 37.0167C27.9409 37.1948 28.0662 37.4479 28.0662 37.7771C28.0662 37.8146 28.0662 37.8521 28.0662 37.8708C28.0662 37.8896 28.0662 37.9083 28.0505 37.9271H25.6099C25.6099 38.1427 25.7038 38.3021 25.876 38.4239C26.0483 38.5364 26.2831 38.6021 26.5806 38.6021C26.8154 38.6021 27.0033 38.5646 27.1599 38.4989C27.3164 38.4333 27.4104 38.3021 27.4573 38.1708ZM25.6255 37.6271H27.473C27.473 37.4385 27.3947 37.2885 27.2381 37.1854C27.0816 37.0823 26.8624 37.0354 26.5649 37.0354C26.2831 37.0354 26.0639 37.0823 25.9074 37.1854C25.7351 37.2885 25.6412 37.4292 25.6255 37.6271Z"
            fill="#949699" />
        <path
            d="M30.0076 38.8177V36.7917H30.5555V37.1573C30.6495 37.0167 30.7747 36.9229 30.9139 36.8479C31.0704 36.7823 31.2583 36.7448 31.4775 36.7448C31.5245 36.7448 31.5558 36.7448 31.5714 36.7448C31.5871 36.7448 31.6028 36.7448 31.6341 36.7448V37.101C31.6184 37.101 31.6028 37.101 31.5871 37.101C31.5714 37.101 31.5401 37.101 31.5088 37.101C31.2113 37.101 30.9765 37.1479 30.8217 37.251C30.6651 37.3542 30.5868 37.4948 30.5868 37.6833V38.8083H30.0076V38.8177Z"
            fill="#949699" />
        <path
            d="M35.5151 38.5552C35.3429 38.6677 35.155 38.7521 34.9515 38.8083C34.7479 38.8646 34.5444 38.8927 34.3252 38.8927C33.9825 38.8927 33.7163 38.8364 33.5128 38.7333C33.3249 38.6302 33.2153 38.4802 33.2153 38.2833C33.2153 38.0958 33.3093 37.9552 33.4972 37.8521C33.685 37.7489 33.9825 37.6833 34.3722 37.6458C34.4661 37.6364 34.607 37.6271 34.7792 37.6177C35.061 37.5989 35.2489 37.5802 35.3115 37.5708C35.3742 37.5521 35.4211 37.5333 35.4368 37.5146C35.4524 37.4854 35.4681 37.4385 35.4681 37.3542C35.4681 37.251 35.4055 37.176 35.2802 37.1198C35.155 37.0635 34.9671 37.0448 34.7166 37.0448C34.4504 37.0448 34.2626 37.0729 34.1234 37.1385C33.9825 37.2042 33.9199 37.2979 33.9199 37.4198H33.3876V37.401C33.3876 37.1948 33.5128 37.0354 33.7477 36.9135C33.9825 36.7917 34.3095 36.7354 34.7323 36.7354C35.1863 36.7354 35.5151 36.7823 35.7343 36.8854C35.9534 36.9885 36.0474 37.1479 36.0474 37.3635V38.3677C36.0474 38.4521 36.063 38.5083 36.0944 38.5364C36.1257 38.5646 36.1883 38.5739 36.2666 38.5739C36.2822 38.5739 36.2979 38.5739 36.3292 38.5739C36.3605 38.5739 36.3762 38.5646 36.4231 38.5646V38.8271C36.3605 38.8364 36.2979 38.8458 36.2353 38.8552C36.1883 38.8552 36.1413 38.8646 36.0944 38.8646C35.9065 38.8646 35.7656 38.8364 35.6716 38.7896C35.5777 38.7427 35.5307 38.6677 35.5307 38.5646V38.5552H35.5151ZM35.4681 37.7958C35.3115 37.8427 35.061 37.8802 34.6853 37.9083C34.56 37.9177 34.4504 37.9271 34.3878 37.9364C34.186 37.9552 34.0295 37.9927 33.9512 38.0489C33.8573 38.1052 33.8103 38.1802 33.8103 38.2833C33.8103 38.3864 33.8573 38.4614 33.9668 38.5177C34.0764 38.5739 34.2173 38.6021 34.4191 38.6021C34.7166 38.6021 34.9671 38.5552 35.1706 38.4614C35.3585 38.3677 35.4681 38.2552 35.4681 38.1052V37.7958Z"
            fill="#949699" />
        <path
            d="M40.4607 37.4667C40.4451 37.326 40.3668 37.2229 40.2102 37.1479C40.0536 37.0729 39.8501 37.0354 39.5996 37.0354C39.2865 37.0354 39.0516 37.101 38.8951 37.2323C38.7229 37.3635 38.6446 37.5521 38.6446 37.7958C38.6446 38.0396 38.7229 38.2364 38.8794 38.3677C39.036 38.4989 39.2708 38.5646 39.5683 38.5646C39.8345 38.5646 40.038 38.5271 40.2102 38.4427C40.3668 38.3583 40.4607 38.2458 40.5077 38.0864H41.0539C41.0226 38.3302 40.8834 38.5271 40.6173 38.6677C40.3511 38.8083 40.0067 38.8739 39.5526 38.8739C39.083 38.8739 38.7229 38.7802 38.4567 38.5927C38.1906 38.4052 38.0653 38.1427 38.0653 37.8146C38.0653 37.476 38.2062 37.2135 38.4724 37.0167C38.7542 36.8292 39.1299 36.726 39.6153 36.726C40.038 36.726 40.3824 36.7917 40.6329 36.9229C40.8834 37.0542 41.0226 37.2323 41.0382 37.4667H40.4607Z"
            fill="#949699" />
        <path
            d="M49.27 37.7864H49.8806C49.8492 38.1239 49.6614 38.3958 49.3013 38.5927C48.9412 38.7896 48.4871 38.8927 47.9079 38.8927C47.252 38.8927 46.7354 38.7614 46.3753 38.4896C45.9995 38.2271 45.8117 37.8521 45.8117 37.3823C45.8117 36.951 45.9995 36.6042 46.3909 36.3417C46.7824 36.0885 47.299 35.9573 47.9705 35.9573C48.5028 35.9573 48.9255 36.0417 49.27 36.201C49.5987 36.3604 49.8023 36.5854 49.8492 36.8667H49.2386C49.176 36.6792 49.0351 36.5385 48.8159 36.4448C48.5967 36.3417 48.3149 36.2948 47.9548 36.2948C47.4869 36.2948 47.1268 36.3979 46.8606 36.5948C46.5945 36.7917 46.4692 37.0729 46.4692 37.4292C46.4692 37.7677 46.6101 38.0396 46.8763 38.2458C47.1425 38.4521 47.5025 38.5552 47.9548 38.5552C48.3306 38.5552 48.6437 38.4802 48.8942 38.3396C49.1291 38.2083 49.2543 38.0208 49.27 37.7864Z"
            fill="#949699" />
        <path
            d="M51.6636 37.8052C51.6636 37.4667 51.8045 37.2042 52.0863 37.0167C52.3682 36.8292 52.7596 36.7354 53.2762 36.7354C53.7929 36.7354 54.1843 36.8292 54.4661 37.0167C54.7462 37.2042 54.8871 37.4667 54.8871 37.8146C54.8871 38.1521 54.7462 38.4146 54.4661 38.6114C54.1843 38.7989 53.7929 38.8927 53.2762 38.8927C52.7596 38.8927 52.3682 38.7989 52.0863 38.6114C51.8045 38.4239 51.6636 38.1521 51.6636 37.8052ZM52.2429 37.8052C52.2429 38.0583 52.3368 38.2458 52.5091 38.3771C52.6813 38.5083 52.9474 38.5739 53.2762 38.5739C53.605 38.5739 53.8555 38.5083 54.0434 38.3771C54.2156 38.2458 54.3095 38.0489 54.3095 37.8052C54.3095 37.5521 54.2156 37.3635 54.0434 37.2323C53.8712 37.101 53.605 37.0354 53.2762 37.0354C52.9474 37.0354 52.6813 37.101 52.5091 37.2323C52.3368 37.3635 52.2429 37.5521 52.2429 37.8052Z"
            fill="#949699" />
        <path
            d="M60.9913 38.8177V37.5708C60.9913 37.3635 60.9443 37.2229 60.8504 37.1479C60.7564 37.0729 60.5999 37.0354 60.365 37.0354C60.0989 37.0354 59.8797 37.0823 59.7231 37.1854C59.5665 37.2885 59.4883 37.4292 59.4883 37.6177V38.8177H58.909V37.5708C58.909 37.3635 58.862 37.2229 58.7681 37.1479C58.6741 37.0729 58.5176 37.0354 58.2827 37.0354C58.0166 37.0354 57.7991 37.0823 57.6426 37.1854C57.486 37.2885 57.4077 37.4292 57.4077 37.6083V38.8083H56.8441V36.7823H57.3921V37.0635C57.5173 36.951 57.6739 36.8667 57.8461 36.8104C58.0166 36.7542 58.2201 36.726 58.455 36.726C58.6585 36.726 58.8464 36.7542 58.9873 36.801C59.1438 36.8479 59.2691 36.9323 59.3787 37.0448C59.5196 36.9323 59.6918 36.8573 59.864 36.801C60.0362 36.7448 60.2398 36.726 60.459 36.726C60.6781 36.726 60.866 36.7542 61.0226 36.801C61.1791 36.8479 61.3027 36.9135 61.3966 37.0073C61.4436 37.0635 61.4749 37.1198 61.5062 37.1948C61.5218 37.2698 61.5375 37.3823 61.5375 37.5333V38.8083H60.9913V38.8177Z"
            fill="#949699" />
        <path
            d="M63.7137 39.6344V36.801H64.2617V37.0823C64.4026 36.9604 64.5592 36.876 64.7296 36.8198C64.9018 36.7635 65.121 36.7354 65.3559 36.7354C65.8099 36.7354 66.17 36.8292 66.4362 37.026C66.7023 37.2229 66.8432 37.476 66.8432 37.8052C66.8432 38.1333 66.7023 38.3958 66.4362 38.5927C66.17 38.7896 65.8099 38.8833 65.3559 38.8833C65.121 38.8833 64.9018 38.8552 64.7296 38.8083C64.5592 38.7614 64.4026 38.6771 64.2617 38.5739V39.6344H63.7137ZM64.2617 37.8239C64.2617 38.0771 64.34 38.2646 64.5122 38.3958C64.6827 38.5271 64.9332 38.5833 65.2619 38.5833C65.5751 38.5833 65.8256 38.5177 65.9978 38.3771C66.17 38.2364 66.2639 38.0396 66.2639 37.7864C66.2639 37.5521 66.17 37.3729 65.9978 37.2417C65.8256 37.1104 65.5751 37.0448 65.2619 37.0448C64.9488 37.0448 64.6983 37.1104 64.5278 37.251C64.34 37.3729 64.2617 37.5708 64.2617 37.8239Z"
            fill="#949699" />
        <path
            d="M70.9121 38.5552C70.7399 38.6677 70.552 38.7521 70.3485 38.8083C70.145 38.8646 69.9414 38.8927 69.7222 38.8927C69.3778 38.8927 69.1116 38.8364 68.9081 38.7333C68.7202 38.6302 68.6106 38.4802 68.6106 38.2833C68.6106 38.0958 68.7046 37.9552 68.8925 37.8521C69.0803 37.7489 69.3778 37.6833 69.7692 37.6458C69.8631 37.6364 70.004 37.6271 70.1763 37.6177C70.4581 37.5989 70.646 37.5802 70.7086 37.5708C70.7712 37.5521 70.8182 37.5333 70.8338 37.5146C70.8495 37.4854 70.8651 37.4385 70.8651 37.3542C70.8651 37.251 70.8025 37.176 70.6773 37.1198C70.552 37.0635 70.3641 37.0448 70.1136 37.0448C69.8475 37.0448 69.6596 37.0729 69.5187 37.1385C69.3778 37.2042 69.3152 37.2979 69.3152 37.4198H68.7829V37.401C68.7829 37.1948 68.9081 37.0354 69.143 36.9135C69.3778 36.7917 69.7066 36.7354 70.1293 36.7354C70.5833 36.7354 70.9121 36.7823 71.1313 36.8854C71.3487 36.9885 71.4427 37.1479 71.4427 37.3635V38.3677C71.4427 38.4521 71.4583 38.5083 71.4896 38.5364C71.521 38.5646 71.5836 38.5739 71.6619 38.5739C71.6775 38.5739 71.6932 38.5739 71.7245 38.5739C71.7558 38.5739 71.7715 38.5646 71.8184 38.5646V38.8271C71.7558 38.8364 71.6932 38.8458 71.6306 38.8552C71.5836 38.8552 71.5366 38.8646 71.4896 38.8646C71.3035 38.8646 71.1626 38.8364 71.0687 38.7896C70.9747 38.7427 70.9278 38.6677 70.9121 38.5552ZM70.8651 37.7958C70.7086 37.8427 70.4581 37.8802 70.0823 37.9083C69.9571 37.9177 69.8475 37.9271 69.7849 37.9364C69.5813 37.9552 69.4248 37.9927 69.3465 38.0489C69.2525 38.1052 69.2056 38.1802 69.2056 38.2833C69.2056 38.3864 69.2525 38.4614 69.3621 38.5177C69.4717 38.5739 69.6126 38.6021 69.8162 38.6021C70.1136 38.6021 70.3641 38.5552 70.5677 38.4614C70.7555 38.3677 70.8651 38.2552 70.8651 38.1052V37.7958Z"
            fill="#949699" />
        <path
            d="M75.8717 38.8177V37.5708C75.8717 37.3729 75.8247 37.2323 75.7151 37.1573C75.6055 37.0823 75.4333 37.0448 75.1828 37.0448C74.8697 37.0448 74.6209 37.101 74.4487 37.2042C74.2765 37.3073 74.1825 37.4667 74.1825 37.6646V38.8177H73.6189V36.7917H74.1669V37.0823C74.2921 36.9698 74.4487 36.876 74.6366 36.8198C74.807 36.7635 75.0262 36.7354 75.2611 36.7354C75.5116 36.7354 75.7308 36.7542 75.903 36.801C76.0752 36.8479 76.2161 36.9135 76.31 37.0073C76.357 37.0542 76.404 37.1104 76.4196 37.176C76.4353 37.2417 76.451 37.3448 76.451 37.4948V38.8083L75.8717 38.8177Z"
            fill="#949699" />
        <path
            d="M80.7234 36.801H81.3653L79.9406 39.1364C79.7996 39.3625 79.6744 39.5031 79.5335 39.5687C79.3926 39.6344 79.2047 39.6719 78.9386 39.6719C78.8759 39.6719 78.829 39.6719 78.7663 39.6625C78.7037 39.6531 78.6567 39.6531 78.5941 39.6344V39.3062C78.6567 39.3156 78.7037 39.325 78.7663 39.325C78.829 39.325 78.8759 39.3344 78.9229 39.3344C79.0325 39.3344 79.1264 39.325 79.189 39.2969C79.2517 39.2687 79.3143 39.2312 79.3456 39.175L79.4865 38.9302L78.2027 36.7917H78.8446L79.784 38.4333L80.7234 36.801Z"
            fill="#949699" />
    </g>
    <defs>
        <clipPath id="clip0_665_3352">
            <rect width="82" height="40" fill="white" />
        </clipPath>
    </defs>
</svg>
    