<svg width="134" height="40" viewBox="0 0 134 40" fill="none" xmlns="http://www.w3.org/2000/svg">
    <g clip-path="url(#clip0_665_3353)">
        <path
            d="M29.2729 23.0303C29.5688 22.7194 29.8279 22.4711 30.059 22.2012C33.6118 18.0429 34.588 13.3492 32.5189 8.27773C30.4888 3.29905 26.6251 0.341208 21.2214 0.14042C14.2952 -0.116502 7.34954 0.0583779 0.412507 0.0519009C0.280764 0.0519009 0.149021 0.114512 0 0.153374V39.9072H8.98877V26.543C12.0685 26.543 15.0209 26.4091 17.9538 26.5797C21.1437 26.7632 24.1284 29.7793 24.4697 32.9401C24.5928 34.0758 24.515 35.233 24.5215 36.3794C24.5258 37.5496 24.5215 38.7198 24.5215 39.89H33.4865C33.4865 37.2689 33.5945 34.7235 33.4606 32.1909C33.2705 28.6394 32.5125 25.2713 29.2729 23.0303ZM20.8262 17.3693C16.9301 17.5291 13.0231 17.4147 9.0298 17.4147V9.06145H14.1224C16.1677 9.06145 18.2129 9.03986 20.2582 9.06793C22.5907 9.10247 24.3617 10.793 24.5107 13.0729C24.6468 15.1434 23.014 17.2808 20.8262 17.3693ZM133.855 24.0774C133.518 33.6073 125.543 40.5182 116.001 39.9526C108.034 39.4819 101.481 33.3028 100.479 25.321C100.453 25.1137 100.423 24.9064 100.388 24.6344H77.385V39.8964H68.3466V24.6171H44.1318C44.2549 24.9215 44.3262 25.1828 44.4601 25.4073C46.7645 29.2784 50.2568 31.0164 54.6907 31.0315C57.9605 31.0423 61.2325 31.0337 64.5044 31.0337H65.8456V39.8511C65.7139 39.8878 65.5843 39.9547 65.4526 39.9526C61.0683 39.9461 56.6754 40.0994 52.2999 39.8835C43.378 39.4474 35.4454 31.9945 34.2359 23.1447C32.6744 11.7149 39.97 1.94104 51.3928 0.190078C52.2761 0.0540599 53.1853 0.0454239 54.0816 0.0411058C57.6041 0.0238338 61.1266 0.0346288 64.6491 0.0346288H65.8586V9.06145H64.6535C61.0942 9.06145 57.535 9.03123 53.978 9.07009C49.922 9.11543 46.8358 10.9441 44.6393 14.3143C44.4341 14.6295 44.283 14.9815 44.0238 15.4672C44.5832 15.4953 44.9633 15.5299 45.3412 15.532C52.0882 15.5342 61.2519 15.5147 68.3185 15.5493C68.284 11.2118 68.3099 5.1191 68.3099 1.32572V0.103717H98.2048V9.01611H77.4369V15.532C83.5856 15.532 93.8659 15.5212 100.403 15.545C100.375 11.2421 100.397 5.26591 100.397 1.43583V0.105876H109.353V1.52435C109.353 8.55624 109.358 15.5881 109.353 22.62C109.351 26.0399 110.71 28.7041 113.841 30.2219C118.97 32.7091 124.858 28.9783 124.888 23.2375C124.927 15.9897 124.899 8.74192 124.899 1.49628V0.129625H133.816C133.855 0.285074 133.931 0.451318 133.931 0.617562C133.927 8.4375 134.13 16.2661 133.855 24.0774Z"
            fill="#949699" />
    </g>
    <defs>
        <clipPath id="clip0_665_3353">
            <rect width="134" height="40" fill="white" />
        </clipPath>
    </defs>
</svg>
    