<svg width="40" height="40" viewBox="0 0 40 40" fill="none" xmlns="http://www.w3.org/2000/svg">
    <g clip-path="url(#clip0_665_3354)">
        <path
            d="M13.5371 26.4629C12.5343 25.46 10.9057 25.46 9.9 26.4629C8.89714 27.4657 8.89714 29.0943 9.9 30.1C10.9029 31.1057 12.5314 31.1029 13.5371 30.1C14.54 29.0971 14.54 27.4686 13.5371 26.4629ZM6.80286 25.4657C6.44 24.5914 5.43714 24.1743 4.56286 24.5371C3.68857 24.9 3.27143 25.9029 3.63429 26.7771C3.99714 27.6514 5 28.0686 5.87429 27.7057C6.74857 27.3429 7.16571 26.34 6.80286 25.4657ZM1.14286 18.8571C0.511429 18.8571 0 19.3686 0 20C0 20.6314 0.511429 21.1429 1.14286 21.1429C1.77429 21.1429 2.28571 20.6314 2.28571 20C2.28571 19.3686 1.77429 18.8571 1.14286 18.8571ZM34.1457 7.47143C34.5914 7.02571 34.5914 6.30286 34.1457 5.85429C33.7 5.40857 32.9771 5.40857 32.5286 5.85429C32.0829 6.3 32.0829 7.02286 32.5286 7.47143C32.9743 7.91714 33.6971 7.91714 34.1457 7.47143ZM5.86 32.5229C5.41429 32.9686 5.41429 33.6914 5.86 34.14C6.30571 34.5857 7.02857 34.5857 7.47715 34.14C7.92286 33.6943 7.92286 32.9714 7.47715 32.5229C7.03143 32.0771 6.30857 32.0771 5.86 32.5229ZM10.86 19.9971C10.86 18.5771 9.70857 17.4257 8.28857 17.4257C6.86857 17.4257 5.71714 18.5771 5.71714 19.9971C5.71714 21.4171 6.86857 22.5686 8.28857 22.5686C9.70857 22.5686 10.86 21.4171 10.86 19.9971ZM25.4686 6.8C26.3429 7.16286 27.3457 6.74571 27.7086 5.87143C28.0714 4.99714 27.6543 3.99429 26.78 3.63143C25.9057 3.26857 24.9029 3.68571 24.54 4.56C24.1771 5.43429 24.5943 6.43714 25.4686 6.8ZM26.4657 13.5343C27.4686 14.5371 29.0971 14.5371 30.1029 13.5343C31.1057 12.5314 31.1057 10.9029 30.1029 9.89714C29.1 8.89429 27.4714 8.89429 26.4657 9.89714C25.4629 10.9 25.4629 12.5286 26.4657 13.5343ZM13.5371 13.5343C14.54 12.5314 14.54 10.9029 13.5371 9.89714C12.5343 8.89143 10.9057 8.89429 9.9 9.89714C8.89429 10.9 8.89714 12.5286 9.9 13.5343C10.9029 14.54 12.5314 14.5371 13.5371 13.5343ZM20.0029 2.28571C20.6343 2.28571 21.1457 1.77429 21.1457 1.14286C21.1457 0.511429 20.6343 0 20.0029 0C19.3714 0 18.86 0.511429 18.86 1.14286C18.86 1.77429 19.3714 2.28571 20.0029 2.28571ZM7.47715 7.47143C7.92286 7.02571 7.92286 6.30286 7.47715 5.85429C7.03143 5.40571 6.30857 5.40857 5.86 5.85429C5.41429 6.3 5.41429 7.02286 5.86 7.47143C6.30571 7.91714 7.02857 7.91714 7.47715 7.47143ZM4.56571 15.4571C5.44 15.82 6.44286 15.4029 6.80571 14.5286C7.16857 13.6543 6.75143 12.6514 5.87714 12.2886C5.00286 11.9257 4 12.3429 3.63714 13.2171C3.27429 14.0914 3.69143 15.0943 4.56571 15.4571ZM32.5286 32.5229C32.0829 32.9686 32.0829 33.6914 32.5286 34.14C32.9743 34.5857 33.6971 34.5857 34.1457 34.14C34.5914 33.6943 34.5914 32.9714 34.1457 32.5229C33.7 32.0771 32.9771 32.0771 32.5286 32.5229ZM35.44 24.5371C34.5657 24.1743 33.5629 24.5914 33.2 25.4657C32.8371 26.34 33.2543 27.3429 34.1286 27.7057C35.0029 28.0686 36.0057 27.6514 36.3686 26.7771C36.7314 25.9029 36.3143 24.9 35.44 24.5371ZM14.5343 33.1971C13.66 32.8343 12.6571 33.2514 12.2943 34.1257C11.9314 35 12.3486 36.0029 13.2229 36.3657C14.0971 36.7286 15.1 36.3114 15.4629 35.4371C15.8257 34.5629 15.4086 33.56 14.5343 33.1971ZM34.2857 20C34.2857 18.58 33.1343 17.4286 31.7143 17.4286C30.2943 17.4286 29.1429 18.58 29.1429 20C29.1429 21.42 30.2943 22.5714 31.7143 22.5714C33.1343 22.5714 34.2857 21.42 34.2857 20ZM38.8571 18.8571C38.2257 18.8571 37.7143 19.3686 37.7143 20C37.7143 20.6314 38.2257 21.1429 38.8571 21.1429C39.4886 21.1429 40 20.6314 40 20C40 19.3686 39.4886 18.8571 38.8571 18.8571ZM34.1257 12.2943C33.2514 12.6571 32.8343 13.66 33.1971 14.5343C33.56 15.4086 34.5629 15.8257 35.4371 15.4629C36.3114 15.1 36.7286 14.0971 36.3657 13.2229C36.0029 12.3486 35 11.9314 34.1257 12.2943ZM26.4657 26.4657C25.4629 27.4686 25.4629 29.0971 26.4657 30.1029C27.4686 31.1057 29.0971 31.1057 30.1029 30.1029C31.1057 29.1 31.1057 27.4714 30.1029 26.4657C29.1 25.4629 27.4714 25.4629 26.4657 26.4657ZM20 37.7143C19.3686 37.7143 18.8571 38.2257 18.8571 38.8571C18.8571 39.4886 19.3686 40 20 40C20.6314 40 21.1429 39.4886 21.1429 38.8571C21.1429 38.2257 20.6314 37.7143 20 37.7143ZM13.2229 3.63143C12.3486 3.99429 11.9314 4.99714 12.2943 5.87143C12.6571 6.74571 13.66 7.16286 14.5343 6.8C15.4086 6.43714 15.8257 5.43429 15.4629 4.56C15.1 3.68571 14.0971 3.26857 13.2229 3.63143ZM20.0029 29.14C18.5829 29.14 17.4314 30.2914 17.4314 31.7114C17.4314 33.1314 18.5829 34.2829 20.0029 34.2829C21.4229 34.2829 22.5743 33.1314 22.5743 31.7114C22.5743 30.2914 21.4229 29.14 20.0029 29.14ZM20.0029 5.71143C18.5829 5.71143 17.4314 6.86286 17.4314 8.28286C17.4314 9.70286 18.5829 10.8543 20.0029 10.8543C21.4229 10.8543 22.5743 9.70286 22.5743 8.28286C22.5743 6.86286 21.4229 5.71143 20.0029 5.71143ZM25.4686 33.1943C24.5943 33.5571 24.1771 34.56 24.54 35.4343C24.9029 36.3086 25.9057 36.7257 26.78 36.3629C27.6543 36 28.0714 34.9971 27.7086 34.1229C27.3457 33.2486 26.3429 32.8314 25.4686 33.1943Z"
            fill="#949699" />
    </g>
    <defs>
        <clipPath id="clip0_665_3354">
            <rect width="40" height="40" fill="white" />
        </clipPath>
    </defs>
</svg>
    