<svg width="173" height="40" viewBox="0 0 173 40" fill="none" xmlns="http://www.w3.org/2000/svg">
    <g clip-path="url(#clip0_665_3357)">
        <mask id="mask0_665_3357" style="mask-type:luminance" maskUnits="userSpaceOnUse" x="0" y="0"
            width="173" height="40">
            <path d="M0.5 0H172.5V40H0.5V0Z" fill="white" />
        </mask>
        <g mask="url(#mask0_665_3357)">
            <path
                d="M164.558 33.5039C164.73 33.7026 164.82 33.9596 164.808 34.2223V34.3337H162.871C162.897 34.0386 163.013 33.7585 163.202 33.5309C163.287 33.4382 163.392 33.3652 163.508 33.3167C163.624 33.2682 163.749 33.2454 163.874 33.25C164 33.2422 164.126 33.2607 164.244 33.3046C164.361 33.3484 164.469 33.4166 164.559 33.5046M165.219 37.2854C165.558 37.1347 165.851 36.8963 166.068 36.5947L165.383 35.8284C165.236 36.0193 165.045 36.172 164.826 36.2735C164.607 36.3751 164.367 36.4225 164.126 36.4117C163.811 36.423 163.503 36.3128 163.266 36.1039C163.036 35.8892 162.892 35.5981 162.861 35.2849H166.18V34.7158C166.225 34.0237 166.005 33.3404 165.565 32.8038C165.351 32.576 165.089 32.3976 164.798 32.2811C164.507 32.1645 164.195 32.1125 163.882 32.1286C163.435 32.1213 162.995 32.2381 162.611 32.4662C162.237 32.6924 161.938 33.0237 161.752 33.4188C161.543 33.8574 161.439 34.3383 161.448 34.8238V34.9588C161.432 35.304 161.488 35.6487 161.612 35.9711C161.736 36.2936 161.925 36.5868 162.168 36.8323C162.417 37.0686 162.71 37.2526 163.031 37.3735C163.352 37.4943 163.693 37.5495 164.036 37.5358C164.444 37.5412 164.849 37.4564 165.221 37.2874M157.909 36.0593C157.717 35.7053 157.631 35.303 157.663 34.9014V34.7576C157.632 34.358 157.718 33.958 157.911 33.6065C157.991 33.505 158.092 33.4213 158.206 33.3607C158.32 33.3001 158.446 33.264 158.575 33.2546C158.704 33.2452 158.833 33.2627 158.955 33.3061C159.077 33.3495 159.189 33.4178 159.283 33.5066C159.447 33.687 159.537 33.9235 159.533 34.1676H160.839C160.848 33.8924 160.8 33.6184 160.696 33.3631C160.593 33.1079 160.438 32.8771 160.24 32.6856C159.81 32.3015 159.247 32.1016 158.671 32.1293C158.343 32.1131 158.016 32.1691 157.713 32.2932C157.409 32.4173 157.137 32.6066 156.915 32.8477C156.467 33.3848 156.238 34.0709 156.275 34.7691V34.8609C156.233 35.5735 156.463 36.2753 156.92 36.8242C157.144 37.0634 157.419 37.2507 157.723 37.3734C158.028 37.496 158.355 37.551 158.683 37.5345C159.061 37.5391 159.434 37.4557 159.774 37.2907C160.092 37.1392 160.362 36.9025 160.553 36.6068C160.741 36.3177 160.841 35.9806 160.842 35.636H159.535C159.536 35.7423 159.515 35.8475 159.471 35.9447C159.428 36.0418 159.365 36.1285 159.285 36.1991C159.11 36.3457 158.887 36.4214 158.659 36.4111C158.514 36.4207 158.37 36.3934 158.239 36.3318C158.109 36.2701 157.996 36.1761 157.912 36.0586M150.935 32.2252V37.4366H152.328V33.7638C152.413 33.6067 152.54 33.4764 152.695 33.3879C152.85 33.2994 153.027 33.2561 153.206 33.2629C153.321 33.2521 153.437 33.2644 153.547 33.2992C153.657 33.334 153.759 33.3905 153.847 33.4654C153.992 33.6474 154.06 33.8776 154.04 34.1088V37.442H155.432V34.0751C155.465 33.5571 155.319 33.0436 155.018 32.6208C154.863 32.4512 154.671 32.3191 154.458 32.2347C154.244 32.1502 154.014 32.1156 153.785 32.1334C153.497 32.1233 153.212 32.1814 152.952 32.3029C152.691 32.4243 152.463 32.6057 152.287 32.8321L152.243 32.2306L150.935 32.2252ZM148.555 33.5079C148.727 33.707 148.816 33.9638 148.805 34.2263V34.3377H146.869C146.894 34.0427 147.009 33.7625 147.198 33.535C147.284 33.4419 147.389 33.3686 147.505 33.3201C147.622 33.2716 147.748 33.249 147.874 33.2541C147.999 33.2462 148.125 33.2648 148.243 33.3086C148.361 33.3525 148.469 33.4206 148.559 33.5086M149.218 37.2894C149.557 37.1388 149.85 36.9003 150.067 36.5987L149.383 35.8325C149.235 36.0235 149.044 36.1761 148.825 36.2777C148.606 36.3792 148.366 36.4266 148.124 36.4158C147.809 36.4269 147.501 36.3167 147.264 36.1079C147.034 35.8933 146.89 35.6021 146.859 35.289H150.178V34.7198C150.223 34.0278 150.004 33.3446 149.564 32.8078C149.349 32.58 149.087 32.4016 148.796 32.285C148.506 32.1684 148.193 32.1164 147.88 32.1327C147.434 32.1254 146.994 32.2423 146.61 32.4703C146.236 32.6965 145.937 33.0278 145.751 33.4229C145.542 33.8616 145.438 34.3424 145.447 34.8279V34.9629C145.431 35.308 145.486 35.6527 145.61 35.9752C145.734 36.2976 145.924 36.5909 146.167 36.8364C146.416 37.0726 146.709 37.2565 147.03 37.3774C147.35 37.4982 147.692 37.5535 148.035 37.5399C148.443 37.5454 148.848 37.4605 149.22 37.2914M145.076 32.1982C144.936 32.1555 144.79 32.1341 144.644 32.1347C144.402 32.1338 144.165 32.2007 143.96 32.3277C143.755 32.4547 143.589 32.6367 143.482 32.8531L143.444 32.2313H142.128V37.4427H143.521V34.0325C143.618 33.8483 143.769 33.6983 143.955 33.6027C144.14 33.5071 144.35 33.4705 144.557 33.4978C144.724 33.4996 144.892 33.5124 145.058 33.5363L145.076 32.1982ZM139.719 33.512C139.89 33.7111 139.98 33.9679 139.969 34.2303V34.3418H138.033C138.058 34.0468 138.173 33.7666 138.362 33.539C138.448 33.446 138.552 33.3726 138.669 33.3241C138.785 33.2756 138.911 33.2531 139.037 33.2581C139.163 33.2502 139.289 33.2688 139.407 33.3127C139.525 33.3565 139.632 33.4247 139.722 33.5127M140.383 37.2935C140.722 37.1424 141.014 36.904 141.23 36.6028L140.546 35.8365C140.399 36.0276 140.207 36.1803 139.988 36.2819C139.769 36.3834 139.529 36.4307 139.288 36.4198C138.973 36.4312 138.665 36.321 138.428 36.112C138.198 35.8975 138.054 35.6063 138.023 35.293H141.342V34.7239C141.387 34.0318 141.168 33.3486 140.729 32.8119C140.514 32.584 140.252 32.4056 139.961 32.289C139.67 32.1724 139.357 32.1205 139.044 32.1368C138.598 32.1294 138.158 32.2463 137.774 32.4743C137.397 32.6955 137.093 33.0228 136.901 33.4155C136.693 33.8542 136.589 34.335 136.597 34.8204V34.9555C136.581 35.3006 136.637 35.6453 136.761 35.9677C136.885 36.2902 137.075 36.5835 137.318 36.829C137.566 37.0652 137.86 37.2491 138.18 37.37C138.501 37.4908 138.843 37.5461 139.185 37.5325C139.594 37.5378 139.999 37.4529 140.371 37.284M135.143 37.4359V33.2453H136.179V32.2245H135.145V31.8059C135.145 31.3144 135.407 31.0687 135.931 31.0687C136.073 31.0661 136.215 31.0806 136.354 31.1119L136.369 30.0317C136.137 29.9738 135.9 29.9417 135.661 29.9358C135.145 29.904 134.638 30.0779 134.251 30.4192C134.078 30.5988 133.943 30.8125 133.856 31.0468C133.77 31.2812 133.733 31.5309 133.748 31.7803V32.2232H132.973V33.244H133.748V37.4346L135.143 37.4359ZM131.606 37.4359V33.2453H132.642V32.2245H131.606V31.8059C131.606 31.3144 131.868 31.0687 132.392 31.0687C132.534 31.0662 132.676 31.0807 132.815 31.1119L132.83 30.0317C132.598 29.9738 132.361 29.9417 132.122 29.9358C131.606 29.904 131.1 30.0779 130.712 30.4192C130.539 30.5988 130.404 30.8125 130.318 31.0468C130.231 31.2812 130.194 31.5309 130.209 31.7803V32.2232H129.434V33.244H130.209V37.4346L131.606 37.4359ZM127.419 31.3954C127.579 31.5261 127.779 31.5976 127.986 31.5976C128.192 31.5976 128.392 31.5261 128.552 31.3954C128.688 31.2576 128.765 31.0715 128.765 30.8776C128.765 30.6837 128.688 30.4976 128.552 30.3598C128.391 30.229 128.19 30.1577 127.982 30.1577C127.775 30.1577 127.574 30.229 127.413 30.3598C127.278 30.499 127.204 30.6852 127.205 30.8786C127.205 31.072 127.282 31.2574 127.417 31.3954M128.682 32.2238H127.285V37.4352H128.682V32.2238ZM123.05 31.5926C123.294 31.5769 123.538 31.6186 123.763 31.7144C123.988 31.8102 124.188 31.9574 124.346 32.1442C124.673 32.6185 124.829 33.1898 124.789 33.7645V34.1345C124.82 34.6993 124.659 35.2581 124.332 35.7197C124.173 35.9066 123.974 36.0539 123.749 36.1501C123.524 36.2462 123.279 36.2884 123.035 36.2733H122.337V31.5912L123.05 31.5926ZM123.063 37.4359C123.642 37.4419 124.212 37.296 124.716 37.0126C125.2 36.7369 125.594 36.3268 125.85 35.8318C126.127 35.2946 126.266 34.6973 126.256 34.0933V33.7699C126.266 33.163 126.125 32.5631 125.846 32.024C125.588 31.5278 125.192 31.1165 124.706 30.8391C124.201 30.5569 123.63 30.4132 123.052 30.4226H120.891V37.4352L123.063 37.4359ZM114.846 37.3272C114.757 37.5692 114.636 37.7981 114.486 38.0078C114.323 38.2455 114.142 38.4711 113.946 38.6829C113.773 38.8744 113.581 39.0479 113.373 39.2007C113.24 39.3154 113.075 39.3876 112.9 39.408C112.859 39.4103 112.819 39.4009 112.783 39.3808C112.747 39.3607 112.717 39.3308 112.698 39.2946C112.652 39.2116 112.61 39.1259 112.574 39.038C112.537 38.9452 112.485 38.8587 112.422 38.7815C112.385 38.7416 112.34 38.7106 112.289 38.6909C112.239 38.6712 112.185 38.6634 112.131 38.668C112.062 38.6656 111.994 38.6779 111.931 38.7042C111.868 38.7306 111.811 38.7703 111.765 38.8206C111.671 38.9319 111.623 39.0748 111.63 39.2203C111.629 39.3243 111.65 39.4273 111.691 39.5225C111.733 39.6178 111.795 39.703 111.872 39.7726C112.053 39.9307 112.288 40.0121 112.528 39.9994C112.965 39.9744 113.382 39.8102 113.718 39.5309C114.243 39.1144 114.71 38.6281 115.104 38.0854C115.449 37.6418 115.769 37.179 116.061 36.6993C116.371 36.1961 116.644 35.7028 116.88 35.2194C117.099 34.7797 117.291 34.3267 117.453 33.8631C117.58 33.5317 117.654 33.182 117.671 32.8274C117.674 32.6525 117.634 32.4794 117.552 32.3244C117.517 32.256 117.464 32.1991 117.397 32.1606C117.33 32.1222 117.254 32.1038 117.177 32.1077C117.035 32.1122 116.901 32.1726 116.803 32.2758C116.739 32.346 116.69 32.4286 116.659 32.5186C116.629 32.6085 116.617 32.7037 116.625 32.7984C116.625 32.8578 116.629 32.9334 116.635 33.03C116.641 33.1265 116.65 33.2264 116.66 33.3311C116.67 33.4357 116.679 33.5403 116.685 33.6416C116.691 33.7429 116.695 33.828 116.695 33.8935C116.693 34.1093 116.66 34.3236 116.597 34.5301C116.53 34.7604 116.444 34.9846 116.34 35.2005C116.237 35.4182 116.12 35.6291 115.99 35.8318C115.872 36.0183 115.745 36.1986 115.609 36.3719H115.57L115.232 34.7833C115.142 34.3363 115.049 33.94 114.952 33.5944C114.857 33.2494 114.769 32.9719 114.69 32.7606C114.633 32.5741 114.541 32.4 114.42 32.2475C114.379 32.2038 114.329 32.1693 114.274 32.1461C114.219 32.1228 114.159 32.1114 114.099 32.1124C113.942 32.1171 113.79 32.1706 113.665 32.2657C113.504 32.3853 113.366 32.5323 113.256 32.6998C113.115 32.9093 112.996 33.1323 112.9 33.3655C112.788 33.6364 112.7 33.9171 112.639 34.204L113.004 34.3026C113.074 33.9944 113.179 33.6951 113.315 33.4101C113.418 33.2228 113.53 33.1292 113.653 33.1292C113.775 33.1292 113.888 33.2327 113.99 33.4398C114.145 33.7977 114.252 34.1739 114.311 34.5591L114.846 37.3272ZM108.669 36.222C108.671 35.9625 108.704 35.7041 108.767 35.4523C108.835 35.1774 108.925 34.9084 109.037 34.6483C109.151 34.386 109.282 34.1322 109.432 33.8887C109.57 33.6632 109.725 33.4488 109.896 33.2473C110.039 33.0767 110.205 32.9271 110.389 32.8031C110.527 32.705 110.69 32.6484 110.858 32.6404C110.936 32.6423 111.013 32.6642 111.08 32.7039C111.147 32.7436 111.204 32.7998 111.243 32.8672C111.354 33.0371 111.409 33.2372 111.401 33.4398C111.399 33.7012 111.364 33.9613 111.298 34.2142C111.229 34.4907 111.138 34.7615 111.028 35.0243C110.917 35.2894 110.785 35.545 110.633 35.7886C110.495 36.0159 110.337 36.2305 110.161 36.43C110.014 36.5991 109.845 36.7468 109.657 36.8688C109.515 36.968 109.347 37.0245 109.174 37.0315C108.838 37.0315 108.671 36.7615 108.671 36.2213M110.723 29.2566L108.829 29.3457L108.74 29.6414C109.247 29.6414 109.5 29.7569 109.5 29.9864C109.495 30.0781 109.478 30.1688 109.451 30.2565C109.418 30.3787 109.383 30.4982 109.352 30.6163L108.158 34.4646C108.02 34.8985 107.915 35.2716 107.842 35.584C107.78 35.8212 107.744 36.0643 107.733 36.3091C107.727 36.4734 107.756 36.6371 107.818 36.7893C107.88 36.9416 107.974 37.0789 108.093 37.1922C108.344 37.4219 108.676 37.5433 109.016 37.5298C109.292 37.527 109.566 37.4702 109.82 37.3623C110.1 37.2468 110.363 37.0925 110.6 36.9039C110.855 36.7022 111.088 36.4741 111.295 36.2234C111.512 35.965 111.702 35.6857 111.862 35.3896C112.023 35.0956 112.151 34.7844 112.243 34.4619C112.332 34.1548 112.377 33.8366 112.378 33.5167C112.399 33.1463 112.283 32.7812 112.052 32.4905C111.935 32.363 111.791 32.2632 111.631 32.1984C111.471 32.1336 111.298 32.1054 111.125 32.1158C110.803 32.1157 110.488 32.2027 110.212 32.3676C109.92 32.5417 109.675 32.7837 109.497 33.0732L109.467 33.0536L110.723 29.2566ZM101.164 33.3891C101.279 33.2259 101.432 33.0941 101.611 33.0056C101.789 32.9171 101.987 32.8749 102.187 32.8828C102.441 32.8733 102.692 32.938 102.91 33.0689C103.129 33.1998 103.304 33.3913 103.415 33.62V36.0141C103.308 36.2498 103.133 36.4481 102.912 36.5836C102.691 36.7192 102.435 36.7858 102.176 36.775C101.979 36.7824 101.783 36.7404 101.606 36.653C101.429 36.5655 101.277 36.4352 101.163 36.274C100.897 35.8622 100.769 35.3766 100.797 34.8873C100.762 34.3623 100.89 33.8391 101.163 33.3898M99.9059 34.8535C99.8738 35.5447 100.075 36.2267 100.477 36.7898C100.645 37.0237 100.867 37.2135 101.124 37.3429C101.381 37.4722 101.666 37.5373 101.954 37.5325C102.235 37.5462 102.516 37.4942 102.774 37.3805C103.032 37.2668 103.26 37.0946 103.439 36.8776L103.483 37.4359H104.302V30.0364H103.41V32.7511C103.221 32.5451 102.99 32.3824 102.732 32.2744C102.474 32.1664 102.196 32.1155 101.917 32.1253C101.637 32.1351 101.363 32.2054 101.114 32.3313C100.864 32.4571 100.645 32.6356 100.471 32.8544C100.068 33.4149 99.868 34.095 99.9019 34.784L99.9059 34.8535ZM97.8339 33.2332C98.0712 33.5327 98.2002 33.9036 98.2 34.2857V34.3532H95.589C95.6193 33.9474 95.7781 33.5617 96.0422 33.2521C96.1563 33.1257 96.2962 33.0254 96.4524 32.9578C96.6087 32.8903 96.7776 32.8571 96.9478 32.8605C97.114 32.8528 97.2797 32.8823 97.433 32.9467C97.5863 33.0112 97.7233 33.1091 97.8339 33.2332ZM99.0239 36.5252L98.4802 36.1018C98.3237 36.3071 98.129 36.4801 97.9068 36.6116C97.6622 36.7465 97.3858 36.8132 97.1065 36.8046C96.9005 36.8102 96.6956 36.7709 96.5063 36.6892C96.317 36.6076 96.1478 36.4857 96.0104 36.3321C95.7122 35.9861 95.5521 35.5424 95.5606 35.0857H99.0921V34.7151C99.1372 34.0295 98.9371 33.3502 98.5275 32.7984C98.3326 32.5738 98.089 32.3967 97.8152 32.2807C97.5415 32.1646 97.2448 32.1126 96.9478 32.1286C96.5375 32.1278 96.1358 32.2475 95.793 32.473C95.4329 32.7076 95.1451 33.0376 94.9616 33.4263C94.7577 33.8589 94.656 34.3327 94.6645 34.811V34.975C94.6477 35.3138 94.6977 35.6525 94.8119 35.9718C94.926 36.2912 95.102 36.585 95.3297 36.8364C95.5521 37.0673 95.8207 37.2486 96.1181 37.3684C96.4155 37.4883 96.7348 37.544 97.0552 37.5318C97.4429 37.5535 97.8293 37.4716 98.1748 37.2945C98.5203 37.1175 98.8125 36.8517 99.0212 36.5245M94.1654 32.1948C94.0401 32.1431 93.9049 32.12 93.7696 32.1273C93.5185 32.1205 93.2703 32.1818 93.0513 32.3049C92.8324 32.4279 92.6509 32.6081 92.5263 32.8261L92.5121 32.2245H91.6449V37.4359H92.5364V33.7368C92.6279 33.5009 92.7932 33.3008 93.0076 33.1663C93.222 33.0317 93.474 32.9699 93.7264 32.9901C93.8734 32.9894 94.0203 33.0009 94.1654 33.0245V32.1948ZM89.3555 33.2325C89.5933 33.5318 89.7228 33.9028 89.7229 34.285V34.3525H87.1106C87.1409 33.9467 87.2996 33.5611 87.5637 33.2514C87.6778 33.1251 87.8177 33.0247 87.974 32.9572C88.1302 32.8896 88.2992 32.8564 88.4694 32.8598C88.6355 32.8522 88.8012 32.8817 88.9545 32.9461C89.1078 33.0106 89.2448 33.1084 89.3555 33.2325ZM90.5468 36.5245L90.0018 36.1012C89.8453 36.3064 89.6505 36.4795 89.4284 36.6109C89.1838 36.7458 88.9074 36.8125 88.6281 36.804C88.422 36.8096 88.2172 36.7702 88.0279 36.6886C87.8386 36.607 87.6694 36.4851 87.532 36.3314C87.2339 35.9854 87.0738 35.5417 87.0822 35.0851H90.6136V34.7144C90.6586 34.029 90.4591 33.3499 90.0504 32.7977C89.8551 32.5733 89.6112 32.3964 89.3373 32.2804C89.0633 32.1644 88.7665 32.1122 88.4694 32.128C88.0594 32.1269 87.6582 32.2467 87.3159 32.4723C86.9565 32.7072 86.6695 33.0375 86.4872 33.4263C86.2837 33.8591 86.182 34.3328 86.1901 34.811V34.975C86.1733 35.3138 86.2234 35.6525 86.3375 35.9718C86.4517 36.2912 86.6276 36.585 86.8553 36.8364C87.0775 37.0674 87.3461 37.2488 87.6433 37.3689C87.9406 37.4889 88.2598 37.5449 88.5802 37.5331C88.9679 37.5546 89.3543 37.4727 89.6999 37.2957C90.0455 37.1187 90.3378 36.853 90.5468 36.5258M82.379 32.2245H81.6618L80.4461 36.1262L79.4196 32.2245H78.5336L80.0463 37.4359H80.769L82.0022 33.4857L83.2705 37.4359H83.9931L85.5107 32.2245H84.6192L83.6163 36.2078L82.379 32.2245ZM74.4382 33.3857C74.5602 33.2191 74.7208 33.0844 74.9061 32.9931C75.0914 32.9017 75.296 32.8565 75.5025 32.8612C75.7123 32.8557 75.9202 32.9013 76.1085 32.994C76.2967 33.0866 76.4596 33.2236 76.5831 33.3932C76.8692 33.7985 77.0118 34.2877 76.9883 34.7833C77.0201 35.3104 76.8798 35.8335 76.5885 36.274C76.4618 36.4392 76.2988 36.5731 76.1122 36.6655C75.9256 36.7579 75.7202 36.8063 75.512 36.8069C75.3037 36.8076 75.0981 36.7605 74.9109 36.6693C74.7237 36.578 74.5599 36.4451 74.4321 36.2808C74.1456 35.8749 74.0029 35.3848 74.0269 34.8886C73.9929 34.357 74.1354 33.8289 74.4321 33.3864M73.1314 34.8454C73.0968 35.5553 73.3315 36.2521 73.7885 36.7966C74.003 37.0382 74.2682 37.2295 74.5652 37.3568C74.8622 37.4842 75.1836 37.5444 75.5066 37.5331C75.9454 37.5413 76.3774 37.4242 76.752 37.1956C77.116 36.9682 77.4058 36.6398 77.586 36.2504C77.7861 35.8235 77.8861 35.3566 77.8784 34.8852V34.8231C77.913 34.1109 77.6779 33.4119 77.22 32.8652C77.0049 32.623 76.7389 32.4313 76.4411 32.3039C76.1432 32.1764 75.8209 32.1164 75.4971 32.128C75.0654 32.1208 74.6404 32.2359 74.2714 32.4601C73.9074 32.6888 73.6163 33.0168 73.4326 33.4053C73.2271 33.8353 73.124 34.3069 73.1314 34.7833V34.8454ZM68.2688 31.1794H69.9842C70.3826 31.1659 70.7709 31.3062 71.0688 31.571C71.2016 31.701 71.3055 31.8575 71.3736 32.0304C71.4417 32.2033 71.4724 32.3886 71.4639 32.5742C71.4762 32.7617 71.4473 32.9495 71.379 33.1245C71.3107 33.2995 71.2048 33.4573 71.0688 33.5869C70.7459 33.8393 70.3411 33.9636 69.9322 33.936H68.2695L68.2688 31.1794ZM69.9214 34.6901C70.5777 34.7339 71.2277 34.5379 71.7503 34.1385C71.9673 33.9407 72.1373 33.6968 72.2478 33.4247C72.3582 33.1526 72.4063 32.8592 72.3885 32.5661C72.3997 32.2753 72.3471 31.9856 72.2342 31.7173C72.1214 31.449 71.9511 31.2087 71.7354 31.0133C71.2299 30.5966 70.5855 30.3865 69.9315 30.4253H67.3442V37.4379H68.2688V34.6928L69.9214 34.6901Z"
                fill="#949699" />
            <path
                d="M35.2674 12.5191C35.229 12.3886 35.1839 12.2601 35.1323 12.1343C35.026 11.8727 34.8956 11.6215 34.7426 11.3842C34.6212 11.1964 34.4886 11.016 34.3455 10.8441C34.141 10.5974 33.9199 10.3651 33.6837 10.1487C33.5 9.97898 33.303 9.8129 33.0927 9.65041C32.8825 9.48793 32.6596 9.3304 32.4241 9.17782L32.2823 9.086C32.2413 9.05994 32.195 9.04329 32.1468 9.03723C32.0986 9.03118 32.0497 9.03587 32.0035 9.05098C31.9574 9.06608 31.9151 9.09122 31.8798 9.12459C31.8445 9.15796 31.8171 9.19874 31.7994 9.24398C31.3211 10.548 30.7008 11.7956 29.9496 12.964C29.8404 13.1254 29.7822 13.316 29.7828 13.5109C29.7828 15.7071 27.779 17.6474 24.7176 18.8161C24.1847 19.0187 23.6414 19.1926 23.09 19.3373C22.2607 19.5541 21.4178 19.7147 20.5669 19.818C20.0716 19.8792 19.5642 19.9229 19.0446 19.949C18.6844 19.967 18.3215 19.9762 17.9559 19.9767C15.201 20.0241 12.4713 19.4449 9.97322 18.2828C9.93195 18.2631 9.88636 18.2542 9.84073 18.257C9.79509 18.2598 9.75091 18.2741 9.71231 18.2985C9.67371 18.323 9.64196 18.3569 9.62003 18.397C9.5981 18.4371 9.5867 18.4821 9.58692 18.5278C9.59299 18.7835 9.61284 19.0386 9.64635 19.2921C9.6885 19.6111 9.82971 19.909 10.0501 20.1436C10.2705 20.3782 10.5589 20.5378 10.8748 20.5998C12.8197 20.9769 14.7923 21.1934 16.7727 21.2473C17.164 21.259 17.5584 21.2651 17.9559 21.2655C18.1189 21.2655 18.2815 21.2655 18.4436 21.2655C19.3533 21.254 20.2454 21.2122 21.1146 21.1413C21.5743 21.1039 22.0272 21.0589 22.4734 21.0063C29.9219 20.1218 35.4079 17.1033 35.4079 13.5122C35.4074 13.178 35.3601 12.8456 35.2674 12.5245"
                fill="#949699" />
            <path
                d="M5.90289 14.3434C6.04937 14.0897 6.12604 13.8018 6.12508 13.5089V13.5048C6.12508 13.3932 6.13026 13.2823 6.14061 13.172C6.15097 13.0617 6.16628 12.9521 6.18654 12.8432C6.23803 12.5688 6.3191 12.3008 6.42831 12.0438C6.47334 11.9399 6.52196 11.8366 6.57419 11.7339C6.60076 11.6826 6.62844 11.6318 6.65726 11.5814C6.71489 11.4801 6.7768 11.38 6.84298 11.2809C6.8763 11.2314 6.91052 11.1821 6.94564 11.1331C7.16694 10.8278 7.41609 10.5437 7.68988 10.2844C7.73716 10.2394 7.78556 10.1944 7.83508 10.1494C8.20108 9.82422 8.59397 9.53061 9.00953 9.27171C9.07166 9.23256 9.13447 9.19385 9.19795 9.15559C9.32537 9.07907 9.45594 9.00413 9.58966 8.93077C10.1063 8.65053 10.6412 8.40558 11.1909 8.19757C11.7238 7.99505 12.2671 7.82106 12.8185 7.67636C13.6478 7.45949 14.4908 7.29889 15.3417 7.19566C15.8369 7.1349 16.3444 7.09124 16.8639 7.06468C17.2241 7.04668 17.5868 7.03745 17.9519 7.037C20.6367 6.99446 23.298 7.54136 25.7483 8.63911C25.792 8.66055 25.8405 8.67057 25.8891 8.66823C25.9378 8.66588 25.9851 8.65125 26.0265 8.6257C26.068 8.60015 26.1023 8.56451 26.1263 8.52211C26.1503 8.47971 26.1631 8.43193 26.1636 8.38323C26.1697 7.91422 26.1182 7.44623 26.0103 6.98974C25.9821 6.87326 25.9215 6.76712 25.8356 6.68352C25.7497 6.59991 25.642 6.54224 25.5247 6.51715H25.5207C23.4205 6.07642 21.285 5.82561 19.1399 5.76774C18.7486 5.75604 18.354 5.74996 17.956 5.74951C17.793 5.74951 17.6305 5.74951 17.4684 5.74951C16.5587 5.76099 15.6672 5.80285 14.7973 5.87374C14.3376 5.91109 13.8847 5.9561 13.4385 6.00876C12.3796 6.13434 11.3604 6.30313 10.3906 6.51039C10.1363 6.56485 9.88547 6.62202 9.63829 6.68188C9.26729 6.7719 8.90462 6.86709 8.55029 6.96746C8.31436 7.03453 8.08226 7.10429 7.85399 7.17676C7.28399 7.35679 6.7401 7.55146 6.22233 7.76075C6.01567 7.84447 5.81306 7.92999 5.61451 8.01731C5.31825 8.14873 5.03303 8.28489 4.75883 8.42577C4.57603 8.51939 4.39819 8.61503 4.2253 8.7127C4.13885 8.76131 4.05376 8.8106 3.97001 8.86056C3.80252 8.96003 3.64044 9.0613 3.48376 9.16437C3.24873 9.3192 3.02586 9.47673 2.81515 9.63697C2.60444 9.7972 2.40724 9.96328 2.22354 10.1352C1.98731 10.3517 1.76618 10.584 1.56169 10.8306C1.41861 11.0025 1.286 11.1829 1.16458 11.3707C1.00941 11.6114 0.877352 11.8661 0.77017 12.1316C0.71849 12.2575 0.673405 12.3859 0.635099 12.5164C0.544191 12.8378 0.498726 13.1702 0.500027 13.5042C0.500027 15.2305 1.7697 16.8252 3.91666 18.1133C3.94637 18.1312 3.97964 18.1423 4.01411 18.1458C4.04859 18.1493 4.08341 18.1452 4.11611 18.1337C4.1488 18.1222 4.17857 18.1037 4.20328 18.0794C4.22799 18.0551 4.24703 18.0257 4.25907 17.9932C4.71527 16.7373 5.26474 15.5173 5.90289 14.3434Z"
                fill="#949699" />
            <path
                d="M20.1354 4.51674L20.2131 4.48974C20.3407 4.4472 20.4684 4.40737 20.5946 4.36956L20.702 4.3385C20.8047 4.30925 20.9067 4.28157 21.008 4.25546L21.0991 4.23183C21.2239 4.20123 21.3475 4.17332 21.4699 4.14812L21.5624 4.12989C21.6624 4.11008 21.7617 4.0923 21.8603 4.07655L21.9548 4.06102C22.0757 4.04279 22.1959 4.02659 22.3148 4.01376L22.3857 4.00701C22.4852 3.99711 22.584 3.98923 22.6822 3.98338L22.7754 3.97798C22.8875 3.97258 22.9989 3.9692 23.109 3.9692H23.1556C23.2623 3.9692 23.367 3.97393 23.471 3.97933L23.5385 3.98271C23.6479 3.98991 23.7558 4.00003 23.862 4.01309L23.9201 4.02119C24.0192 4.03469 24.1169 4.05045 24.2132 4.06845L24.2504 4.0752C24.3537 4.09545 24.453 4.12043 24.5549 4.14676L24.6171 4.16364C24.717 4.192 24.8197 4.22238 24.9129 4.25681L24.923 4.26086C25.0162 4.29462 25.1074 4.33243 25.1965 4.37226L25.2512 4.39657C25.3413 4.43798 25.4286 4.48298 25.5133 4.53159L25.5565 4.55657C25.6339 4.60158 25.7096 4.64884 25.7834 4.69835L25.8206 4.72333C25.9003 4.77802 25.9766 4.83676 26.0515 4.8982L26.1008 4.93938C26.1765 5.00352 26.2501 5.06968 26.321 5.14192C26.5848 5.4079 26.8062 5.71279 26.9775 6.04593C27.1281 6.33694 27.2446 6.64436 27.3246 6.9621C27.4654 7.53797 27.5183 8.13185 27.4813 8.72354C27.4665 8.99667 27.4378 9.26887 27.3955 9.53911C27.3955 9.55936 27.3881 9.57961 27.3847 9.59987C27.3428 9.85845 27.2895 10.1211 27.2226 10.3891C27.2165 10.4121 27.2098 10.4357 27.2037 10.4566C26.7098 12.2302 25.8991 13.8999 24.8109 15.3851C24.5934 15.6917 24.3638 15.9964 24.122 16.2993C24.0009 16.4505 23.8771 16.6013 23.7506 16.7516C23.3697 17.2017 22.9627 17.6439 22.5296 18.0783C22.5122 18.0955 22.501 18.1179 22.4976 18.1422C22.4943 18.1664 22.499 18.191 22.5111 18.2123C22.5232 18.2335 22.5419 18.2502 22.5644 18.2598C22.5869 18.2694 22.6119 18.2713 22.6356 18.2653C22.978 18.1782 23.4129 18.0627 23.8654 17.9324C24.4037 17.7779 24.886 17.4715 25.2546 17.05L25.26 17.0433C25.355 16.9344 25.4493 16.8252 25.543 16.7158C26.1026 16.0601 26.6263 15.4016 27.1139 14.7404C27.2764 14.5207 27.434 14.3011 27.5866 14.0814C28.0017 13.49 28.3858 12.9018 28.7388 12.3166C28.9031 12.0466 29.0607 11.7765 29.2115 11.5065C29.397 11.1738 29.572 10.8439 29.7363 10.5167C29.9479 10.0945 30.1408 9.67818 30.3151 9.2677C30.402 9.06246 30.4844 8.85992 30.5622 8.66007C30.601 8.55925 30.6386 8.45888 30.675 8.35896C30.6919 8.31238 30.7075 8.26647 30.7243 8.21988C30.7784 8.0673 30.8304 7.91607 30.8783 7.76619C30.9112 7.66357 30.9429 7.56162 30.9735 7.46035C31.0298 7.27176 31.0816 7.08542 31.1289 6.90133C31.2009 6.61823 31.2617 6.34074 31.3112 6.06889C31.3441 5.88885 31.3718 5.71039 31.3943 5.5335C31.4168 5.35662 31.4341 5.184 31.4463 5.01567C31.458 4.84598 31.4648 4.67945 31.4666 4.51607C31.4684 4.35268 31.4645 4.19267 31.4551 4.03604C31.4501 3.95773 31.444 3.88031 31.4368 3.80379C31.422 3.65076 31.4017 3.50111 31.3761 3.35483C31.2535 2.53209 30.8772 1.76809 30.2995 1.1694C30.2509 1.12079 30.2012 1.07398 30.1503 1.02897C30.1334 1.01344 30.1152 0.999939 30.0976 0.984411C30.0632 0.95538 30.0301 0.925674 29.9936 0.897318C29.972 0.880439 29.9497 0.864911 29.9261 0.848033C29.8936 0.823728 29.8585 0.798747 29.8275 0.775118C29.7964 0.751488 29.7795 0.743386 29.7552 0.727183C29.7309 0.710979 29.6877 0.683299 29.6559 0.659669C29.6242 0.636039 29.6039 0.629287 29.5783 0.613759C29.5526 0.598231 29.5107 0.574601 29.4776 0.555697L29.3952 0.512488C29.3615 0.494935 29.3277 0.477381 29.2926 0.461178C29.2575 0.444974 29.2345 0.434847 29.2055 0.421344C29.1764 0.407842 29.1379 0.390288 29.1008 0.375435L29.0083 0.338302C28.9725 0.324124 28.9367 0.310622 28.9002 0.297794L28.807 0.266737L28.6962 0.230955L28.5983 0.203274L28.4848 0.172893L28.3842 0.148588L28.2674 0.122258L28.1641 0.102003L28.0438 0.081074L27.9385 0.0648707L27.8156 0.0479922L27.7075 0.0351645L27.5812 0.0236872L27.4698 0.0149104L27.3401 0.00815896L27.2267 0.000732422H27.0916H26.9856C26.8802 0.000732422 26.7735 0.00320793 26.6654 0.00815896L26.5979 0.0122098C26.5079 0.0171608 26.4151 0.0236872 26.3197 0.0317888L26.24 0.0385402C26.1283 0.0488924 26.0157 0.061495 25.9023 0.0763481L25.8381 0.0851249C25.74 0.0986277 25.6411 0.113706 25.5416 0.130359L25.4552 0.145212C25.3377 0.165467 25.2195 0.188421 25.1 0.212726L25.0446 0.224879C24.9397 0.247383 24.8339 0.271463 24.7272 0.297119L24.634 0.320073C24.511 0.350455 24.3881 0.382186 24.2632 0.417294L24.222 0.429446C24.1085 0.461403 23.9944 0.49516 23.8796 0.530717L23.7823 0.560423C23.6547 0.600932 23.5264 0.642115 23.3974 0.686674L23.3778 0.693426C23.254 0.738435 23.1293 0.783444 23.0036 0.828454L22.901 0.866937C22.7727 0.915547 22.6437 0.965507 22.514 1.01749L22.5019 1.02222C22.3668 1.07623 22.2317 1.13227 22.1 1.19033L21.9947 1.23624C21.8713 1.29025 21.7473 1.34584 21.6225 1.403L21.5841 1.42055C21.449 1.48334 21.3139 1.54883 21.1748 1.61499L21.0694 1.66698C20.9488 1.72684 20.8274 1.78805 20.7054 1.85062L20.6467 1.881C20.5089 1.95256 20.3707 2.02593 20.232 2.10109L20.1266 2.15848C20.0069 2.22419 19.8869 2.29171 19.7667 2.36102L19.6944 2.4022C19.5548 2.48232 19.4148 2.56424 19.2743 2.64795L19.1723 2.70939C19.053 2.78141 18.9335 2.85455 18.8137 2.92881L18.7293 2.9808C18.5884 3.07082 18.447 3.16084 18.3052 3.25085L18.2079 3.31499C18.0886 3.39331 17.9693 3.47275 17.85 3.55332L17.7561 3.61678C17.6143 3.71355 17.4722 3.8119 17.33 3.91182L17.2395 3.97933C17.1193 4.0644 16.999 4.15082 16.8788 4.23858L16.7782 4.31217C16.6359 4.41705 16.4934 4.52349 16.3507 4.63152L16.3406 4.63962C17.6359 4.62949 19.3122 4.59573 19.9639 4.58223L20.1374 4.52147"
                fill="#949699" />
            <path
                d="M16.3392 22.3972C16.1446 22.3976 15.9513 22.43 15.7672 22.493L15.6997 22.516C15.5696 22.561 15.4403 22.6017 15.312 22.6382L15.2134 22.6665C15.1067 22.6972 15.0007 22.726 14.8953 22.753L14.8129 22.7739C14.6864 22.8049 14.561 22.8333 14.4368 22.859L14.3517 22.8758C14.2486 22.8961 14.1463 22.9143 14.045 22.9305L13.9559 22.9447C13.8339 22.9632 13.713 22.9789 13.5932 22.992L13.5257 22.998C13.4239 23.0079 13.3233 23.016 13.2238 23.0223L13.1333 23.0277C13.0205 23.0331 12.9091 23.0365 12.7956 23.0365H12.749C12.6423 23.0365 12.5376 23.0318 12.4336 23.0264L12.3661 23.0223C12.2571 23.0151 12.1495 23.005 12.0433 22.992L11.9832 22.9839C11.885 22.9708 11.7882 22.9551 11.6928 22.9366L11.6529 22.9292C11.5503 22.9089 11.4503 22.8846 11.3504 22.8583L11.2862 22.8407C11.1863 22.8124 11.0883 22.782 10.9924 22.7476L10.9796 22.7428C10.8871 22.7091 10.7973 22.6753 10.7095 22.6328L10.6534 22.6078C10.5643 22.5666 10.4771 22.5227 10.392 22.4728L10.3481 22.4471C10.2707 22.4021 10.1953 22.3551 10.1219 22.306L10.0841 22.281C10.0051 22.2264 9.92807 22.1676 9.8531 22.1062L9.8038 22.065C9.72816 22.0009 9.65455 21.9347 9.58364 21.8625C9.31988 21.5964 9.09849 21.2916 8.92719 20.9584C8.77656 20.6674 8.66008 20.36 8.58005 20.0423C8.55844 19.9565 8.53616 19.8708 8.51927 19.7823C8.47221 19.5423 8.44107 19.2994 8.42607 19.0552C8.41114 18.7971 8.41114 18.5383 8.42607 18.2802C8.44088 18.007 8.46951 17.7348 8.51184 17.4646C8.51184 17.4443 8.51927 17.4241 8.52265 17.4038C8.56452 17.1453 8.61787 16.882 8.68406 16.6146C8.68946 16.5916 8.69689 16.568 8.70297 16.5471C8.7705 16.2811 8.84952 16.0117 8.94137 15.7369C9.09709 15.2761 9.27745 14.824 9.48166 14.3826C9.62213 14.0779 9.77566 13.7716 9.94225 13.4637C10.1088 13.1559 10.2889 12.848 10.4825 12.5401C10.6748 12.2323 10.8796 11.9249 11.0971 11.6179C11.3146 11.3109 11.5444 11.0091 11.7866 10.7125C12.2843 10.0907 12.8162 9.49696 13.3798 8.93421C13.391 8.92288 13.3982 8.90828 13.4004 8.89255C13.4026 8.87682 13.3998 8.86079 13.3922 8.84681C13.3847 8.83284 13.3728 8.82165 13.3584 8.8149C13.344 8.80815 13.3279 8.80619 13.3123 8.8093C13.1097 8.85926 12.8915 8.9153 12.6653 8.97809C11.6514 9.25637 10.7469 9.83803 10.0733 10.645C9.00545 11.9197 8.03472 13.2727 7.16923 14.6925C7.0049 14.9625 6.84731 15.2326 6.69648 15.5026L6.67825 15.5344C6.55893 15.7486 6.44412 15.962 6.33382 16.1744C6.22351 16.3868 6.1177 16.5977 6.0164 16.807C5.91509 17.0168 5.81852 17.2249 5.72667 17.4315C5.63482 17.6381 5.5477 17.8431 5.4653 18.0466C5.38291 18.25 5.30547 18.4525 5.23298 18.6542C5.2161 18.7008 5.20057 18.7467 5.18368 18.7933C5.09363 19.0498 5.01056 19.3032 4.93447 19.5535C4.76952 20.098 4.64181 20.6531 4.55222 21.215C4.52431 21.395 4.5018 21.5706 4.48469 21.7416C4.46758 21.9126 4.45565 22.0823 4.44889 22.2507C4.44574 22.3339 4.44371 22.4163 4.44281 22.4978C4.44191 22.5792 4.44191 22.66 4.44281 22.7401C4.44687 22.8999 4.45632 23.0575 4.47118 23.2127C4.49244 23.4363 4.52717 23.6584 4.57519 23.8777C4.66231 24.2872 4.8086 24.6818 5.00944 25.0491C5.10645 25.2245 5.21781 25.3916 5.34239 25.5487C5.42539 25.6531 5.51423 25.7528 5.60848 25.8471C5.65576 25.8944 5.70438 25.9394 5.75436 25.9822C5.77192 25.9977 5.79015 26.0119 5.80771 26.0274C5.84148 26.0564 5.87525 26.0855 5.91104 26.1131C5.93265 26.13 5.95494 26.1462 5.97858 26.1624C6.011 26.1867 6.04611 26.2117 6.07718 26.2353C6.10825 26.259 6.1258 26.2677 6.14944 26.2839C6.17308 26.3001 6.21698 26.3278 6.24804 26.3515C6.27911 26.3751 6.30005 26.3825 6.32639 26.398C6.35273 26.4136 6.39392 26.4372 6.42634 26.4554C6.45876 26.4737 6.48172 26.4845 6.50941 26.4986C6.5371 26.5128 6.57694 26.5337 6.61139 26.5499L6.69851 26.5898C6.73295 26.6053 6.76604 26.6208 6.80319 26.6357L6.89369 26.6715C6.92948 26.6857 6.96527 26.6992 7.00107 26.712L7.09562 26.7444L7.2057 26.7802L7.30295 26.8085L7.41641 26.8389L7.51704 26.8632L7.63388 26.8889L7.73721 26.9091L7.85742 26.9301L7.96345 26.9463L8.08637 26.9625L8.1951 26.9753L8.32139 26.9868L8.43215 26.9955L8.56182 27.0023L8.6746 27.007H8.80968H8.91706C9.02241 27.007 9.12912 27.0045 9.23718 26.9996L9.30471 26.9955C9.39476 26.9906 9.48728 26.9841 9.58228 26.976L9.66265 26.9692C9.77386 26.9589 9.88642 26.9463 10.0003 26.9314L10.0638 26.9226C10.162 26.9091 10.2608 26.894 10.3603 26.8774L10.4474 26.8625C10.5643 26.8423 10.6824 26.82 10.802 26.795L10.858 26.7829C10.9629 26.7604 11.0685 26.7363 11.1748 26.7106L11.2687 26.6877C11.3909 26.6573 11.5145 26.6256 11.6387 26.5905L11.6813 26.5783C11.7943 26.5463 11.9082 26.5126 12.023 26.477L12.1216 26.4467C12.2493 26.4061 12.3769 26.365 12.5066 26.3204L12.5289 26.3123C12.6518 26.2698 12.776 26.2252 12.9003 26.1773L13.003 26.1388C13.1313 26.0902 13.2603 26.0402 13.3899 25.9882L13.4014 25.9835C13.5365 25.9295 13.6716 25.8728 13.8066 25.8147L13.9113 25.7695C14.0349 25.7155 14.1592 25.6601 14.2834 25.6027L14.3226 25.5852C14.4577 25.5222 14.5941 25.4574 14.7319 25.3907L14.8372 25.3387C14.9584 25.2789 15.0799 25.2177 15.2019 25.1551L15.26 25.1254C15.3978 25.0538 15.536 24.9805 15.6747 24.9053L15.78 24.8479C15.8994 24.7827 16.0189 24.7151 16.1387 24.6454L16.2129 24.6035C16.3525 24.5234 16.4923 24.4415 16.6323 24.3578L16.735 24.2957C16.8539 24.2241 16.9729 24.1512 17.0923 24.0769L17.178 24.0236C17.319 23.9336 17.4601 23.8435 17.6015 23.7535L17.6994 23.686C17.8187 23.6077 17.938 23.5282 18.0573 23.4477L18.1512 23.3842C18.293 23.2879 18.4349 23.1896 18.5767 23.0892L18.6692 23.0217C18.7885 22.9371 18.9081 22.8511 19.0278 22.7638L19.1291 22.6895L19.302 22.5612C19.3204 22.5477 19.3339 22.5286 19.3406 22.5068C19.3474 22.485 19.3469 22.4616 19.3393 22.4401C19.3318 22.4186 19.3175 22.4 19.2987 22.3872C19.2798 22.3744 19.2573 22.3679 19.2345 22.3688C18.2424 22.383 16.9207 22.3864 16.3338 22.387"
                fill="#949699" />
            <path
                d="M41.4706 19.4164L42.5897 17.7171C42.6333 17.6503 42.6898 17.593 42.7558 17.5482C42.8218 17.5035 42.896 17.4723 42.9742 17.4565C43.0523 17.4407 43.1329 17.4405 43.2111 17.4561C43.2893 17.4716 43.3636 17.5025 43.4298 17.5469C44.949 18.642 46.7584 19.2631 48.6301 19.332C50.3421 19.332 51.3315 18.6076 51.3315 17.4558V17.3883C51.3315 16.038 49.4878 15.5775 47.4462 14.9524C44.8798 14.2286 42.0129 13.1747 42.0129 9.85033V9.78281C42.0129 6.49151 44.7461 4.48364 48.2032 4.48364C50.2736 4.52129 52.2992 5.09291 54.0836 6.14314C54.2209 6.22302 54.3214 6.35345 54.3637 6.50651C54.406 6.65957 54.3866 6.82309 54.3098 6.96208L53.3083 8.7566C53.2312 8.89584 53.1021 8.99893 52.9493 9.04333C52.7964 9.08774 52.6321 9.06985 52.4924 8.99358C51.16 8.19572 49.6534 7.73371 48.1026 7.64735C46.5554 7.64735 45.6659 8.37177 45.6659 9.39191V9.45942C45.6659 10.7105 47.5427 11.2371 49.583 11.8953C52.1183 12.6852 54.9859 13.8377 54.9859 16.9643V17.0257C54.9859 20.6796 52.1541 22.4896 48.5321 22.4896C46.052 22.4579 43.6404 21.6715 41.6185 20.2353C41.4924 20.1442 41.4064 20.0079 41.3786 19.8549C41.3508 19.7018 41.3833 19.544 41.4693 19.4144"
                fill="#949699" />
            <path
                d="M58.0817 13.5717V13.5042C58.1269 11.0823 59.1187 8.77431 60.8449 7.07435C62.5712 5.37439 64.8945 4.41758 67.3176 4.40875C69.7407 4.39993 72.071 5.33979 73.8095 7.02714C75.5481 8.71448 76.5567 11.0152 76.6195 13.4367V13.5042C76.6153 14.7142 76.3695 15.9112 75.8963 17.0249C75.4231 18.1387 74.7322 19.1467 73.8641 19.9899C72.996 20.8331 71.9681 21.4945 70.8408 21.9352C69.7136 22.3759 68.5096 22.5872 67.2996 22.5565C66.1 22.5869 64.9065 22.3769 63.7894 21.9389C62.6722 21.501 61.654 20.8439 60.7949 20.0065C59.9357 19.1691 59.2529 18.1682 58.7867 17.0628C58.3205 15.9575 58.0803 14.77 58.0803 13.5704M72.6343 13.5704V13.5029C72.6343 10.4418 70.4279 7.90733 67.299 7.90733C64.1052 7.90733 62.0636 10.4087 62.0636 13.4374V13.5049C62.0636 16.5329 64.27 19.1005 67.3651 19.1005C70.592 19.1005 72.6329 16.566 72.6329 13.5704"
                fill="#949699" />
            <path
                d="M81.2734 4.78287H84.0484C84.2096 4.78287 84.3642 4.84688 84.4782 4.96084C84.5922 5.07479 84.6562 5.22934 84.6562 5.39049V7.48343C85.2149 6.54283 86.0106 5.76516 86.9638 5.22803C87.9171 4.6909 88.9946 4.41309 90.0888 4.42234C94.0059 4.42234 96.2792 7.05539 96.2792 11.1062V21.5567C96.2792 21.7179 96.2151 21.8724 96.1011 21.9864C95.9871 22.1003 95.8325 22.1643 95.6713 22.1643H92.8963C92.7351 22.1643 92.5805 22.1003 92.4665 21.9864C92.3525 21.8724 92.2885 21.7179 92.2885 21.5567V12.2877C92.2885 9.58716 90.9377 8.04177 88.5679 8.04177C86.2629 8.04177 84.6508 9.65468 84.6508 12.3539V21.5567C84.6508 21.7179 84.5868 21.8724 84.4728 21.9864C84.3588 22.1003 84.2042 22.1643 84.043 22.1643H81.268C81.1068 22.1643 80.9522 22.1003 80.8382 21.9864C80.7242 21.8724 80.6602 21.7179 80.6602 21.5567V5.38712C80.6602 5.22597 80.7242 5.07141 80.8382 4.95746C80.9522 4.84351 81.1068 4.77949 81.268 4.77949"
                fill="#949699" />
            <path
                d="M100.128 13.5392V13.0342C100.123 11.903 100.342 10.7819 100.772 9.7356C101.203 8.68932 101.836 7.73852 102.636 6.93799C103.435 6.13745 104.385 5.50301 105.431 5.07123C106.477 4.63944 107.598 4.41885 108.73 4.42216C114.191 4.47819 116.954 8.79909 116.954 13.7701C116.954 13.9551 116.945 14.1394 116.932 14.3285C116.921 14.4808 116.853 14.6234 116.741 14.7274C116.629 14.8314 116.482 14.8891 116.329 14.8888H104.112C104.224 16.1244 104.805 17.27 105.736 18.0904C106.667 18.9107 107.877 19.3434 109.117 19.2995C110.727 19.3207 112.28 18.7059 113.439 17.5887C113.55 17.4911 113.692 17.4372 113.839 17.4372C113.986 17.4372 114.129 17.4911 114.239 17.5887L115.714 18.8972C115.774 18.9513 115.823 19.017 115.858 19.0903C115.893 19.1637 115.912 19.2432 115.916 19.3243C115.919 19.4053 115.906 19.4862 115.878 19.5622C115.849 19.6382 115.806 19.7077 115.75 19.7667C114.898 20.6823 113.859 21.4049 112.704 21.8861C111.549 22.3674 110.304 22.5962 109.054 22.5571C104.015 22.5571 100.13 18.9032 100.13 13.5379M113.004 12.2551C112.741 9.6896 111.226 7.6797 108.592 7.6797C106.156 7.6797 104.444 9.55592 104.082 12.2551H113.004Z"
                fill="#949699" />
            <path
                d="M121.575 4.7828H124.35C124.511 4.7828 124.666 4.84682 124.78 4.96077C124.894 5.07473 124.958 5.22928 124.958 5.39043V7.6859C125.583 6.68748 126.452 5.86448 127.483 5.29437C128.514 4.72425 129.673 4.42577 130.852 4.42701C134.968 4.42701 138.952 7.68591 138.952 13.4462V13.5137C138.952 19.274 135 22.5329 130.852 22.5329C129.694 22.543 128.551 22.2693 127.524 21.7356C126.496 21.202 125.615 20.4247 124.958 19.4718V26.8227C124.958 26.9839 124.894 27.1384 124.78 27.2524C124.666 27.3663 124.511 27.4304 124.35 27.4304H121.575C121.495 27.4304 121.416 27.4146 121.342 27.3841C121.268 27.3536 121.201 27.3088 121.145 27.2524C121.089 27.196 121.044 27.129 121.013 27.0553C120.983 26.9815 120.967 26.9025 120.967 26.8227V5.38773C120.967 5.30794 120.983 5.22892 121.013 5.1552C121.044 5.08148 121.089 5.0145 121.145 4.95807C121.201 4.90165 121.268 4.85689 121.342 4.82636C121.416 4.79582 121.495 4.78011 121.575 4.78011M134.898 13.5029V13.4354C134.898 10.0779 132.626 7.87224 129.926 7.87224C127.226 7.87224 124.856 10.1103 124.856 13.4354V13.5029C124.856 16.8604 127.226 19.0661 129.926 19.0661C132.659 19.0661 134.898 16.9265 134.898 13.5029Z"
                fill="#949699" />
            <path
                d="M153.667 21.5594V20.0241C152.98 20.8414 152.116 21.4915 151.14 21.9249C150.165 22.3584 149.103 22.5637 148.036 22.5255C144.744 22.5255 141.846 20.6493 141.846 17.1601V17.0926C141.846 13.2443 144.842 11.3978 148.892 11.3978C150.524 11.3696 152.149 11.6145 153.7 12.1223V11.7928C153.7 9.38996 152.185 8.07276 149.419 8.07276C147.914 8.06978 146.423 8.35939 145.029 8.92546C144.953 8.95437 144.873 8.96769 144.791 8.96462C144.71 8.96156 144.631 8.94218 144.557 8.90765C144.484 8.87311 144.418 8.82412 144.364 8.76362C144.31 8.70311 144.269 8.63232 144.243 8.55549L143.54 6.49294C143.492 6.34827 143.5 6.19076 143.562 6.05169C143.625 5.91261 143.738 5.80213 143.878 5.74218C145.802 4.90273 147.883 4.48534 149.982 4.51815C155.118 4.51815 157.621 7.21871 157.621 11.8583V21.5594C157.621 21.6391 157.605 21.7182 157.574 21.7919C157.544 21.8656 157.499 21.9326 157.443 21.989C157.386 22.0454 157.319 22.0902 157.245 22.1207C157.172 22.1513 157.093 22.167 157.013 22.167H154.271C154.11 22.167 153.955 22.103 153.841 21.989C153.727 21.8751 153.663 21.7205 153.663 21.5594M153.762 14.889C152.485 14.4226 151.136 14.1884 149.777 14.1976C147.274 14.1976 145.792 15.2178 145.792 16.8982V16.9657C145.792 18.6117 147.274 19.5312 149.151 19.5312C151.785 19.5312 153.761 18.05 153.761 15.8774L153.762 14.889Z"
                fill="#949699" />
            <path
                d="M162.963 4.78353H165.738C165.899 4.78353 166.053 4.84755 166.167 4.9615C166.281 5.07546 166.345 5.23001 166.345 5.39116V8.70407C167.358 6.28504 169.164 4.57829 171.877 4.45744C171.958 4.45443 172.039 4.46795 172.116 4.49719C172.192 4.52642 172.261 4.57077 172.319 4.62755C172.378 4.68434 172.424 4.75237 172.456 4.82757C172.487 4.90276 172.503 4.98355 172.503 5.06507V8.08902C172.502 8.24213 172.443 8.38923 172.338 8.50089C172.233 8.61254 172.09 8.68053 171.937 8.69124C168.509 8.91201 166.345 11.1805 166.345 15.5527V21.5614C166.345 21.6412 166.33 21.7202 166.299 21.794C166.269 21.8677 166.224 21.9347 166.167 21.9911C166.111 22.0475 166.044 22.0923 165.97 22.1228C165.896 22.1533 165.817 22.1691 165.738 22.1691H162.963C162.883 22.1691 162.804 22.1533 162.73 22.1228C162.656 22.0923 162.589 22.0475 162.533 21.9911C162.476 21.9347 162.432 21.8677 162.401 21.794C162.371 21.7202 162.355 21.6412 162.355 21.5614V5.38711C162.355 5.22596 162.419 5.07141 162.533 4.95745C162.647 4.8435 162.801 4.77948 162.963 4.77948"
                fill="#949699" />
        </g>
    </g>
    <defs>
        <clipPath id="clip0_665_3357">
            <rect width="172" height="40" fill="white" transform="translate(0.5)" />
        </clipPath>
    </defs>
</svg>
    