<svg width="17" height="16" viewBox="0 0 17 16" fill="none" xmlns="http://www.w3.org/2000/svg">
    <g clip-path="url(#clip0_1871_7431)">
        <path
            d="M14.7222 2.5H2.27778C1.80628 2.5 1.3541 2.6873 1.0207 3.0207C0.687301 3.3541 0.5 3.80628 0.5 4.27778L0.5 6.5H16.5V4.27778C16.5 3.80628 16.3127 3.3541 15.9793 3.0207C15.6459 2.6873 15.1937 2.5 14.7222 2.5Z"
            fill="#141414" />
        <path d="M0.5 6.22217H16.5V10.2222H0.5V6.22217Z" fill="#ED1F24" />
        <path
            d="M0.5 11.7221C0.5 12.1936 0.687301 12.6458 1.0207 12.9792C1.3541 13.3126 1.80628 13.4999 2.27778 13.4999H14.7222C15.1937 13.4999 15.6459 13.3126 15.9793 12.9792C16.3127 12.6458 16.5 12.1936 16.5 11.7221V9.94434H0.5V11.7221Z"
            fill="#FFCD05" />
    </g>
    <defs>
        <clipPath id="clip0_1871_7431">
            <rect width="16" height="16" fill="white" transform="translate(0.5)" />
        </clipPath>
    </defs>
</svg>
    