<svg width="17" height="16" viewBox="0 0 17 16" fill="none" xmlns="http://www.w3.org/2000/svg">
    <g clip-path="url(#clip0_1871_7438)">
        <path
            d="M16.5 10.75C16.5 12.2688 15.6567 13.5 14 13.5H3C1.34325 13.5 0.5 12.2688 0.5 10.75V5.25C0.5 3.73125 1.34325 2.5 3 2.5H14C15.6567 2.5 16.5 3.73125 16.5 5.25V10.75Z"
            fill="#EC1C24" />
        <path fill-rule="evenodd" clip-rule="evenodd"
            d="M10.4445 9.57985C9.86899 10.4776 8.67074 11.0439 7.41699 10.6776C6.23374 10.3311 5.42099 9.1846 5.48824 7.9481C5.55374 6.7061 6.48674 5.64985 7.69924 5.4356C8.98399 5.20735 10.016 5.8961 10.4567 6.6171C9.93449 6.1036 9.32724 5.87235 8.61624 5.9536C8.05924 6.0176 7.59374 6.26935 7.22924 6.69435C6.51574 7.52485 6.54199 8.77035 7.28699 9.5541C7.71424 10.0036 8.23974 10.2389 8.85999 10.2446C9.47974 10.2491 10.0055 10.0146 10.446 9.5811"
            fill="white" />
        <path
            d="M11.5575 7.09912L12.065 7.57012L12.742 7.42012L12.4502 8.05012L12.8025 8.64537L12.115 8.56262L11.6552 9.08262L11.5225 8.40212L10.8855 8.12612L11.491 7.79012L11.5575 7.09912Z"
            fill="white" />
    </g>
    <defs>
        <clipPath id="clip0_1871_7438">
            <rect width="16" height="16" fill="white" transform="translate(0.5)" />
        </clipPath>
    </defs>
</svg>
    