<svg width="205" height="111" viewBox="0 0 205 111" fill="none" xmlns="http://www.w3.org/2000/svg">
    <g clip-path="url(#clip0_781_67300)">
        <path
            d="M43.3837 10.3964C49.3023 0.35621 62.2443 -2.99321 72.287 2.92372C75.2638 4.67558 77.6427 7.0467 79.3739 9.76943C79.7469 10.2971 95.3466 36.9093 95.7225 37.5194C79.3672 40.2635 69.3948 49.4106 61.5761 62.6874L39.3016 100.491C33.383 110.531 20.441 113.881 10.3983 107.964C0.355589 102.047 -2.99398 89.1066 2.92469 79.0663L43.3837 10.3964ZM124.297 10.4032C130.215 0.362971 143.157 -2.98656 153.2 2.93056C156.388 4.80915 158.894 7.39185 160.653 10.3681C160.66 10.3819 160.673 10.4024 160.674 10.4032L176.629 37.5194H176.636C160.28 40.2634 150.308 49.4106 142.489 62.6874L120.215 100.491C114.296 110.531 101.354 113.881 91.3114 107.964C88.3837 106.247 86.0327 103.924 84.3085 101.258C83.3637 99.7912 68.7221 74.7639 67.8759 73.3749C84.2312 70.6308 94.2035 61.4837 102.022 48.2069L124.297 10.4032ZM148.759 73.3681C159.062 71.6513 168.563 67.3375 185.143 68.7938C195.756 69.9055 204.033 78.8766 204.033 89.7821C204.033 101.434 194.581 110.884 182.927 110.884C175.185 110.884 168.423 106.711 164.749 100.498C164.742 100.498 164.735 100.485 164.734 100.484L148.759 73.3681Z"
            fill="currentColor" />
    </g>
    <defs>
        <clipPath id="clip0_781_67300">
            <rect width="204.033" height="110.887" fill="currentColor" />
        </clipPath>
    </defs>
</svg>
    